<?xml version="1.0" encoding="UTF-8"?>
<svg id="_레이어_1" data-name="레이어_1" xmlns="http://www.w3.org/2000/svg" viewBox="0 0 1200 1200">
  <defs>
    <style>
      .cls-1 {
        fill: none;
      }

      .cls-2 {
        fill: #815239;
      }

      .cls-3 {
        fill: #fff;
      }
    </style>
  </defs>
  <g>
    <path class="cls-2" d="M617.34,1016.18l-1.29,114.4c-.07,5.91-8.19,10.68-18.15,10.65-9.96-.03-17.98-4.85-17.91-10.76l1.29-114.4c.16-13.83,8.36-25.02,18.31-24.99,9.96.03,17.91,11.27,17.75,25.1Z"/>
    <rect class="cls-1" x="35.15" y="990.2" width="1129.76" height="156.15"/>
  </g>
  <g>
    <path class="cls-3" d="M613.62,459.39l-5.26,467.73,4.14,52c-.12,11.08-26.39,11-26.27-.08l11.32-106.06,4.65-413.63c.02-1.81,2.59-3.27,5.75-3.26,3.15,0,5.69,1.48,5.67,3.29Z"/>
    <rect class="cls-1" x="34.84" y="452.47" width="1129.76" height="537.73"/>
  </g>
  <g>
    <g>
      <polygon class="cls-3" points="607.7 315.6 625.88 436.35 630.21 436.14 612.03 315.38 607.7 315.6"/>
      <polygon class="cls-3" points="607.71 315.67 633.85 417.21 638.15 416.85 612.01 315.31 607.71 315.67"/>
      <polygon class="cls-3" points="607.76 315.8 648.95 407.77 653.16 407.15 611.97 315.18 607.76 315.8"/>
      <polygon class="cls-3" points="607.96 316.09 681.33 392.72 685.14 391.52 611.77 314.89 607.96 316.09"/>
      <polygon class="cls-3" points="608.08 316.2 714.46 403.99 718.03 402.56 611.65 314.78 608.08 316.2"/>
      <polygon class="cls-3" points="608.23 316.31 723.9 392.26 727.18 390.62 611.5 314.67 608.23 316.31"/>
      <polygon class="cls-3" points="608.62 316.51 815.39 399.48 817.88 397.44 611.11 314.47 608.62 316.51"/>
      <polygon class="cls-3" points="608.74 316.56 816.58 388.62 818.83 386.48 610.99 314.42 608.74 316.56"/>
      <polygon class="cls-3" points="608.7 316.54 972.12 449.33 974.46 447.23 611.03 314.44 608.7 316.54"/>
      <polygon class="cls-3" points="609.13 316.66 1050.88 407.07 1052.34 404.73 610.6 314.32 609.13 316.66"/>
      <polygon class="cls-3" points="609.31 316.7 1098.54 390.19 1099.65 387.78 610.42 314.29 609.31 316.7"/>
      <polygon class="cls-3" points="609.48 316.72 1061 362.3 1061.76 359.85 610.24 314.26 609.48 316.72"/>
      <polygon class="cls-3" points="609.57 316.73 1079.24 352.69 1079.81 350.22 610.15 314.26 609.57 316.73"/>
      <polygon class="cls-3" points="609.71 314.25 610.02 316.73 1164.21 293.39 1163.9 290.91 609.71 314.25"/>
      <polygon class="cls-3" points="609.59 314.26 610.14 316.73 1059.6 283.83 1059.06 281.36 609.59 314.26"/>
      <polygon class="cls-3" points="609.55 314.26 610.17 316.72 1076.29 277.73 1075.67 275.26 609.55 314.26"/>
      <polygon class="cls-3" points="609.36 314.28 610.36 316.7 1120.22 247.36 1119.22 244.94 609.36 314.28"/>
      <polygon class="cls-3" points="609.42 314.27 610.31 316.71 1108.36 256.56 1107.47 254.13 609.42 314.27"/>
      <polygon class="cls-3" points="609.16 314.31 610.56 316.67 1145.19 212.17 1143.79 209.81 609.16 314.31"/>
      <polygon class="cls-3" points="609.09 314.33 610.64 316.65 1137.59 200.94 1136.04 198.62 609.09 314.33"/>
      <polygon class="cls-3" points="609.04 314.34 610.69 316.64 1134.32 192.81 1132.67 190.51 609.04 314.34"/>
      <polygon class="cls-3" points="608.96 314.36 610.76 316.62 1127.21 181.59 1125.41 179.32 608.96 314.36"/>
      <polygon class="cls-3" points="608.89 314.38 610.83 316.6 1078.51 181.98 1076.57 179.75 608.89 314.38"/>
      <polygon class="cls-3" points="608.68 314.45 611.05 316.53 1095.84 134.7 1093.47 132.61 608.68 314.45"/>
      <polygon class="cls-3" points="608.61 314.48 611.12 316.5 1057.34 134.54 1054.83 132.51 608.61 314.48"/>
      <polygon class="cls-3" points="608.41 314.57 611.32 316.41 1004.83 112.27 1001.92 110.42 608.41 314.57"/>
      <polygon class="cls-3" points="608.22 314.68 611.5 316.31 922.22 110.27 918.94 108.64 608.22 314.68"/>
      <polygon class="cls-3" points="608.15 314.72 611.57 316.26 844.06 145.66 840.64 144.12 608.15 314.72"/>
      <polygon class="cls-3" points="607.97 314.88 611.75 316.1 822.7 101 818.92 99.77 607.97 314.88"/>
      <polygon class="cls-3" points="607.84 315.04 611.88 315.95 713.32 167.97 709.27 167.07 607.84 315.04"/>
      <polygon class="cls-3" points="607.77 315.16 611.96 315.82 723.61 80.63 719.42 79.98 607.77 315.16"/>
      <polygon class="cls-3" points="607.71 315.35 612.02 315.63 648.01 140.14 643.69 139.86 607.71 315.35"/>
      <polygon class="cls-3" points="607.69 315.45 612.03 315.53 625.95 62.3 621.61 62.23 607.69 315.45"/>
      <polygon class="cls-3" points="568.73 137.89 607.71 315.65 612.02 315.33 573.03 137.57 568.73 137.89"/>
      <polygon class="cls-3" points="508.95 84.23 607.75 315.79 611.97 315.19 513.17 83.64 508.95 84.23"/>
      <polygon class="cls-3" points="428.48 75.82 607.87 315.98 611.86 315 432.48 74.83 428.48 75.82"/>
      <polygon class="cls-3" points="357.85 80.24 608.01 316.14 611.72 314.84 361.56 78.94 357.85 80.24"/>
      <polygon class="cls-3" points="230.22 71.87 608.24 316.32 611.49 314.66 233.47 70.22 230.22 71.87"/>
      <polygon class="cls-3" points="335.2 165.22 608.35 316.39 611.37 314.59 338.22 163.42 335.2 165.22"/>
      <polygon class="cls-3" points="176.77 101.37 608.44 316.43 611.29 314.55 179.62 99.49 176.77 101.37"/>
      <polygon class="cls-3" points="148.94 123.77 608.58 316.5 611.14 314.49 151.51 121.76 148.94 123.77"/>
      <polygon class="cls-3" points="142.11 137.03 608.65 316.53 611.07 314.46 144.53 134.96 142.11 137.03"/>
      <polygon class="cls-3" points="126.5 138.01 608.68 316.54 611.04 314.44 128.85 135.92 126.5 138.01"/>
      <polygon class="cls-3" points="128.13 159.87 608.79 316.57 610.94 314.41 130.28 157.7 128.13 159.87"/>
      <polygon class="cls-3" points="117.73 178.42 608.91 316.61 610.82 314.37 119.65 176.18 117.73 178.42"/>
      <polygon class="cls-3" points="106.29 193.09 609.01 316.64 610.72 314.35 108.01 190.8 106.29 193.09"/>
      <polygon class="cls-3" points="57.11 208.1 609.16 316.67 610.57 314.31 58.52 205.74 57.11 208.1"/>
      <polygon class="cls-3" points="226.76 235.48 609.11 316.66 610.62 314.32 228.28 233.14 226.76 235.48"/>
      <polygon class="cls-3" points="34.4 228.51 609.3 316.69 610.43 314.29 35.52 226.1 34.4 228.51"/>
      <polygon class="cls-3" points="361.03 287.31 609.42 316.71 610.3 314.27 361.91 284.87 361.03 287.31"/>
      <polygon class="cls-3" points="89.64 261.67 609.47 316.72 610.26 314.27 90.43 259.22 89.64 261.67"/>
      <polygon class="cls-3" points="73.28 266.05 609.51 316.72 610.22 314.26 73.99 263.59 73.28 266.05"/>
      <polygon class="cls-3" points="57.27 271.3 609.55 316.72 610.17 314.26 57.89 268.83 57.27 271.3"/>
      <polygon class="cls-3" points="87.34 301.26 609.75 316.73 609.98 314.25 87.57 298.77 87.34 301.26"/>
      <polygon class="cls-3" points="272.81 312.34 609.81 316.74 609.91 314.25 272.91 309.85 272.81 312.34"/>
      <polygon class="cls-3" points="178.99 313.68 609.83 316.74 609.89 314.25 179.04 311.19 178.99 313.68"/>
      <polygon class="cls-3" points="121.24 322.63 121.37 325.12 609.93 316.74 609.8 314.25 121.24 322.63"/>
      <polygon class="cls-3" points="142.08 329.63 142.32 332.11 609.98 316.73 609.74 314.25 142.08 329.63"/>
      <polygon class="cls-3" points="93.18 360.48 93.85 362.94 610.19 316.72 609.53 314.26 93.18 360.48"/>
      <polygon class="cls-3" points="160.59 364.07 161.41 366.51 610.27 316.71 609.45 314.27 160.59 364.07"/>
      <polygon class="cls-3" points="203.28 396.34 204.72 398.69 610.58 316.66 609.14 314.32 203.28 396.34"/>
      <polygon class="cls-3" points="280.55 365.57 281.69 367.97 610.43 316.69 609.3 314.29 280.55 365.57"/>
      <polygon class="cls-3" points="260.43 413.29 262.35 415.52 610.82 316.61 608.9 314.37 260.43 413.29"/>
      <polygon class="cls-3" points="289.22 409.73 291.22 411.93 610.86 316.6 608.86 314.39 289.22 409.73"/>
      <polygon class="cls-3" points="406.83 419.86 409.75 421.7 611.32 316.41 608.4 314.57 406.83 419.86"/>
      <polygon class="cls-3" points="450.8 405.97 453.88 407.72 611.41 316.37 608.32 314.62 450.8 405.97"/>
      <polygon class="cls-3" points="483.43 400.85 486.77 402.44 611.53 316.29 608.19 314.7 483.43 400.85"/>
      <polygon class="cls-3" points="538.31 375.4 541.93 376.77 611.67 316.18 608.05 314.81 538.31 375.4"/>
      <polygon class="cls-3" points="341.42 405.03 343.63 407.17 610.97 316.56 608.76 314.42 341.42 405.03"/>
    </g>
    <rect class="cls-1" x="34.42" y="52.6" width="1129.76" height="399.87"/>
  </g>
</svg>