<?xml version="1.0" encoding="UTF-8"?>
<svg id="_레이어_1" data-name="레이어_1" xmlns="http://www.w3.org/2000/svg" viewBox="0 0 1200 1200">
  <defs>
    <style>
      .cls-1 {
        fill: none;
      }

      .cls-2 {
        fill: #815239;
      }

      .cls-3 {
        fill: #fff;
      }
    </style>
  </defs>
  <g>
    <path class="cls-2" d="M719.87,209.93c11.41-33.11,23.4-66.1,35.66-99.08,1.9-5.11-3.91-12.06-12.97-15.54-9.06-3.47-17.96-2.13-19.87,3-12.31,33.09-24.41,66.36-35.96,99.89-4.15,12.2-.06,24.64,9.15,27.78,9.17,3.13,19.91-4.06,23.99-16.07Z"/>
    <path class="cls-1" d="M175.93,46.27c19.44-55.88,38.96-106.86,57.04-153.54l1026.59,397.88c-16.68,43-31.42,81.92-43.57,116.88L175.93,46.27Z"/>
  </g>
  <g>
    <path class="cls-3" d="M618.77,708.26c2.44-35.82,5.3-71.62,8.63-107.37,3.33-35.75,7.14-71.39,12.06-106.84,4.93-35.44,10.89-70.7,18.68-105.56,7.63-34.91,17.05-69.47,27.3-103.82,6.12-14.79,12.32-29.52,18.76-44.15,3.18-9.66-21.02-18-24.25-8.2-7.16,32.28-13.56,64.7-18.83,97.2-8.23,30.82-15.53,61.89-21.37,93.23-5.89,31.33-10.61,62.85-14.57,94.45-7.76,63.22-13.09,126.7-17.51,190.21-.12,1.67,2.28,3.21,5.35,3.44,3.07.23,5.63-.93,5.75-2.59Z"/>
    <path class="cls-1" d="M55.75,670.08c1.84-23.27,3.85-46.52,6.03-69.76,2.19-23.34,4.48-46.22,7.06-69.96,5.17-47.58,11.62-99.34,20.96-154.95,4.65-27.75,10.13-56.6,16.54-86.22,6.5-29.6,13.57-59.06,21.14-86.84,15.08-56,31.73-107.85,48.45-156.08l1040.05,361.23c-10.41,30-18.92,57.1-25.36,81.07-3.36,12.16-5.83,23-8.27,33.83-2.34,10.85-4.65,22.68-6.83,35.76-4.39,26.06-8.38,56.48-12.14,91.22-1.9,17.42-3.73,35.74-5.41,53.62-1.68,17.99-3.24,35.98-4.67,53.99L55.75,670.08Z"/>
  </g>
  <g>
    <g>
      <path class="cls-3" d="M604.52,840.12c7.71-36.79,15.89-73.4,24.54-109.83l4.19.51c-8.64,36.39-16.82,72.97-24.53,109.72l-4.2-.41Z"/>
      <path class="cls-3" d="M604.53,840.06c10-30.76,20.33-61.32,30.99-91.68l4.15.63c-10.66,30.32-20.98,60.86-30.98,91.59l-4.16-.54Z"/>
      <path class="cls-3" d="M604.58,839.94c14.76-27.58,29.74-54.89,45.02-81.91l4.05.85c-15.27,27-30.25,54.28-45.01,81.84l-4.07-.77Z"/>
      <path class="cls-3" d="M604.79,839.68c24.96-22.36,50.09-44.32,75.39-65.88l3.63,1.33c-25.29,21.54-50.41,43.49-75.37,65.83l-3.65-1.29Z"/>
      <path class="cls-3" d="M604.91,839.59c35.84-25.26,71.89-49.85,108.15-73.79l3.38,1.51c-36.24,23.92-72.29,48.51-108.12,73.75l-3.4-1.48Z"/>
      <path class="cls-3" d="M605.06,839.49c38.68-21.47,77.51-42.33,116.49-62.56l3.09,1.68c-38.97,20.23-77.8,41.08-116.47,62.55l-3.11-1.67Z"/>
      <path class="cls-3" d="M605.45,839.33c68.34-22.17,136.85-43.14,205.49-62.91l2.31,1.95c-68.63,19.78-137.13,40.76-205.46,62.95l-2.33-2Z"/>
      <path class="cls-3" d="M605.57,839.29c68.52-18.8,137.16-36.56,205.89-53.26l2.07,2.01c-68.72,16.72-137.35,34.5-205.86,53.32l-2.09-2.07Z"/>
      <path class="cls-3" d="M605.53,839.3c119.9-34.97,240.25-66.55,360.84-94.74l2.13,1.95c-120.58,28.22-240.91,59.84-360.8,94.83l-2.18-2.05Z"/>
      <path class="cls-3" d="M605.96,839.21c144.7-20.7,289.49-38.61,434.38-53.72l1.29,2.04c-144.86,15.17-289.66,33.14-434.35,53.91l-1.32-2.23Z"/>
      <path class="cls-3" d="M606.13,839.19c159.84-14.75,319.74-26.98,479.62-36.7l.94,2.04c-159.88,9.79-319.77,22.1-479.6,36.93l-.96-2.27Z"/>
      <path class="cls-3" d="M606.31,839.18c147.18-6.78,294.36-12.12,441.52-16.02l.62,2.07c-147.17,3.97-294.32,9.39-441.51,16.25l-.62-2.29Z"/>
      <path class="cls-3" d="M606.39,839.18c152.93-3.54,305.84-5.9,458.72-7.06l.45,2.06c-152.87,1.25-305.78,3.68-458.71,7.3l-.45-2.3Z"/>
      <path class="cls-3" d="M606.41,841.46l.42-2.27c179.45,16.01,358.99,31.14,538.55,45.39l-.39,1.99c-179.58-14.16-359.1-29.19-538.58-45.11Z"/>
      <path class="cls-3" d="M606.29,841.45l.64-2.25c145.34,17.27,290.75,33.52,436.26,48.77l-.62,2.02c-145.51-15.17-290.93-31.35-436.28-48.54Z"/>
      <path class="cls-3" d="M606.26,841.45l.72-2.24c150.64,19.41,301.41,37.57,452.25,54.48l-.69,2c-150.85-16.83-301.62-34.92-452.28-54.24Z"/>
      <path class="cls-3" d="M606.07,841.42l1.08-2.18c82.19,14.71,164.45,28.81,246.77,42.3,82.3,13.57,164.73,26.05,247.24,36.62l-1.01,1.54c-41.28-5.04-82.51-10.85-123.74-16.79-41.19-6.24-82.41-12.53-123.55-19.32-82.33-13.45-164.59-27.51-246.8-42.18Z"/>
      <path class="cls-3" d="M606.13,841.43l.98-2.2c80.35,13.2,160.73,25.89,241.19,38.06,80.45,12.16,160.94,23.92,241.54,33.93l-.92,1.71-60.45-7.61-60.4-8.33c-40.27-5.59-80.5-11.55-120.73-17.63-80.47-12.13-160.85-24.78-241.22-37.94Z"/>
      <path class="cls-3" d="M605.88,841.38l1.47-2.1c85.96,20.19,172.01,39.88,258.24,57.77,86.23,17.73,172.74,32.89,259.52,42.28l-1.37,1.17c-173.68-18.14-345.91-59.48-517.86-99.11Z"/>
      <path class="cls-3" d="M605.81,841.36l1.62-2.07c42.31,10.98,84.65,21.69,127.04,32.15,42.38,10.47,84.8,20.67,127.29,30.12,84.97,18.84,170.3,34.51,255.93,43.08l-1.5,1.02c-171.4-16.5-341.11-61.39-510.38-104.3Z"/>
      <path class="cls-3" d="M605.76,841.35l1.71-2.04c42.01,11.59,84.05,22.9,126.16,33.93,42.1,11,84.22,21.85,126.45,31.58,84.43,19.61,169.29,35.57,254.43,43.42-.54.35-1.08.7-1.6.97-85.18-7.38-170.05-23.17-254.5-42.58-42.24-9.68-84.39-20.39-126.48-31.41-42.11-11.01-84.15-22.3-126.18-33.87Z"/>
      <path class="cls-3" d="M605.69,841.33l1.86-2c41.39,12.42,82.81,24.54,124.3,36.35,41.47,11.85,83.03,23.22,124.65,33.59,83.26,20.66,167.1,36.77,251.16,43.4l-1.74.9c-84.07-6.25-167.93-22.16-251.23-42.54-41.64-10.29-83.21-21.58-124.68-33.4-41.49-11.8-82.92-23.9-124.32-36.31Z"/>
      <path class="cls-3" d="M605.62,841.31l2-1.96c149.7,47.79,300.06,98.26,452.61,114.13l-1.88,1c-76.18-7.63-152.09-23.97-227.47-44.34-37.67-10.28-75.28-21.45-112.8-33.11-37.54-11.64-75.01-23.54-112.45-35.72Z"/>
      <path class="cls-3" d="M605.41,841.23l2.41-1.81c38.64,15.86,77.36,31.43,116.17,46.46,38.8,15.03,77.75,29.13,116.93,41.25,78.23,24.38,157.81,40.62,236.83,39.94l-2.26.52c-39.46.59-79.18-3.09-118.76-9.9-39.55-6.94-78.96-17.01-118.15-29.02-39.21-11.98-78.14-26.1-116.97-41.03-38.83-14.98-77.54-30.57-116.2-46.41Z"/>
      <path class="cls-3" d="M605.35,841.2l2.54-1.75c35.51,15.72,71.1,31.17,106.78,46.12,35.67,14.95,71.48,29.04,107.53,41.3,71.96,24.65,145.26,41.79,218.16,43.28l-2.39.64c-36.41-.54-73.03-5.01-109.49-12.37-36.43-7.49-72.7-17.87-108.76-30.03-36.07-12.14-71.87-26.25-107.57-41.11-35.69-14.91-71.28-30.38-106.81-46.08Z"/>
      <path class="cls-3" d="M605.16,841.11l2.92-1.56c62.35,34.12,124.84,68.87,188.52,95.54,63.56,26.64,128.81,45.08,193.4,45.3l-2.77.79c-64.59.09-129.85-18.28-193.47-44.71-63.74-26.51-126.23-61.23-188.6-95.37Z"/>
      <path class="cls-3" d="M604.98,841l3.27-1.34c48.91,33.81,97.93,68.16,148.18,95.9,50.17,27.67,101.91,48.85,153.71,55.12l-3.11,1.02c-51.77-6.26-103.6-27.24-153.8-54.87-50.3-27.66-99.32-61.99-148.24-95.82Z"/>
      <path class="cls-3" d="M604.92,840.95l3.4-1.25c36.45,27.86,73.05,55.93,110.28,80.79,37.23,24.78,75.32,46.27,114.16,60.33l-3.26,1.11c-38.88-13.98-77-35.46-114.25-60.22-37.27-24.81-73.85-52.9-110.32-80.76Z"/>
      <path class="cls-3" d="M604.75,840.8l3.74-.94c32.67,34.49,65.41,69.4,99.55,99.24,34.07,29.83,69.88,54.59,106.51,68.26l-3.56,1.15c-36.68-13.73-72.54-38.54-106.64-68.4-34.17-29.87-66.91-64.79-99.59-99.3Z"/>
      <path class="cls-3" d="M604.63,840.65l3.98-.64c30.79,46.8,61.66,94.26,96.11,131.93l-3.91.87c-34.49-37.85-65.39-85.32-96.18-132.16Z"/>
      <path class="cls-3" d="M604.56,840.53l4.11-.4c16.43,36.87,32.9,73.98,51.19,107.67,18.24,33.69,38.62,64.01,61.24,86.82l-3.94,1.17c-22.72-23.07-43.12-53.59-61.39-87.41-18.31-33.82-34.78-70.96-51.21-107.85Z"/>
      <path class="cls-3" d="M604.51,840.36l4.21-.06c9.19,54.37,18.31,108.93,33.72,157.89l-4.17.56c-15.45-49.32-24.56-103.99-33.76-158.39Z"/>
      <path class="cls-3" d="M604.5,840.26l4.23.14c.48,38.95.86,77.94,3.65,116.05,2.83,38.1,8,75.56,18.26,110.75l-4.11.98c-10.34-35.57-15.53-73.32-18.37-111.6-2.79-38.3-3.17-77.33-3.65-116.32Z"/>
      <path class="cls-3" d="M565.55,1006.13c8.29-58.23,23.9-111.97,38.98-166.04l4.18.49c-15.07,54.05-30.66,107.67-38.95,165.52l-4.21.03Z"/>
      <path class="cls-3" d="M514.61,1068.1c8.56-44.68,22.71-84.43,38.6-121.51,15.97-37.09,33.69-71.77,51.37-106.64l4.08.75c-17.67,34.84-35.39,69.49-51.34,106.45-15.86,36.96-29.99,76.5-38.55,120.89l-4.16.07Z"/>
      <path class="cls-3" d="M439.29,1092.09c19.05-55.65,45.99-101.14,74.78-141.27,28.92-40.16,59.83-75.41,90.63-111.03l3.84,1.1c-30.79,35.6-61.69,70.83-90.57,110.89-28.76,40.03-55.61,85.4-74.61,140.81l-4.06-.49Z"/>
      <path class="cls-3" d="M370.5,1098.96c30.16-61.86,68.9-109.62,109.21-150.26,40.5-40.64,82.88-74.59,125.13-109.06l3.55,1.37c-42.24,34.45-84.61,68.4-125.06,109-40.24,40.61-78.97,88.28-108.92,150.09l-3.9-1.15Z"/>
      <path class="cls-3" d="M250.87,1135.27c23.32-39.86,49.94-74.17,78.17-104,28.25-29.85,58.11-55.28,88.62-77.81,61.13-45.04,124.38-79.08,187.42-113.98l3.09,1.68c-63.02,34.88-126.27,68.96-187.33,114.07-30.46,22.6-60.26,48.09-88.44,77.99-28.15,29.88-54.68,64.24-77.87,104.15l-3.65-2.09Z"/>
      <path class="cls-3" d="M336.61,989.08c43.13-33.04,87.74-59.86,132.76-83.6,45.03-23.74,90.39-44.86,135.82-66.05l2.85,1.79c-45.43,21.18-90.77,42.32-135.79,66.11-45.01,23.78-89.56,50.72-132.62,83.85l-3.03-2.1Z"/>
      <path class="cls-3" d="M191.17,1094.84c61.15-69.86,130.38-118.69,200.51-157.5,70.36-38.78,142.03-67.97,213.59-97.94l2.69,1.87c-71.54,29.97-143.22,59.19-213.52,98.12-70.08,38.96-139.2,88.04-200.08,158.2l-3.19-2.74Z"/>
      <path class="cls-3" d="M159.74,1060.94c69.11-60.11,143.56-102.13,218.55-135.97,37.57-16.84,75.4-31.63,113.28-45.53,37.88-13.86,75.84-27.12,113.85-40.1l2.4,1.97c-75.95,26.28-151.92,52.09-227.05,85.89-74.98,33.88-149.27,76.39-218.21,136.77l-2.82-3.03Z"/>
      <path class="cls-3" d="M151.18,1040.11c71.89-53.6,147.65-91.72,223.95-122.29,38.17-15.35,76.53-28.91,114.95-41.62,38.42-12.72,76.89-24.95,115.41-36.88l2.26,2.02c-38.51,11.95-76.98,24.16-115.39,36.93-38.41,12.79-76.78,26.33-114.92,41.81-38.13,15.48-76.12,32.63-113.53,52.83-37.4,20.23-74.29,43.34-110.1,70.34l-2.63-3.13Z"/>
      <path class="cls-3" d="M135.89,1039.77c74.46-54.04,152.8-92.17,231.65-122.62,39.45-15.28,79.08-28.75,118.77-41.34,39.69-12.6,79.42-24.71,119.21-36.5l2.2,2.04c-39.77,11.81-79.51,23.9-119.19,36.55-39.68,12.66-79.32,26.12-118.73,41.54-78.8,30.66-157.07,69.09-231.36,123.51l-2.55-3.17Z"/>
      <path class="cls-3" d="M135.36,1005.52c9.48-5.53,19.04-10.72,28.65-15.7,9.6-5,19.18-10.01,28.84-14.69,19.34-9.25,38.68-18.24,58.21-26.29,38.95-16.47,78.23-30.53,117.59-43.31,39.35-12.85,78.86-24.05,118.35-34.93,39.51-10.77,79.05-21.21,118.63-31.32l1.99,2.1c-79.14,20.51-158.19,40.92-236.94,66.46-39.32,12.97-78.62,27.01-117.52,43.67-9.76,4.06-19.46,8.35-29.14,12.83-9.68,4.47-19.38,8.94-29.01,13.7-19.22,9.68-38.46,19.57-57.4,30.68l-2.26-3.2Z"/>
      <path class="cls-3" d="M124.21,978.29c78.98-35.29,159.26-61.12,239.69-82.64,40.25-10.66,80.52-20.36,120.84-29.57,40.3-9.24,80.65-18.18,121-26.83l1.76,2.15c-40.35,8.66-80.69,17.62-120.99,26.87-40.31,9.25-80.59,18.96-120.81,29.77-80.39,21.74-160.69,47.62-239.52,83.49l-1.97-3.25Z"/>
      <path class="cls-3" d="M112.7,957.64c81.4-29.53,163.62-51.33,245.91-69.68,41.15-9.24,82.34-17.43,123.55-25.48,41.19-8.02,82.43-15.77,123.67-23.24l1.56,2.19c-41.23,7.49-82.46,15.26-123.65,23.29-41.21,8.03-82.39,16.36-123.53,25.64-82.27,18.54-164.5,40.45-245.8,70.49l-1.71-3.21Z"/>
      <path class="cls-3" d="M64.72,937.05c89.77-24.51,180.02-42.51,270.28-57.64,45.14-7.47,90.29-14.42,135.46-21.03,45.16-6.65,90.34-13.04,135.53-19.17l1.27,2.24c-90.36,12.43-180.69,25.33-270.96,40.44-90.25,15.29-180.48,33.53-270.21,58.38l-1.36-3.21Z"/>
      <path class="cls-3" d="M230.51,905.16c62.46-13.94,125.02-25.47,187.59-36.09,62.59-10.5,125.19-20.45,187.83-29.86l1.36,2.22c-62.63,9.45-125.23,19.38-187.81,29.97-62.58,10.58-125.11,22.42-187.56,36.45l-1.41-2.7Z"/>
      <path class="cls-3" d="M42.91,909.73c93.73-17.14,187.61-30.15,281.49-40.97,93.88-10.87,187.78-20.6,281.72-29.57l.98,2.27c-93.92,9.05-187.83,18.74-281.7,29.76-46.95,5.44-93.86,11.68-140.8,18.33-46.9,7.03-93.82,14.41-140.66,23.31l-1.04-3.13Z"/>
      <path class="cls-3" d="M363.15,855.89c81.01-6.08,162.06-11.65,243.09-16.71l.74,2.29c-81.02,5.1-162.07,10.71-243.08,16.83l-.76-2.41Z"/>
      <path class="cls-3" d="M97.83,871.62c42.37-3.46,84.75-6.62,127.11-9.68l127.11-8.35c84.74-5.3,169.49-10.11,254.23-14.41l.66,2.29c-84.73,4.34-169.5,9.19-254.22,14.53-84.74,5.33-169.48,11.17-254.22,18.41l-.68-2.8Z"/>
      <path class="cls-3" d="M82.08,866.31c87.38-5.94,174.76-10.75,262.12-15.2,87.38-4.45,174.75-8.42,262.12-11.92l.58,2.3c-87.36,3.54-174.75,7.56-262.11,12.06l-131.06,7.1c-43.68,2.61-87.37,5.39-131.06,8.34l-.59-2.66Z"/>
      <path class="cls-3" d="M66.71,860.06c179.9-9.07,359.78-15.66,539.66-20.88l.49,2.3c-89.93,2.61-179.87,5.66-269.82,9.15-89.93,3.55-179.89,7.25-269.83,12.11l-.5-2.68Z"/>
      <path class="cls-3" d="M97.31,830.14c169.78,2.43,339.5,5.44,509.25,9.03l.11,2.3c-169.73-3.5-339.47-6.42-509.25-8.76l-.1-2.57Z"/>
      <polygon class="cls-3" points="278.38 827.42 606.62 839.18 606.61 841.48 278.37 829.89 278.38 827.42"/>
      <polygon class="cls-3" points="187.12 821.67 606.65 839.18 606.59 841.48 187.05 824.19 187.12 821.67"/>
      <polygon class="cls-3" points="131.37 809.8 131.62 807.26 606.74 839.18 606.5 841.47 131.37 809.8"/>
      <path class="cls-3" d="M152.01,803.7l.37-2.52c151.44,13.15,302.92,25.82,454.42,38.01l-.35,2.28c-151.5-12.1-302.98-24.69-454.43-37.77Z"/>
      <path class="cls-3" d="M106.18,769.53l.79-2.49c166.51,25.69,333.19,49.75,500.03,72.17l-.76,2.23c-166.83-22.34-333.56-46.31-500.06-71.92Z"/>
      <path class="cls-3" d="M171.97,769.72l.94-2.43c144.56,25.51,289.27,49.49,434.16,71.93l-.91,2.21c-144.89-22.37-289.63-46.28-434.19-71.71Z"/>
      <path class="cls-3" d="M215.54,739.75l1.56-2.27c129.72,36.22,259.84,70.15,390.28,101.79l-1.51,2.09c-130.46-31.59-260.59-65.46-390.33-101.62Z"/>
      <path class="cls-3" d="M288.76,775.14l1.24-2.31c105.6,23.3,211.32,45.44,317.22,66.42l-1.22,2.16c-105.89-20.93-211.65-43.02-317.25-66.27Z"/>
      <path class="cls-3" d="M272.25,726.61l2.02-2.08c110.61,40.63,221.76,78.91,333.33,114.82l-1.97,1.96c-111.58-35.87-222.75-74.11-333.38-114.7Z"/>
      <path class="cls-3" d="M300,732.08l2.1-2.04c101.39,38.53,203.28,74.97,305.55,109.32l-2.05,1.94c-102.27-34.31-204.19-70.73-305.6-109.22Z"/>
      <path class="cls-3" d="M415.01,730.23l2.97-1.57c62.91,38.41,126.28,75.37,190.1,110.89l-2.93,1.55c-63.83-35.51-127.22-72.47-190.14-110.87Z"/>
      <path class="cls-3" d="M456.84,746.5l3.12-1.46c49.05,32.5,98.49,64.02,148.21,94.55l-3.08,1.47c-49.73-30.54-99.17-62.06-148.24-94.56Z"/>
      <path class="cls-3" d="M488.24,753.51l3.35-1.29c38.61,29.88,77.52,59.03,116.7,87.45l-3.32,1.3c-39.19-28.42-78.1-57.58-116.72-87.47Z"/>
      <path class="cls-3" d="M540.07,780.89l3.6-1.06c21.44,20.27,43.01,40.25,64.74,59.95l-3.59,1.09c-21.73-19.71-43.3-39.7-64.75-59.98Z"/>
      <path class="cls-3" d="M350.43,740.16l2.29-1.94c84.61,35.38,169.66,69.11,255.02,101.17l-2.25,1.87c-85.38-32.04-170.43-65.74-255.07-101.1Z"/>
    </g>
    <path class="cls-1" d="M72.38,1212.4c-17.25-70.88-24.58-135.59-27.75-191.23-3.11-55.86-2.12-102.55-.91-141.51.66-19.62,1.39-36.24,2.2-53.69l2.72-52c2-34.65,4.37-69.28,7.11-103.89l1097.56,86.91c-2.13,26.78-3.96,53.59-5.51,80.41l-2.1,40.24c-.63,13.31-1.23,27.45-1.6,38.6-.78,22.56-.62,37.52-.22,43.15.32,5.81.68,2.44-2.04-8.56L72.38,1212.4Z"/>
  </g>
</svg>