<?xml version="1.0" encoding="UTF-8"?>
<svg id="_레이어_1" data-name="레이어_1" xmlns="http://www.w3.org/2000/svg" viewBox="0 0 1200 1200">
  <defs>
    <style>
      .cls-1 {
        fill: none;
      }

      .cls-2 {
        fill: #815239;
      }

      .cls-3 {
        fill: #fff;
      }
    </style>
  </defs>
  <g>
    <path class="cls-2" d="M1045.02,990.34l53.22,47.16,52.92,47.5c5.46,4.91,13.33,5.08,17.57.37,4.24-4.71,3.24-12.51-2.24-17.43l-53.02-47.59-53.32-47.25c-12.9-11.42-26.85-16.69-31-11.93-4.18,4.79,2.99,17.77,15.86,29.17Z"/>
    <path class="cls-1" d="M1266.71,691.89c25.03,22.01,49.68,44.45,74.54,66.66l74.02,67.24-485.51,529.85-69.8-63.4c-23.45-20.94-46.68-42.11-70.29-62.86l477.05-537.48Z"/>
  </g>
  <g>
    <path class="cls-3" d="M517.07,542.71c152.35,119.87,302.12,243.1,448.71,370.05,15.72,14.77,31.2,29.82,46.79,44.72,10.38,9.07,21.38-3.51,10.98-12.6-34.48-27.46-69.32-54.47-104.04-81.58-65.25-55.71-131.01-110.79-197.28-165.26-66.38-54.34-133.29-108.01-200.68-161.06-1.77-1.38-4.21-1.23-5.45.35-1.24,1.58-.8,3.98.97,5.37Z"/>
    <path class="cls-1" d="M739.42,248.97c179.74,142.81,355.59,290.52,527.29,442.92l-477.05,537.48c-161.91-143.72-327.76-283.02-497.27-417.7L739.42,248.97Z"/>
  </g>
  <g>
    <g>
      <path class="cls-3" d="M378.59,429.52c37.25,33.69,74.38,67.45,111.18,101.56l-1.92,1.99c-36.79-34.11-73.91-67.86-111.15-101.54l1.89-2.02Z"/>
      <path class="cls-3" d="M378.66,429.58c15.03,14.99,29.86,30.21,44.78,45.28,14.91,15.09,29.78,30.21,44.53,45.46l-2.04,1.87c-14.75-15.25-29.62-30.36-44.53-45.45-14.92-15.07-29.74-30.3-44.77-45.27l2.03-1.89Z"/>
      <path class="cls-3" d="M378.77,429.7c12.49,15.03,24.77,30.29,37.15,45.41,12.33,15.17,24.73,30.22,36.92,45.5l-2.26,1.63c-12.19-15.27-24.59-30.31-36.92-45.49-12.37-15.11-24.65-30.38-37.14-45.4l2.24-1.65Z"/>
      <path class="cls-3" d="M378.97,430.02c15.69,31.71,31.1,63.58,46.51,95.25l-2.66.99c-15.41-31.66-30.81-63.54-46.51-95.24l2.66-1.01Z"/>
      <path class="cls-3" d="M379.04,430.17c7.58,19.98,14.95,40.17,22.38,60.19,7.38,20.09,14.82,40.02,22.04,60.14l-2.78.69c-7.23-20.1-14.66-40.05-22.04-60.13-7.42-20.02-14.78-40.21-22.38-60.18l2.79-.72Z"/>
      <path class="cls-3" d="M379.09,430.32c9.99,38.65,19.66,77.42,29.27,115.94l-2.88.39c-9.62-38.52-19.27-77.3-29.28-115.92l2.89-.41Z"/>
      <path class="cls-3" d="M379.13,430.67c.49,55.77.58,111.46.37,166.93l-2.95-.31c.18-55.44.13-111.18-.4-166.91l2.98.29Z"/>
      <path class="cls-3" d="M379.13,430.77c-3.2,53.15-6.83,106.33-10.62,159.18l-2.95-.48c3.78-52.85,7.42-106.05,10.59-159.18l2.98.48Z"/>
      <path class="cls-3" d="M379.13,430.73c-1.68,47.32-3.73,94.7-5.9,141.8-2.19,47.12-4.78,94.35-7.47,141.27l-2.93-.42c5.48-94,9.91-188.33,13.32-283.05l2.98.41Z"/>
      <path class="cls-3" d="M379.09,431.04c-13.67,48.5-27.69,97.09-41.78,145.43-14.13,48.39-28.35,96.54-42.92,144.78l-2.81-1.03c14.56-48.25,28.75-96.38,42.88-144.79,14.08-48.34,28.1-96.95,41.74-145.43l2.88,1.04Z"/>
      <path class="cls-3" d="M379.05,431.16c-39.12,100.81-79.02,201.36-119.45,301.3l-2.74-1.24c40.4-99.95,80.3-200.54,119.38-301.33l2.81,1.27Z"/>
      <path class="cls-3" d="M379,431.26c-43.37,87.36-87.27,174.66-131.42,261.57l-2.65-1.45c44.13-86.92,88.02-174.25,131.36-261.6l2.71,1.48Z"/>
      <path class="cls-3" d="M378.97,431.31c-48.87,87.96-98.19,175.91-147.72,263.52l-2.59-1.55c49.52-87.64,98.79-175.57,147.65-263.55l2.66,1.58Z"/>
      <path class="cls-3" d="M376.48,429.51l2.33,2.04c-79.33,87.24-158.45,174.65-237.36,262.22l-2.26-1.98c78.88-87.59,157.97-175.02,237.29-262.28Z"/>
      <path class="cls-3" d="M376.53,429.45l2.23,2.15c-68.93,67.23-137.62,134.65-206.06,202.27l-2.17-2.1c68.42-67.63,137.08-135.07,206-202.31Z"/>
      <path class="cls-3" d="M376.55,429.44l2.19,2.18c-73.09,68.49-145.88,137.21-218.36,206.17l-2.13-2.14c72.46-68.97,145.23-137.71,218.3-206.22Z"/>
      <path class="cls-3" d="M376.64,429.36l2,2.34c-88.75,68.21-176.81,136.75-264.43,205.99l-1.96-2.28c87.63-69.28,175.65-137.82,264.39-206.05Z"/>
      <path class="cls-3" d="M376.61,429.38l2.06,2.29c-84.18,68.52-167.85,137.42-251.02,206.72l-2.01-2.23c83.17-69.35,166.8-138.24,250.97-206.78Z"/>
      <path class="cls-3" d="M376.75,429.28l1.78,2.49c-51.75,31.74-103.26,63.65-154.53,95.75-51.29,32.12-102.46,64.59-153.33,97.15l-1.74-2.43c50.86-32.57,102.01-65.02,153.32-97.19,51.26-32.11,102.76-64.03,154.5-95.77Z"/>
      <path class="cls-3" d="M376.8,429.25l1.69,2.54c-53.09,29.68-105.93,59.55-158.5,89.62-52.66,30.19-105.08,60.6-157.23,91.2l-1.65-2.49c52.14-30.6,104.55-61.01,157.21-91.22,52.57-30.09,105.39-59.97,158.48-89.65Z"/>
      <path class="cls-3" d="M376.83,429.24l1.63,2.58c-54.22,28.38-108.14,56.94-161.83,85.77-53.77,28.94-107.26,58.08-160.47,87.43l-1.59-2.52c53.2-29.36,106.69-58.51,160.45-87.45,53.7-28.87,107.6-57.41,161.81-85.8Z"/>
      <path class="cls-3" d="M376.88,429.21l1.54,2.62c-55.61,26.38-110.84,52.88-165.93,79.8-55.13,26.98-109.89,54.1-164.48,81.61l-1.51-2.56c54.61-27.55,109.34-54.65,164.47-81.64,55.1-26.96,110.31-53.44,165.92-79.84Z"/>
      <path class="cls-3" d="M376.92,429.19l1.44,2.67c-52.39,22.33-104.43,44.77-156.35,67.6-51.97,22.89-103.6,45.9-155.08,69.27l-1.43-2.6c51.5-23.41,103.1-46.4,155.07-69.3,51.94-22.87,103.96-45.28,156.34-67.63Z"/>
      <path class="cls-3" d="M377.08,429.14l1.14,2.77c-61.25,17.8-122.04,35.79-182.75,54.45-60.58,18.49-121.02,37.57-181.07,56.93l-1.13-2.72c60.04-19.35,120.49-38.47,181.07-56.96,60.7-18.66,121.52-36.68,182.75-54.47Z"/>
      <path class="cls-3" d="M377.13,429.12l1.03,2.8c-58.78,14.55-117.13,29.25-175.43,44.61-58.17,15.18-116.23,30.95-173.92,46.96l-1.02-2.76c57.68-16,115.76-31.8,173.92-46.98,58.29-15.36,116.66-30.1,175.43-44.63Z"/>
      <path class="cls-3" d="M377.3,429.09l.69,2.87c-117.86,14.41-234.99,30.72-351.09,48.54l-.71-2.82c116.11-17.83,233.27-34.17,351.12-48.58Z"/>
      <path class="cls-3" d="M377.48,429.08l.33,2.89c-107.77.02-215.11,1.74-321.71,4.78l-.37-2.86c106.61-3.05,213.97-4.8,321.74-4.81Z"/>
      <path class="cls-3" d="M377.55,429.08l.18,2.88c-43.1-1.96-85.91-3.96-128.87-5.41l-64.21-2.21-64.17-1.73-.21-2.87,64.17,1.73,64.22,2.2c42.96,1.45,85.78,3.43,128.88,5.4Z"/>
      <path class="cls-3" d="M377.78,429.11l-.26,2.83c-97.83-19.06-195.62-36.57-293.06-52.92l.22-2.83c97.45,16.35,195.26,33.84,293.1,52.92Z"/>
      <path class="cls-3" d="M377.98,429.16l-.67,2.73c-61.72-20.37-123.37-40.28-185.12-59.54l.64-2.73c61.76,19.26,123.43,39.18,185.15,59.55Z"/>
      <path class="cls-3" d="M378.14,429.22l-.98,2.61c-91.57-40.85-183.55-80.24-275.65-118.5l.92-2.63c92.13,38.26,184.12,77.67,275.71,118.52Z"/>
      <path class="cls-3" d="M378.34,429.33l-1.39,2.39c-31.19-19.1-62.27-38.3-93.61-57.09l-46.92-28.26-47.08-27.97,1.35-2.42,47.09,27.98,46.93,28.27c31.35,18.79,62.43,38,93.63,57.1Z"/>
      <path class="cls-3" d="M378.45,429.4l-1.61,2.25c-84.89-61.79-170.56-122.45-256.99-181.94l1.55-2.29c86.45,59.5,172.14,120.17,257.05,181.98Z"/>
      <path class="cls-3" d="M217.11,276.2l40.69,38.07,40.45,38.3c26.99,25.46,53.66,51.29,80.39,76.99l-1.98,1.94c-26.72-25.69-53.38-51.51-80.37-76.97l-40.44-38.29-40.68-38.06,1.94-1.97Z"/>
      <path class="cls-3" d="M185.78,205.81c65.37,74.05,129.79,148.56,192.97,223.88l-2.22,1.68c-63.17-75.3-127.58-149.8-192.94-223.83l2.19-1.72Z"/>
      <path class="cls-3" d="M207.52,158.26c58.6,90.13,115.78,180.61,171.38,271.63l-2.52,1.27c-55.59-91-112.77-181.48-171.36-271.58l2.49-1.32Z"/>
      <path class="cls-3" d="M238.53,125.29c48.53,101.44,95.44,202.94,140.48,304.79l-2.72.89c-45.04-101.83-91.93-203.34-140.47-304.74l2.71-.94Z"/>
      <path class="cls-3" d="M277.92,53.49c36.09,125.78,69.84,251.36,101.17,376.85l-2.89.39c-31.34-125.46-65.09-251.05-101.19-376.81l2.91-.43Z"/>
      <path class="cls-3" d="M333.18,177.45c16.35,84.44,31.59,168.87,45.94,252.99l-2.94.16c-14.35-84.13-29.6-168.55-45.96-252.97l2.96-.19Z"/>
      <path class="cls-3" d="M328.21,48.25c19.12,127.89,36.17,255.22,50.92,382.27h-2.96c-14.74-127.05-31.83-254.34-50.96-382.22l3-.04Z"/>
      <path class="cls-3" d="M361.66,50.9c7.76,127.18,13.64,253.69,17.47,379.74l-2.98-.23c-3.82-126.07-9.75-252.53-17.51-379.73l3.02.22Z"/>
      <path class="cls-3" d="M377.78,57.5l1.39,93.59c.38,31.13.52,62.37.66,93.44.3,62.11-.07,124.33-.7,186.17l-2.98-.34c.64-61.85.98-124.06.68-186.17-.17-62.28-.95-124.51-2.07-187.03l3.03.34Z"/>
      <path class="cls-3" d="M384.7,50.26l-.31,95.42c-.2,31.74-.62,63.59-1.07,95.27-.85,63.31-2.38,126.75-4.19,189.77l-2.98-.4c1.81-63.04,3.31-126.45,4.16-189.77.98-63.49,1.35-126.94,1.36-190.68l3.03.39Z"/>
      <path class="cls-3" d="M406.41,67.75c-7.43,121.51-16.63,242.67-27.28,363.05l-2.97-.56c10.64-120.39,19.82-241.55,27.23-363.05l3.03.55Z"/>
      <path class="cls-3" d="M429.33,76.59c-7.62,59.28-15.74,118.61-24.05,177.57-8.34,59.01-17.16,118.05-26.17,176.73l-2.95-.73c18.11-117.52,34.84-235.64,50.15-354.3l3.02.73Z"/>
      <path class="cls-3" d="M448.68,81.98c-11.01,58.5-22.28,116.8-33.83,174.9-11.62,58.2-23.56,116.26-35.74,174.09l-2.92-.87c12.16-57.82,24.12-115.92,35.7-174.09,11.54-58.1,22.8-116.41,33.8-174.92l2.99.89Z"/>
      <path class="cls-3" d="M482.75,68.52c-16.72,60.76-33.66,121.27-50.93,181.68-17.32,60.48-34.9,120.77-52.74,180.85l-2.87-1.07c17.83-60.09,35.4-120.39,52.71-180.88,17.24-60.39,34.18-120.93,50.89-181.69l2.94,1.1Z"/>
      <path class="cls-3" d="M445.59,175.73c-21.46,85.28-43.8,170.6-66.5,255.3l-2.89-1.01c22.7-84.72,45-170.02,66.45-255.31l2.94,1.02Z"/>
      <path class="cls-3" d="M512.29,72.75c-43.37,119.91-87.92,239.56-133.24,358.4l-2.81-1.25c45.31-118.88,89.81-238.51,133.16-358.44l2.89,1.29Z"/>
      <path class="cls-3" d="M445.99,283.45c-22.2,49.36-44.52,98.61-66.97,147.78l-2.75-1.4c22.44-49.17,44.75-98.44,66.94-147.8l2.78,1.43Z"/>
      <path class="cls-3" d="M524.86,126.37c-48.12,102.01-96.74,203.64-145.85,304.89l-2.72-1.46c49.09-101.27,97.69-202.91,145.79-304.94l2.79,1.5Z"/>
      <path class="cls-3" d="M535.6,121.49c-51.73,103.62-103.94,206.88-156.61,309.79l-2.7-1.5c52.65-102.92,104.83-206.2,156.54-309.84l2.77,1.55Z"/>
      <path class="cls-3" d="M547.1,117.48c-55.61,104.94-111.65,209.55-168.12,313.82l-2.67-1.55c56.45-104.29,112.47-208.92,168.05-313.87l2.74,1.6Z"/>
      <polygon class="cls-3" points="565.87 156 378.92 431.41 376.37 429.64 563.26 154.18 565.87 156"/>
      <polygon class="cls-3" points="505.2 258.15 378.89 431.44 376.4 429.61 502.66 256.29 505.2 258.15"/>
      <polygon class="cls-3" points="542.92 211.87 378.88 431.45 376.4 429.6 540.39 209.97 542.92 211.87"/>
      <polygon class="cls-3" points="574.36 189.7 576.83 191.7 378.85 431.5 376.44 429.55 574.36 189.7"/>
      <polygon class="cls-3" points="573.33 205.65 575.73 207.72 378.82 431.53 376.47 429.52 573.33 205.65"/>
      <path class="cls-3" d="M623.41,205.22l2.22,2.26c-82.71,74.41-164.92,149.01-246.9,224.14l-2.17-2.2c81.98-75.18,164.16-149.78,246.85-224.21Z"/>
      <path class="cls-3" d="M600.72,241.9l2.14,2.32c-75.1,62.19-149.74,124.56-224.16,187.43l-2.09-2.27c74.43-62.92,149.03-125.28,224.12-187.49Z"/>
      <path class="cls-3" d="M616.39,288.54l1.78,2.57c-80.41,46.41-160.24,93.24-239.64,140.67l-1.76-2.5c79.41-47.48,159.19-94.27,239.62-140.74Z"/>
      <path class="cls-3" d="M555.4,303.32l1.96,2.44c-59.87,41.77-119.37,83.64-178.75,125.96l-1.93-2.39c59.39-42.36,118.86-84.22,178.72-126Z"/>
      <path class="cls-3" d="M610.83,330.47l1.46,2.71c-39.17,16.07-78.31,32.42-117.32,48.89-39.02,16.49-77.8,32.97-116.61,49.78l-1.46-2.66c38.82-16.85,77.58-33.31,116.6-49.81,38.99-16.46,78.16-32.84,117.32-48.92Z"/>
      <path class="cls-3" d="M595.98,342.08l1.41,2.73c-36.65,14.16-73.33,28.62-109.84,43.13-36.54,14.55-72.85,29.07-109.21,43.92l-1.4-2.68c36.38-14.88,72.67-29.39,109.21-43.95,36.5-14.5,73.19-29,109.84-43.16Z"/>
      <path class="cls-3" d="M559.8,408.83l.67,2.9-45.71,4.75-45.71,5.03c-30.45,3.42-60.72,6.79-91.07,10.45l-.68-2.87c30.37-3.69,60.62-7.04,91.08-10.47l45.71-5.04,45.71-4.76Z"/>
      <path class="cls-3" d="M528.85,420.03l.51,2.9c-25.25,1.26-50.62,2.81-75.85,4.3-25.27,1.54-50.38,3-75.61,4.74l-.53-2.88c25.24-1.76,50.34-3.2,75.62-4.75,25.22-1.47,50.61-3.05,75.86-4.31Z"/>
      <path class="cls-3" d="M511.02,432.39l.25,2.91c-44.61-1.34-89.09-2.47-133.49-3.33l-.27-2.89c44.42.84,88.87,2,133.51,3.31Z"/>
      <path class="cls-3" d="M464.45,440.32l-.07,2.87c-29-3.79-57.83-7.65-86.77-11.23l.05-2.87c28.95,3.56,57.78,7.43,86.78,11.22Z"/>
      <path class="cls-3" d="M570.84,364.53l1.25,2.78c-32.39,10.45-64.87,21.23-97.16,31.97-32.33,10.8-64.46,21.55-96.66,32.61l-1.26-2.74c32.22-11.08,64.34-21.83,96.66-32.63,32.28-10.74,64.77-21.53,97.16-32Z"/>
    </g>
    <path class="cls-1" d="M332.09-61.41c68.86,50.44,137.32,101.43,205.24,153.13,67.82,51.83,135.28,104.13,202.09,157.26l-447.03,562.69c-63-50.1-126.63-99.42-190.58-148.3-64.05-48.76-128.62-96.83-193.55-144.4L332.09-61.41Z"/>
  </g>
</svg>