<?xml version="1.0" encoding="UTF-8"?>
<svg id="_레이어_1" data-name="레이어_1" xmlns="http://www.w3.org/2000/svg" viewBox="0 0 1200 1200">
  <defs>
    <style>
      .cls-1 {
        fill: none;
      }

      .cls-2 {
        fill: #815239;
      }

      .cls-3 {
        fill: #fff;
      }
    </style>
  </defs>
  <g>
    <polygon class="cls-1" points="1329.47 -788.06 1446.38 -702 820.49 145.37 707.66 62.31 1329.47 -788.06"/>
    <path class="cls-1" d="M906.55-1078.11c26.82,18,59.24,38.62,96.57,62.83,18.78,12.22,38.32,25.03,57.06,37.6l28.2,18.96,27.89,19c73.98,50.72,144.79,101.65,213.19,151.67L707.66,62.31c-63.76-46.63-125.93-91.27-187.01-133.13l-22.85-15.57-22.75-15.3c-15.26-10.23-29.96-19.86-45.48-29.97-31.33-20.36-68.05-43.62-109.24-71.18l586.23-875.27Z"/>
  </g>
  <polygon class="cls-1" points="54.91 -469.33 67.2 -435.11 79.72 -400.55 105.46 -330.13 -930.18 49.66 -956.85 -23.32 -970.33 -60.52 -983.84 -98.13 54.91 -469.33"/>
  <g>
    <g>
      <path class="cls-2" d="M958.98,994.87c27.19,29.96,54.95,59.41,83.22,88.37,4.38,4.48,3.2,12.81-2.65,18.61-5.84,5.79-14.17,6.82-18.6,2.29-28.51-29.21-56.51-58.92-83.94-89.14-9.96-10.97-13.02-24.36-6.89-29.89,6.1-5.49,19-1.11,28.86,9.75Z"/>
      <path class="cls-1" d="M584.78,1298.63c42.38,46.52,85.93,91.99,130.49,136.44l658.82-661.28c-33.94-33.88-67.14-68.52-99.44-103.99l-689.87,628.83Z"/>
    </g>
    <g>
      <path class="cls-3" d="M611.12,522.66c32.25,75.61,75.05,146.16,124.07,212.69,24.4,33.34,49.85,66.09,75.67,98.47,25.88,32.35,52.28,64.3,79.33,95.69,13.01,13.11,26.09,26.12,39.29,39.01,7.83,8.78-8.27,23.34-16.17,14.48-23.03-30.12-45.54-60.57-67.5-91.35-23.49-28.26-46.52-56.88-69.09-85.86-22.57-28.97-44.78-58.25-65.94-88.26-42.59-59.83-79.29-123.79-108.31-191.1-.78-1.76.52-4.02,2.91-5.05,2.39-1.03,4.96-.46,5.73,1.28Z"/>
      <path class="cls-1" d="M169.24,706.4c27.81,64.1,60.26,126.44,97.32,186.44,36.82,59.53,74.29,110.92,108.87,156.04,8.7,11.33,17.1,22.14,25.49,32.76,8.39,10.64,16.79,21.26,25.3,31.81,16.95,21.13,34.16,42.06,51.57,62.82,34.8,41.53,70.47,82.33,106.98,122.36l689.87-628.83c-27.83-30.51-55.02-61.61-81.55-93.27-13.27-15.82-26.38-31.77-39.3-47.88-6.49-8.03-12.89-16.13-19.28-24.23-6.41-8.11-12.66-16.15-18.49-23.75-23.53-30.62-41.99-56.77-55.37-78.49-13.12-21.24-24.9-43.8-35.09-67.3L169.24,706.4Z"/>
    </g>
    <g>
      <g>
        <path class="cls-3" d="M555.9,381.35c16.04,39.78,34.48,78.25,55.11,115.12l3.22-1.57c-20.57-36.73-38.95-75.06-54.94-114.7l-3.39,1.16Z"/>
        <path class="cls-3" d="M555.93,381.42c16.52,32.63,34.27,64.13,53.7,94.18l3.18-1.64c-19.39-29.93-37.07-61.33-53.54-93.84l-3.33,1.3Z"/>
        <path class="cls-3" d="M556,381.54c19.73,28.25,39.9,55.28,61.88,80.49l3.03-1.82c-21.92-25.12-42.07-52.05-61.72-80.21l-3.19,1.54Z"/>
        <path class="cls-3" d="M556.24,381.8c13.31,10.39,26.94,20.27,40.28,29.8,13.88,9.36,27.25,18.48,41.17,26.96l2.54-2.18c-13.82-8.49-27.25-17.55-41.09-26.9-13.25-9.53-26.98-19.35-40.18-29.74l-2.72,2.05Z"/>
        <path class="cls-3" d="M556.36,381.88c36.63,22.12,73.31,41.47,110.88,57.6l2.28-2.31c-18.88-8.01-37.08-16.98-55.73-26.5-9.42-4.73-18.27-9.82-27.51-14.97-9.08-5.19-18.57-10.44-27.44-16.04l-2.47,2.23Z"/>
        <path class="cls-3" d="M556.51,381.96c18.91,8.74,38.06,16.75,56.85,24.21,19.33,7.28,38.09,14.09,57.27,20.07l2-2.38c-19.05-6.02-37.94-12.78-57.18-20.08-18.7-7.47-37.98-15.44-56.76-24.21l-2.18,2.38Z"/>
        <path class="cls-3" d="M556.87,382.08c15.55,3.35,31.47,6.28,47.05,8.98,15.71,2.66,31.02,5.12,46.79,7.11,31.47,4,62.08,6.99,93.28,8.44l1.31-2.38c-7.75-.39-15.53-.85-23.33-1.38-7.7-.57-15.4-1.23-23.15-1.95-15.48-1.45-31.08-3.18-46.77-5.21-15.63-2.05-31.05-4.49-46.73-7.18-15.57-2.72-31.54-5.65-46.99-9.04l-1.45,2.62Z"/>
        <path class="cls-3" d="M556.98,382.11c30.96,4.74,62.08,8.32,92.6,10.93,30.98,2.47,61.6,3.93,91.97,4.31l1.1-2.37c-30.23-.48-61.07-1.9-91.88-4.47-30.51-2.66-61.74-6.25-92.56-11.07l-1.23,2.67Z"/>
        <path class="cls-3" d="M556.94,382.1c108.88,18.91,217.26,23.49,322.15,14.08l1.19-2.2c-104.88,9.26-213.21,4.52-322.03-14.54l-1.31,2.65Z"/>
        <path class="cls-3" d="M557.32,382.13c126.07-1.29,249.76-13.86,371.02-37.99l.58-1.91c-121.26,23.84-245.1,36.2-371.06,37.18l-.55,2.72Z"/>
        <path class="cls-3" d="M557.47,382.12c68.44-5.2,136.6-13.02,203.7-23.27,67.65-10.42,134.22-23.22,200.25-38.61l.31-1.73c-65.89,15.17-132.76,27.91-200.27,38.11-67.11,10.08-135.45,17.79-203.76,22.79l-.25,2.7Z"/>
        <path class="cls-3" d="M557.62,382.11c62.03-8.55,124.08-18.66,185.46-30.14,61.41-11.49,122.36-24.4,183.22-38.86l.07-1.74c-60.94,14.32-121.75,27.02-183.29,38.39-61.39,11.32-123.6,21.32-185.5,29.67l.04,2.67Z"/>
        <path class="cls-3" d="M557.69,382.1c128.17-21.73,255.45-48.34,380.93-79.55l.02-1.69c-125.55,30.9-253.06,57.22-381.14,78.59l.19,2.65Z"/>
        <path class="cls-3" d="M557.14,379.53l.9,2.47c145.23-48.01,291.43-92.5,438.46-133.43l-.62-1.32c-147.12,40.54-293.41,84.65-438.74,132.28Z"/>
        <path class="cls-3" d="M557.05,379.57l1.09,2.41c116.6-43.71,234.15-83.31,352.9-118.86l-.78-1.51c-118.99,35.29-236.48,74.55-353.21,117.96Z"/>
        <path class="cls-3" d="M557.02,379.58l1.14,2.39c60.23-23.49,120.8-45.73,181.67-66.71,30.44-10.49,60.95-20.66,91.53-30.52,30.62-9.87,61.45-19.45,92.27-28.69l-.84-1.46c-123.63,36.73-245.12,78.29-365.77,124.99Z"/>
        <path class="cls-3" d="M556.88,379.64l1.43,2.26c64.78-30.26,129.92-58,196.15-83.39,66.41-25.43,132.99-48.31,200.64-68.8l-1.07-1.31c-16.91,5.08-33.85,10.32-50.67,15.71-16.77,5.38-33.51,10.91-50.22,16.6-33.43,11.38-66.74,23.38-99.91,36-33.26,12.64-66.07,25.83-98.74,39.64-32.69,13.81-65.23,28.24-97.61,43.28Z"/>
        <path class="cls-3" d="M556.92,379.62l1.35,2.3c63.54-28.25,127.65-54.43,192.22-78.51,64.92-24.16,130.33-46.24,196.1-66.19l-1.06-1.34c-65.79,19.79-131.22,41.69-196.19,65.69-64.77,23.96-128.8,49.94-192.42,78.04Z"/>
        <path class="cls-3" d="M556.73,379.71l1.74,2.11c132.39-74.11,271.21-133.31,413.3-176.55l-1.33-1.2c-142.18,42.92-281.28,101.85-413.7,175.64Z"/>
        <path class="cls-3" d="M556.67,379.75l1.85,2.05c129.23-77.33,265.82-138.49,406.09-182.16l-1.47-1.19c-140.4,43.37-277.12,104.25-406.46,181.3Z"/>
        <path class="cls-3" d="M556.63,379.77l1.92,2c127.61-79.85,263.08-142.52,402.64-186.56l-1.57-1.18c-139.74,43.77-275.18,106.14-403,185.74Z"/>
        <path class="cls-3" d="M556.58,379.81l2.03,1.93c124.77-83.15,258.06-147.84,395.86-192.44l-1.61-1.18c-137.89,44.33-271.32,108.77-396.27,191.69Z"/>
        <path class="cls-3" d="M556.53,379.84l2.14,1.86c111.85-79.49,231.69-142.38,355.91-187.17l-1.74-1.23c-124.32,44.56-244.29,107.25-356.3,186.54Z"/>
        <path class="cls-3" d="M556.37,379.96l2.44,1.62c28.28-24.25,56.64-46.89,86.37-68.23,14.82-10.65,29.4-20.85,44.63-30.78,15.16-9.91,30.39-19.42,45.66-28.54,61.64-36.55,125.02-66.94,190.44-90.87l-2.06-1.16c-65.52,23.84-128.83,54.15-190.64,90.63-30.51,18.19-61.12,38.02-90.38,59.21-14.67,10.6-29.61,21.67-43.82,32.98-14.31,11.33-28.53,23.05-42.65,35.14Z"/>
        <path class="cls-3" d="M556.33,380l2.54,1.53c25.71-23.56,51.48-45.64,78.59-66.53,13.52-10.43,26.77-20.44,40.68-30.2,13.84-9.75,27.74-19.13,41.68-28.16,56.33-36.16,114.32-66.66,174.37-91.22l-2.17-1.19c-60.15,24.5-118.07,54.93-174.57,91.04-27.85,18-55.81,37.52-82.45,58.28-13.36,10.38-26.99,21.2-39.91,32.23-13.01,11.05-25.94,22.46-38.78,34.22Z"/>
        <path class="cls-3" d="M556.19,380.14l2.81,1.26c42.84-48.84,89.33-92.64,137.9-130.84,48.63-38.22,100.29-70.94,153-97.63l-2.45-1.18c-106,53.36-205.3,130.69-291.26,228.39Z"/>
        <path class="cls-3" d="M556.07,380.29l3.05.96c31.74-46.16,66.88-88.43,104.02-126.27,9.43-9.48,18.88-18.68,28.36-27.58,9.69-8.93,19.58-17.58,29.37-25.93,9.68-8.34,19.96-16.43,30.08-24.21,10.17-7.78,20.14-15.26,30.73-22.46l-2.76-1.14c-83.12,57.58-159.07,134.2-222.85,226.62Z"/>
        <path class="cls-3" d="M556.03,380.36l3.13.83c11.81-18.74,23.32-36.67,36.11-54.18,6.29-8.73,12.55-17.26,18.95-25.65,6.6-8.42,13.23-16.67,19.88-24.73l9.99-11.97,10.39-11.75c6.95-7.75,13.92-15.32,20.91-22.71,7.09-7.4,14.46-14.65,21.69-21.7,7.3-7.06,14.41-13.92,22.06-20.63l-2.91-1.06c-7.64,6.72-14.87,13.6-22.11,20.66-7.25,7.06-14.54,14.31-21.74,21.73-6.98,7.4-13.95,14.97-20.9,22.73l-10.41,11.77c-3.4,3.96-6.68,7.94-10.02,11.98-6.65,8.07-13.27,16.33-19.87,24.76-6.51,8.41-12.69,16.94-19,25.68-12.77,17.52-24.4,35.49-36.16,54.24Z"/>
        <path class="cls-3" d="M555.93,380.55l3.34.43c18.03-44.07,39.35-85.62,62.7-124.1,6-9.64,11.7-19.04,17.99-28.31,6.29-9.26,12.59-18.31,18.88-27.16,13.19-17.73,26.23-34.63,40.39-50.7l-3.17-.94c-14.16,16.12-27.23,33.06-40.46,50.83-6.3,8.87-12.59,17.94-18.87,27.22-6.38,9.29-12.01,18.71-18.02,28.37-23.38,38.56-44.8,80.22-62.78,124.36Z"/>
        <path class="cls-3" d="M555.86,380.74l3.46.06c13.39-57.52,31.78-111.9,54.35-162.27l-3.42-.51c-22.59,50.52-40.99,105.05-54.39,162.72Z"/>
        <path class="cls-3" d="M555.84,380.89l3.51-.24c7.95-87.82,28.11-171.02,57.47-246.28l-3.46-.57c-29.4,75.52-49.62,159.01-57.52,247.09Z"/>
        <path class="cls-3" d="M555.84,381.09l3.52-.64c-6.3-62.17-7.43-123.93-2.02-184.37h-3.57c-5.41,60.65-4.27,122.62,2.07,185Z"/>
        <path class="cls-3" d="M555.86,381.2l3.48-.86c-19.73-86.87-27.47-175.93-23.27-263.8l-3.58-.1c-4.21,88.19,3.57,177.58,23.37,264.75Z"/>
        <path class="cls-3" d="M491.85,198.82c15.44,63.74,37.54,124.82,64.07,182.58l3.35-1.25c-26.47-57.55-48.49-118.42-63.9-181.94l-3.52.61Z"/>
        <path class="cls-3" d="M439.5,141.24c29.23,87.89,68.8,168.58,116.49,240.29l3.21-1.52c-47.61-71.45-87.04-151.9-116.22-239.52l-3.48.75Z"/>
        <path class="cls-3" d="M372.97,132.26c50.58,97,113.19,180.65,183.16,249.45l2.93-1.87c-69.89-68.58-132.31-152.04-182.79-248.81l-3.29,1.23Z"/>
        <path class="cls-3" d="M314.64,138.5c70.65,99.7,153.29,181.11,241.64,243.34l2.62-2.12c-88.28-62.08-170.69-143.37-241.2-242.91l-3.06,1.7Z"/>
        <path class="cls-3" d="M209.14,128.33c104.93,113.18,224.2,197.77,347.38,253.63l2.16-2.39c-61.56-27.91-122.1-63.02-180.3-105.29-58.24-42.27-114.24-91.69-166.55-148.27l-2.68,2.32Z"/>
        <path class="cls-3" d="M302.71,248.9c81.78,57.06,167.41,101.38,253.92,133.11l1.93-2.48c-86.42-31.76-171.95-76.11-253.63-133.19l-2.22,2.57Z"/>
        <path class="cls-3" d="M165.93,171.1c30.45,24.73,62.21,47.6,93.81,68.76,16.09,10.54,32.18,20.66,48.24,30.35,16.06,9.69,32.67,18.86,48.93,27.67,65.66,35.1,132.41,63.18,199.8,84.16l1.78-2.54c-67.44-21-134.01-49.15-199.6-84.29-8.16-4.4-16.34-8.91-24.52-13.52l-12.28-7-12.05-7.19c-16.06-9.7-32.14-19.82-48.23-30.37-15.75-10.6-31.51-21.62-47.25-33.08l-11.8-8.67-11.54-8.86c-7.69-5.96-15.38-12.04-23.05-18.21l-2.25,2.79Z"/>
        <path class="cls-3" d="M144.49,204.73c66.09,43.07,134.43,79.27,203.2,108.85,69.34,29.47,139.16,52.31,209.15,68.49l1.52-2.61c-70.06-16.23-139.67-39.18-208.95-68.73-68.84-29.63-136.85-65.95-203-109.07l-1.9,3.06Z"/>
        <path class="cls-3" d="M140.3,224.49c134.58,78.02,276.25,130.2,416.6,157.6l1.39-2.64c-17.48-3.47-35.05-7.29-52.71-11.49-17.78-4.17-34.97-8.87-52.61-13.85-35.33-9.96-69.97-21.61-105.03-34.73-69.44-26.36-138.82-58.94-205.87-98.06l-1.77,3.18Z"/>
        <path class="cls-3" d="M127.54,226.91c138.97,77.89,284.99,129.24,429.39,155.19l1.33-2.65c-17.99-3.28-36.07-6.94-54.25-10.98-18.3-4.01-36.01-8.56-54.17-13.4-36.37-9.68-72.09-21.09-108.2-34.01-71.61-25.96-143.12-58.32-212.39-97.38l-1.71,3.24Z"/>
        <path class="cls-3" d="M131.71,259.03c139.58,63.72,283.18,104.49,425.32,123.08l1.14-2.68c-142.09-18.82-285.6-59.81-425.04-123.76l-1.42,3.36Z"/>
        <path class="cls-3" d="M126.22,287.31c142.52,51.93,287.6,83.3,430.91,94.81l.94-2.7c-143.26-11.77-288.26-43.41-430.65-95.6l-1.19,3.49Z"/>
        <path class="cls-3" d="M119.61,310.21c145.51,42.46,292.46,66.26,437.6,71.92l.77-2.71c-145.06-5.95-292.11-30.01-437.45-72.78l-.92,3.58Z"/>
        <path class="cls-3" d="M82.69,338.51c158.83,32.22,317.81,46.62,474.65,43.62l.51-2.71c-156.98,2.69-315.77-12.09-474.53-44.66l-.62,3.76Z"/>
        <path class="cls-3" d="M227.59,355c27.64,4.53,55.04,8.54,82.63,11.93,27.67,3.37,55.25,6.19,82.72,8.45,13.73,1.13,27.44,2.13,41.11,2.98,13.75.84,27.55,1.52,41.27,2.08,27.47,1.11,54.8,1.67,81.98,1.69l.59-2.72c-54.33-.16-109.63-2.4-164.35-7.09-27.47-2.32-55.06-5.19-82.74-8.62-27.43-3.48-54.96-7.52-82.57-12.12l-.64,3.41Z"/>
        <path class="cls-3" d="M69.25,372.69c41.04,4.48,81.96,8.05,122.74,10.71,40.82,2.64,81.87,4.29,122.54,5.08,81.18,1.62,162.75-.65,242.94-6.36l.26-2.7c-80.32,5.55-161.74,7.59-242.97,5.8-40.64-.89-81.83-2.6-122.49-5.38-40.78-2.75-81.72-6.41-122.76-10.98l-.25,3.84Z"/>
        <path class="cls-3" d="M350.2,399.72c69.62-3.8,138.77-9.68,207.37-17.6l.06-2.69c-68.61,7.75-137.9,13.49-207.41,17.1l-.02,3.19Z"/>
        <path class="cls-3" d="M123.69,413.97c73.04-1.2,145.55-4.41,217.88-9.72,72.5-5.36,144.54-12.74,216.03-22.14v-2.68c-71.55,9.22-143.64,16.44-216.17,21.62-72.2,5.1-144.86,8.17-217.89,9.18l.14,3.74Z"/>
        <path class="cls-3" d="M111.88,423.26c75.02-2.96,149.37-7.79,223.83-14.7,74.45-6.9,148.45-15.72,221.92-26.46l-.08-2.67c-73.53,10.56-147.57,19.2-222.05,25.92-74.32,6.68-148.83,11.36-223.84,14.13l.22,3.77Z"/>
        <path class="cls-3" d="M100.68,433.91c153.32-9.97,306.27-27.4,456.99-51.81l-.15-2.65c-75.43,12.03-151.34,22.29-227.66,30.76-76.38,8.49-152.6,15.06-229.49,19.9l.31,3.8Z"/>
        <path class="cls-3" d="M135.41,472.54c141.4-27.83,282.23-57.99,422.42-90.47l-.47-2.59c-140.29,32.12-281.21,61.92-422.7,89.39l.75,3.68Z"/>
        <path class="cls-3" d="M287.69,449.31c90.18-21.98,180.25-44.39,270.2-67.25l-.57-2.57c-90.01,22.62-180.14,44.81-270.38,66.55l.76,3.27Z"/>
        <path class="cls-3" d="M213.26,471.11c114.99-29.27,229.87-58.96,344.64-89.06l-.61-2.56c-114.85,29.8-229.81,59.19-344.88,88.16l.85,3.46Z"/>
        <path class="cls-3" d="M170.6,496.23l1.13,3.51c128.39-40.3,257.1-79.52,386.24-117.7l-.76-2.52c-129.17,37.82-258.16,76.76-386.61,116.72Z"/>
        <path class="cls-3" d="M190.06,501.44l1.22,3.43c121.7-42.89,243.75-83.79,366.75-122.85l-.85-2.49c-123.1,38.74-245.38,79.36-367.12,121.91Z"/>
        <path class="cls-3" d="M164.68,556.91l1.68,3.35c63.9-32.85,128.8-64.23,194.17-93.96,65.41-29.75,131.1-57.8,197.65-84.33l-1.18-2.37c-66.77,26.4-132.39,54.25-197.89,83.84-65.34,29.54-130.49,60.8-194.43,93.48Z"/>
        <path class="cls-3" d="M219.35,544.82l1.76,3.14c27.47-15.32,55.08-30.26,82.82-44.83,27.87-14.6,55.89-28.84,84.02-42.68,56.32-27.71,112.88-53.83,170.29-78.52l-1.3-2.33c-57.62,24.59-114.11,50.53-170.51,78.11-56.34,27.56-112.19,56.64-167.08,87.1Z"/>
        <path class="cls-3" d="M267.72,576.9l2.27,2.69c11.44-9.31,22.95-18.49,34.5-27.52,11.6-9.05,23.39-18,35.16-26.79,23.57-17.59,47.36-34.62,71.34-51.08,23.94-16.45,48.56-32.49,73.09-47.87,24.65-15.42,49.23-30.2,74.4-44.52l-1.77-2.09c-25.3,14.29-49.87,29.01-74.54,44.37-24.58,15.34-49.1,31.28-73.23,47.72-24,16.41-47.81,33.38-71.4,50.92-11.8,8.77-23.54,17.67-35.23,26.72-11.66,9.03-23.11,18.16-34.58,27.45Z"/>
        <path class="cls-3" d="M314.25,516.08l1.91,2.77c19.68-12.53,39.47-24.77,59.36-36.72,19.94-11.97,40.14-23.71,60.34-35.13,40.5-22.87,81.14-44.52,122.51-65.12l-1.54-2.21c-41.57,20.55-82.11,42.06-122.69,64.84-20.24,11.38-40.39,23.04-60.44,34.99-19.97,11.93-39.73,24.1-59.45,36.58Z"/>
        <path class="cls-3" d="M320.18,582.38l2.55,2.27c73.25-76.33,152.71-144.27,235.93-202.94l-2.12-1.87c-21.11,14.71-41.35,29.82-61.8,45.64-20.38,15.8-40.57,32.18-60.13,49.02-19.65,16.87-39.18,34.35-58.32,52.35-18.94,17.94-37.65,36.45-56.11,55.54Z"/>
        <path class="cls-3" d="M340.71,569.4l2.58,2.17c16.84-17.77,33.9-35.04,51.16-51.79,17.48-16.83,35.27-33.18,53.18-48.99,8.98-7.92,17.93-15.68,27.07-23.36,9.19-7.69,18.43-15.26,27.71-22.69,18.61-14.88,37.15-29.18,56.26-43.06l-2.18-1.83c-75.99,55.24-148.86,118.77-215.79,189.55Z"/>
        <path class="cls-3" d="M435.95,546.63l3.09,1.22c35.95-60.58,76.25-116.21,119.97-166.45l-2.82-1.25c-43.8,50.24-84.24,105.9-120.24,166.48Z"/>
        <path class="cls-3" d="M463.96,517.84l3.12,1.06c27.47-49.16,58.84-95.29,91.98-137.57l-2.92-1.13c-33.28,42.32-64.6,88.43-92.17,137.63Z"/>
        <path class="cls-3" d="M487.12,502.78l3.23.78c10.05-21.55,21.33-42.71,32.64-63.05,5.54-10.14,11.77-20.28,17.73-30.15,6.1-9.9,12-19.55,18.42-29.14l-3.08-.91c-6.53,9.63-12.34,19.26-18.47,29.17-5.97,9.87-12.17,20.02-17.79,30.18-11.25,20.34-22.65,41.55-32.68,63.1Z"/>
        <path class="cls-3" d="M520.13,460.25l3.32.49c10.81-27.48,22.97-54.12,35.77-79.66l-3.25-.62c-12.84,25.59-25.03,52.27-35.84,79.79Z"/>
        <path class="cls-3" d="M378.91,548.43l2.67,1.95c54.9-62.23,114.78-118.78,177.17-168.75l-2.32-1.72c-62.59,49.92-122.45,106.35-177.52,168.52Z"/>
      </g>
      <path class="cls-1" d="M47.18,99.66c-2.75,209.84,39.48,416.08,122.06,606.75l856.34-371.52c-30.46-69.86-46.19-148.11-45.03-222.33L47.18,99.66Z"/>
    </g>
  </g>
</svg>