<?xml version="1.0" encoding="UTF-8"?>
<svg id="_레이어_1" data-name="레이어_1" xmlns="http://www.w3.org/2000/svg" viewBox="0 0 1200 1200">
  <defs>
    <style>
      .cls-1 {
        fill: none;
      }

      .cls-2 {
        fill: #815239;
      }

      .cls-3 {
        fill: #fff;
      }
    </style>
  </defs>
  <path class="cls-1" d="M2028,64.12c-.62-1.3-1.18-1.97-1.15-1.89.22.14.58.87,1.87,2.34,2.48,2.91,7.39,8.34,15.3,15.52,3.92,3.58,8.43,7.56,13.79,11.93,2.5,2.14,5.55,4.45,8.34,6.74,3.25,2.47,6.24,4.88,9.82,7.52,6.79,5.16,14.53,10.75,22.96,16.69,8.31,5.89,17.7,12.26,27.62,18.92l-586.23,875.27c-15.36-10.31-31.15-21.03-47.7-32.71-16.46-11.59-33.4-23.81-50.88-37.03-8.63-6.44-17.59-13.45-26.39-20.28-9.08-7.23-18.03-14.29-27.2-21.92-18.19-14.92-36.66-30.92-55.2-47.87-37.05-33.86-74.69-72.15-111.39-115.85-18.35-21.8-36.45-45.29-54-69.87-17.56-24.78-34.52-51.11-50.62-78.62L2028,64.12Z"/>
  <g>
    <g>
      <path class="cls-2" d="M748.15,965.94l39.56,104.72c2.05,5.4,11.11,7.04,20.22,3.66,9.12-3.38,14.84-10.5,12.79-15.9l-39.49-104.54c-4.75-12.64-15.9-20.23-25.07-16.92-9.13,3.3-12.79,16.31-8.02,28.99Z"/>
      <polygon class="cls-1" points="1274.91 750.67 1287.2 784.89 1299.72 819.45 1325.46 889.87 289.82 1269.66 263.15 1196.68 249.67 1159.48 236.16 1121.87 1274.91 750.67"/>
    </g>
    <g>
      <path class="cls-3" d="M592.84,442.53c34.58,149.42,82.13,294.98,134.33,438.34,4.23,16.5,8.8,32.87,13.19,49.32,3.76,10.18,27.88,1.44,24.13-8.7-15.19-31.23-29.89-62.65-44.73-94.1-22.41-63.54-43.78-127.46-63.61-191.89-19.43-64.55-37.1-129.65-52.42-195.37-.37-1.73-3.11-2.6-6.12-1.94-3.01.66-5.14,2.6-4.77,4.34Z"/>
      <path class="cls-1" d="M1144.46,318.18c27.97,131.93,74.54,276.42,130.45,432.49L236.16,1121.87c-31.05-86.92-62.29-177.67-91.57-273.07-29.25-95.4-56.58-195.53-79.06-301.04l1078.92-229.58Z"/>
    </g>
    <g>
      <g>
        <path class="cls-3" d="M573.03,302.54c.26,39.9,1.11,80.09,3.58,120.21l-4.18.64c-2.49-40.18-3.34-80.45-3.61-120.44l4.21-.41Z"/>
        <path class="cls-3" d="M573.03,302.61c-1.09,8.57-1.68,17.08-2.39,25.63l-2.07,25.73-2.04,25.88-1.3,25.86-4.19.46,1.3-25.91,2.03-25.93,2.06-25.78c.7-8.57,1.3-17.1,2.39-25.68l4.2-.26Z"/>
        <path class="cls-3" d="M573,302.74c-2.39,7.97-4.38,15.91-6.41,23.89l-6.09,24.06c-3.99,16.09-8.27,32.42-11.61,48.64l-4.16.17c3.34-16.25,7.65-32.61,11.62-48.72l6.08-24.1c2.01-7.99,4.03-15.95,6.42-23.94h4.14Z"/>
        <path class="cls-3" d="M572.85,303.05c-5.13,7.11-10,14.24-14.79,21.4l-14.46,21.68c-9.62,14.56-19.21,29.32-28.75,44.3l-3.86-.52c9.54-14.99,19.12-29.77,28.75-44.34l14.46-21.7,7.26-10.73,7.57-10.7,3.84.62Z"/>
        <path class="cls-3" d="M572.75,303.18c-7.68,8.42-14.96,16.87-22.28,25.41l-21.92,25.89-21.82,26.41-10.86,13.4-10.53,13.42-3.71-.78c6.94-8.97,14.13-17.94,21.43-26.85l21.82-26.43,21.91-25.91c7.27-8.54,14.65-17.01,22.32-25.43l3.63.87Z"/>
        <path class="cls-3" d="M572.62,303.31c-8.54,7.57-16.81,15.19-25.01,22.87l-24.66,23.32c-16.41,15.71-32.76,31.75-49.05,48.12l-3.43-1.09c16.28-16.37,32.64-32.42,49.05-48.14l24.66-23.33,12.38-11.48,12.68-11.41,3.38,1.12Z"/>
        <path class="cls-3" d="M572.27,303.56c-15.81,9.25-31.23,18.6-46.66,28.12-15.44,9.52-30.86,19.2-46.24,29.05-30.68,19.64-61.62,40.12-91.75,60.89l-2.82-1.68c30.25-20.82,61.11-41.23,91.82-60.87,15.39-9.84,30.8-19.51,46.25-29.02l23.18-14.15,23.55-13.96,2.68,1.63Z"/>
        <path class="cls-3" d="M572.16,303.62c-15.99,8.37-31.74,16.85-47.38,25.46-15.68,8.61-31.34,17.37-46.98,26.26-31.27,17.79-62.44,36.14-93.5,55.06l-2.55-1.87c31.06-18.89,62.24-37.23,93.52-54.99,31.37-17.78,62.41-34.94,94.44-51.67l2.46,1.75Z"/>
        <path class="cls-3" d="M572.2,303.6c-13.94,7.59-27.71,15.28-41.32,23.05-13.67,7.78-27.32,15.68-40.95,23.69-27.26,16.02-54.44,32.5-81.54,49.43-27.24,17.01-53.68,34.09-80.36,51.74-26.61,17.61-53.13,35.64-79.55,54.07l-2.71-1.86c26.43-18.42,52.95-36.42,79.57-54.02,26.63-17.6,53.2-34.74,80.43-51.72,27.1-16.91,54.28-33.37,81.55-49.38,27.33-16.01,54.42-31.53,82.35-46.71l2.54,1.71Z"/>
        <path class="cls-3" d="M571.8,303.78c-34.64,12.7-68.78,25.72-102.96,39.12-34.17,13.4-68.29,27.18-102.33,41.34-68.04,28.25-136.08,58.31-203.01,89.08l-1.94-2.41,50.4-22.88,50.78-22.56c33.91-14.87,67.89-29.37,101.94-43.49,34.05-14.12,68.17-27.87,102.35-41.24l51.32-19.77c17.18-6.51,34.48-12.94,51.74-19.26l1.73,2.07Z"/>
        <path class="cls-3" d="M571.63,303.84c-38.62,11.9-76.93,24.11-115.14,36.64-38.24,12.54-76.43,25.42-114.55,38.64-76.25,26.44-152.26,54.24-228,83.39l-1.56-2.67c75.75-29.07,151.78-56.78,228.05-83.14,76.37-26.37,152.52-51.32,229.81-75.05l1.39,2.19Z"/>
        <path class="cls-3" d="M571.46,303.88c-71.75,18.35-142.91,37.43-214.08,57.29-71.15,19.87-142.17,40.51-213.04,61.94l-1.22-2.75c70.89-21.34,141.93-41.91,213.09-61.69,35.58-9.89,71.2-19.59,106.84-29.09,35.7-9.52,71.54-18.86,107.36-27.97l1.06,2.28Z"/>
        <path class="cls-3" d="M571.38,303.91c-74.85,17.22-149.35,35.08-223.7,53.54-74.38,18.48-148.66,37.6-222.82,57.36l-1.05-2.82c148.45-39.36,296.92-76.11,446.69-110.4l.89,2.32Z"/>
        <path class="cls-3" d="M570.92,301.51l.03,2.46c-179.41,19.24-359.12,36.39-539.11,51.46l-.12-3.14c180.02-14.84,359.77-31.77,539.21-50.79Z"/>
        <path class="cls-3" d="M571.03,301.5l-.2,2.48c-146.13,11.07-292.61,19.73-439.39,25.99l.13-3.03c146.8-6.08,293.31-14.56,439.46-25.45Z"/>
        <path class="cls-3" d="M571.07,301.5l-.27,2.49c-151.76,9.89-303.95,16.83-456.5,20.8l.2-3.05c152.57-3.78,304.79-10.53,456.57-20.24Z"/>
        <path class="cls-3" d="M571.25,301.49l-.64,2.51c-83.59,1.08-167.4.71-251.38-1.11-41.99-.91-84.03-2.18-126.1-3.81l-63.13-2.73-62.92-3.48.66-3.14c83.76,5.24,168.15,8.41,252.1,10.37,83.99,1.91,167.81,2.38,251.42,1.4Z"/>
        <path class="cls-3" d="M571.2,301.49l-.53,2.5c-162.97,4.57-326.68,4.24-490.88-.99l.54-3.13c164.08,5.54,327.91,5.97,490.88,1.62Z"/>
        <path class="cls-3" d="M571.45,301.5l-1.03,2.5c-88.36-4.04-177.06-10.36-266.01-18.97-44.61-4.24-88.64-9.38-133-15.02-44.3-5.67-88.66-11.96-133.05-18.87l1.06-3.11c88.88,13.89,177.24,25.45,265.99,34.23,88.96,8.71,177.67,15.12,266.05,19.25Z"/>
        <path class="cls-3" d="M571.52,301.5l-1.19,2.49c-87.38-6.04-175.12-14.58-263.13-25.63-87.51-11.26-175.04-25.35-262.86-42.1l1.22-3.07c87.79,16.86,175.43,30.99,262.8,42.41,88.01,11.14,175.77,19.76,263.16,25.89Z"/>
        <path class="cls-3" d="M571.58,301.5l-1.29,2.48c-86.99-7.45-174.5-17.51-262.06-30.33-86.99-13.08-174.27-29.05-261.69-47.91l1.33-3.03c87.42,18.95,174.7,35.01,261.7,48.18,87.41,12.97,175.04,23.07,262.01,30.62Z"/>
        <path class="cls-3" d="M571.65,301.51l-1.44,2.47c-43.06-4.72-86.22-10.15-129.47-16.3-21.63-3.07-43.27-6.33-64.94-9.76-21.7-3.42-43.36-7.04-64.81-10.95-43.03-7.76-86.13-16.3-129.29-25.62-21.58-4.66-43.17-9.51-64.77-14.56-21.62-5.04-43.25-10.26-64.58-15.88l1.56-3.03,32.12,8.24,32.39,7.76c21.6,5.07,43.19,9.94,64.77,14.62,43.16,9.36,86.26,17.94,129.29,25.75,42.85,7.87,86.51,14.63,129.68,20.86,43.26,6.19,86.42,11.66,129.49,16.42Z"/>
        <path class="cls-3" d="M571.72,301.52l-1.58,2.45c-39.13-5.28-78.35-11.2-117.66-17.77-19.65-3.28-39.32-6.73-59.01-10.34-19.72-3.6-39.41-7.37-58.87-11.41-39.07-8.03-78.2-16.76-117.38-26.2-19.59-4.72-39.19-9.61-58.8-14.68-19.62-5.07-39.28-10.28-58.62-15.87l1.71-2.93,29.13,8.2,29.41,7.77c19.61,5.09,39.21,10,58.8,14.73,39.18,9.47,78.32,18.24,117.39,26.3,38.89,8.13,78.61,15.24,117.82,21.88,39.31,6.6,78.54,12.55,117.67,17.86Z"/>
        <path class="cls-3" d="M571.94,301.56l-2.01,2.37c-81.97-17.88-165.09-39.01-246.49-64.75-20.47-6.4-40.95-13.05-61.45-19.94-20.49-6.9-41.1-13.99-61.22-21.56-40.48-15.04-81-31.15-121.52-48.31l2.16-2.74c40.51,17.19,81.03,33.32,121.51,48.39,10.14,3.76,20.21,7.48,30.39,11.09l30.75,10.54c20.5,6.91,40.98,13.56,61.45,19.98,20.47,6.41,40.91,12.58,61.34,18.5l30.65,8.69,30.97,8.23c41.27,10.74,82.44,20.57,123.47,29.5Z"/>
        <path class="cls-3" d="M572.01,301.58l-2.16,2.34c-75.77-18.83-152.64-40.65-227.77-66.74-18.9-6.49-37.81-13.2-56.74-20.15-18.93-6.94-37.95-14.07-56.5-21.64-37.34-15.05-74.71-31.07-112.07-48.07l2.3-2.63c37.36,17.02,74.73,33.06,112.06,48.14l28.02,11.11,28.4,10.6c18.93,6.95,37.84,13.68,56.74,20.18,18.9,6.5,37.78,12.77,56.64,18.82l28.31,8.89,28.63,8.46c38.15,11.07,76.2,21.3,114.14,30.71Z"/>
        <path class="cls-3" d="M572.21,301.64l-2.56,2.22c-33.94-11.82-67.99-24.47-102.14-37.95-17.2-6.7-33.86-13.76-50.71-21.01-16.82-7.25-33.67-14.73-50.52-22.43-16.86-7.7-33.73-15.63-50.61-23.78-16.58-8.25-33.15-16.76-49.73-25.5-16.58-8.74-33.17-17.72-49.75-26.95-16.54-9.24-33.33-18.62-49.42-28.52l2.79-2.36c16.1,9.9,32.74,19.34,49.34,28.56,16.58,9.23,33.17,18.21,49.75,26.96,16.58,8.74,33.16,17.25,49.72,25.51,16.76,8.19,33.72,16.09,50.55,23.81,33.82,15.38,67.13,29.98,101.17,43.48,34.15,13.48,68.21,26.14,102.14,37.97Z"/>
        <path class="cls-3" d="M572.41,301.71l-2.95,2.06c-27.3-12.98-54.69-26.62-82.15-40.92-13.87-7.12-27.12-14.55-40.64-22.11-13.47-7.57-26.95-15.32-40.45-23.24-13.48-7.93-27.04-16.02-40.47-24.33-13.2-8.38-26.4-16.95-39.6-25.71-13.21-8.76-26.42-17.72-39.62-26.86-13.23-9.14-26.49-18.46-39.2-28.15l3.16-2.02c6.44,4.82,12.82,9.6,19.33,14.3l19.81,13.86c13.21,9.14,26.41,18.09,39.62,26.85,13.2,8.76,26.41,17.32,39.6,25.7,13.31,8.34,26.96,16.4,40.41,24.33,27.09,15.82,53.71,31.02,81.02,45.34,27.46,14.29,54.85,27.92,82.15,40.9Z"/>
        <path class="cls-3" d="M572.48,301.75l-3.1,1.99c-20.61-11.05-41.27-22.51-61.99-34.37-10.29-5.95-20.88-11.93-30.95-18.14-10.13-6.2-20.28-12.5-30.43-18.92-20.3-12.84-40.66-26.11-60.98-39.84-19.83-13.87-39.67-28.21-59.52-43.03l3.23-1.89c19.85,14.81,39.69,29.14,59.52,43,20.21,13.75,40.65,26.99,60.92,39.83,40.16,25.74,82.23,49.26,123.3,71.39Z"/>
        <path class="cls-3" d="M572.68,301.88l-3.49,1.73c-19.37-14.93-38.81-30.32-58.29-46.18-19.25-15.9-37.89-32.44-56.92-49.42-19.23-16.93-37.31-34.62-55.63-52.83-18.29-18.21-36.86-36.89-54.13-56.43l3.66-1.46c8.89,9.7,17.33,19.35,26.61,28.68,9.15,9.36,18.31,18.59,27.46,27.67,18.36,18.17,36.34,35.86,55.58,52.76,19.01,16.96,37.7,33.46,56.87,49.35,19.48,15.84,38.92,31.21,58.28,46.11Z"/>
        <path class="cls-3" d="M572.82,302.01l-3.78,1.47c-39.58-43.13-78.36-88.87-114.65-137.92l3.88-1.22c36.24,48.97,74.99,94.62,114.55,137.67Z"/>
        <path class="cls-3" d="M572.91,302.12l-3.96,1.24c-11.6-17.76-23.25-35.79-34.91-54.09-11.01-18.41-22.01-37.12-33.04-56.12-21.15-38.14-42.07-77.56-60.51-118.63l4.08-.75c18.43,40.98,39.33,80.32,60.44,118.37,11.02,18.96,22.03,37.63,33.01,56,11.64,18.27,23.29,36.26,34.89,53.98Z"/>
        <path class="cls-3" d="M573,302.29l-4.13.9c-9.58-27.67-19.91-55.48-28.18-83.88-4.29-14.18-8.92-28.38-12.93-42.74l-11.46-43.36,4.19-.51,11.46,43.25c3.99,14.32,8.63,28.49,12.91,42.64,8.27,28.33,18.57,56.09,28.15,83.69Z"/>
        <path class="cls-3" d="M573.02,302.39l-4.18.7c-3.87-20.41-8.04-40.82-11.67-61.35l-9.62-61.86-7.23-62.35c-1.94-20.85-3.21-41.79-4.84-62.76l4.23-.09c1.63,20.91,2.9,41.79,4.83,62.59l7.22,62.19,9.61,61.71c3.62,20.48,7.79,40.84,11.65,61.21Z"/>
        <path class="cls-3" d="M593.46,127.01l-6.88,43.32c-2.22,14.52-3.59,29.07-5.42,43.72-3.89,29.34-5.71,58.77-8.14,88.54l-4.2.32c2.41-29.83,4.24-59.31,8.13-88.73l2.58-21.96c.91-7.3,1.57-14.57,2.84-21.86l6.87-43.43,4.22.09Z"/>
        <path class="cls-3" d="M650.12,74.51c-7.66,17.94-15.63,36.18-22.21,54.72l-10.36,28c-3.46,9.4-7,18.88-9.93,28.4-6.14,19.05-12.34,38.36-18.38,57.91l-16.23,59.18-4.15.03,16.21-59.29c6.08-19.6,12.24-38.95,18.39-58.04,2.92-9.54,6.5-19.04,9.94-28.47l10.36-28.07c6.57-18.58,14.59-36.87,22.23-54.86l4.13.48Z"/>
        <path class="cls-3" d="M728.53,65.76c-57.51,70.53-109.87,150.8-155.6,237.18l-3.99-.38c45.76-86.5,98.08-166.92,155.67-237.61l3.92.81Z"/>
        <path class="cls-3" d="M797.56,68.56c-80.37,66.4-156.09,146.11-224.76,234.55l-3.75-.72c68.7-88.52,144.41-168.34,224.87-234.84l3.64,1.02Z"/>
        <path class="cls-3" d="M922.02,60.37c-122.51,62.2-239.96,145.53-349.41,242.95l-3.36-1.14c27.75-24.39,55.42-47.83,83.6-70.33,28.66-22.5,57.43-43.97,86.25-64.41,29.34-20.39,59.19-39.62,88.78-57.77,14.64-9.11,30.11-17.77,45.29-26.18,15.23-8.41,30.45-16.52,45.65-24.33l3.2,1.22Z"/>
        <path class="cls-3" d="M822.57,137.92c-86.19,47.5-169.19,103.32-250.06,165.48l-3.15-1.31c80.89-62.14,163.93-117.97,250.19-165.45l3.03,1.28Z"/>
        <path class="cls-3" d="M974.63,81.07c-138.71,55.76-273.98,131.84-402.2,222.38l-3-1.42c32.34-22.65,64.83-44.34,97.42-65.07,32.95-20.74,66.49-40.45,99.83-59.12,33.1-18.72,67.64-36.18,101.74-52.56,17.09-8.19,34.18-16.1,51.27-23.73,17.03-7.65,34.79-14.8,52.14-21.77l2.8,1.28Z"/>
        <path class="cls-3" d="M1002.12,96.08c-72.98,26.18-146.97,56.58-218.07,91.5-17.92,8.7-35.82,17.64-53.69,26.83l-26.8,13.97-26.35,14.35c-35.08,19.36-70.06,39.63-104.9,60.81l-2.74-1.59c34.84-21.17,69.83-41.42,104.91-60.76,17.42-9.67,35.33-19.11,53.22-28.29,17.88-9.18,35.78-18.12,53.69-26.8,17.92-8.69,35.85-17.12,53.8-25.31,17.88-8.21,36.43-16.02,54.62-23.64,36.56-15.2,73.15-29.34,109.72-42.41l2.6,1.34Z"/>
        <path class="cls-3" d="M1009.42,105.25c-37.21,12.56-74.43,26.13-111.6,40.71-18.72,7.26-36.82,14.91-55.14,22.74-18.27,7.84-36.53,15.91-54.78,24.22-73.44,33.22-144.46,70.31-215.66,110.66l-2.62-1.67c71.14-40.31,142.32-77.35,215.75-110.52,18.24-8.3,36.5-16.36,54.78-24.18,18.24-7.83,36.52-15.43,55.22-22.68,37.17-14.55,74.39-28.1,111.59-40.63l2.46,1.36Z"/>
        <path class="cls-3" d="M1024.7,105.17c-38.49,12.46-76.99,25.95-115.45,40.48-19.37,7.23-38.06,14.89-57.04,22.7-18.91,7.83-37.82,15.9-56.7,24.21-76,33.24-149.55,70.46-223.31,111.03l-2.55-1.7c73.69-40.53,147.41-77.69,223.39-110.88,18.88-8.3,37.78-16.36,56.7-24.17,18.91-7.82,37.77-15.41,57.12-22.64,38.46-14.5,76.95-27.97,115.44-40.39l2.39,1.36Z"/>
        <path class="cls-3" d="M1024.07,120.66c-19.24,5.84-38.47,11.91-57.69,18.21l-28.83,9.62-28.43,10.06c-37.9,13.62-75.75,28.09-113.53,43.4-18.88,7.66-37.79,15.52-56.58,23.6-18.61,8.09-37.21,16.38-55.78,24.86-37.14,16.97-74.19,34.71-111.13,53.23l-2.36-1.8c36.94-18.49,73.99-36.21,111.14-53.14,18.59-8.47,37.12-16.75,55.83-24.82,18.85-8.06,37.72-15.91,56.61-23.55,37.78-15.28,75.63-29.71,113.53-43.3,18.85-6.82,38.11-13.33,57.34-19.6,19.22-6.28,38.45-12.34,57.69-18.16l2.19,1.4Z"/>
        <path class="cls-3" d="M1034.97,132.98c-39.61,10.96-78.22,23.07-117.16,35.78-38.87,12.74-77.69,26.25-116.44,40.51-38.95,14.25-76.82,29.35-115.11,45.08-38.18,15.75-76.27,32.2-114.25,49.34l-2.15-1.9c37.99-17.11,76.08-33.53,114.26-49.24,38.22-15.7,76.27-30.76,115.2-44.97,38.75-14.23,77.57-27.7,116.44-40.4,38.87-12.7,77.66-24.71,117.25-35.63l1.95,1.43Z"/>
        <path class="cls-3" d="M1046.81,142.37c-79.96,21.37-159.79,45.53-239.33,72.47-78.95,27.04-157.38,56.7-235.56,88.89l-1.96-1.98c78.23-32.11,156.55-61.71,235.67-88.65,79.55-26.86,159.38-50.94,239.34-72.22l1.84,1.49Z"/>
        <path class="cls-3" d="M1095.76,148.63c-88.08,20.54-176.37,43.72-263.7,69.7-87.06,26.01-173.86,54.5-260.28,85.47l-1.68-2.09c86.44-30.87,173.24-59.27,260.31-85.18,87.51-25.85,175.68-48.94,263.81-69.37l1.54,1.48Z"/>
        <path class="cls-3" d="M932.93,184.9c-30.42,8.54-60.8,17.43-91.15,26.66-30.2,9.27-60.2,18.88-90.26,28.8-60.07,19.85-119.98,40.99-179.71,63.41l-1.77-2.06c59.73-22.35,119.66-43.43,179.73-63.22,30.1-9.88,59.98-19.49,90.35-28.69,30.35-9.2,60.74-18.05,91.16-26.56l1.65,1.65Z"/>
        <path class="cls-3" d="M1119.24,160.29c-184.66,38.73-366.34,87.24-547.6,143.55l-1.41-2.18c181.22-56.11,363.1-104.37,547.75-142.87l1.25,1.5Z"/>
        <path class="cls-3" d="M807.95,242.83c-78.97,19.14-157.79,39.48-236.43,61.04l-1.18-2.25c78.65-21.46,157.49-41.72,236.47-60.76l1.14,1.96Z"/>
        <path class="cls-3" d="M1067.98,189.09c-166.08,33.51-331.64,71.78-496.5,114.79l-1.09-2.27c164.89-42.81,330.48-80.88,496.57-114.19l1.02,1.66Z"/>
        <path class="cls-3" d="M1084.28,190.27c-171.5,33.35-342.51,71.23-512.84,113.62l-1.01-2.29c170.36-42.18,341.39-79.85,512.92-112.99l.94,1.66Z"/>
        <path class="cls-3" d="M1100.31,192.03c-176.83,33.11-353.19,70.4-528.92,111.87l-.93-2.31c175.76-41.24,352.15-78.32,529-111.21l.85,1.65Z"/>
        <path class="cls-3" d="M1074.15,217.15c-167.84,27.56-335.49,56.49-502.94,86.79l-.55-2.39c167.48-30.08,335.16-58.8,503.03-86.15l.46,1.75Z"/>
        <path class="cls-3" d="M896.07,251.54c-108.34,17.21-216.65,34.68-324.92,52.41l-.43-2.41c108.29-17.59,216.62-34.93,324.98-52l.37,2Z"/>
        <polygon class="cls-3" points="986.83 239.17 571.13 303.95 570.74 301.54 986.52 237.28 986.83 239.17"/>
        <path class="cls-3" d="M1043.47,237.46l.12,1.84c-157.42,22.19-314.94,43.74-472.55,64.66l-.21-2.44c157.64-20.72,315.19-42.07,472.65-64.06Z"/>
        <path class="cls-3" d="M1024.21,245.8l.09,1.92c-151.09,19.8-302.16,38.62-453.32,56.25l-.1-2.46c151.27-17.43,302.19-36.08,453.32-55.72Z"/>
        <path class="cls-3" d="M1075.31,261.1l-.33,1.92c-83.77,8.61-167.71,16.33-251.79,23.17-84.07,6.82-168.4,12.81-252.42,17.8l.31-2.49c42.08-2.44,84.07-5.13,126.13-8.06,42.12-2.93,84.21-6.08,126.25-9.45,84.1-6.74,168.05-14.37,251.84-22.89Z"/>
        <path class="cls-3" d="M1010.9,274.96l-.47,2.01c-73.04,6.18-146.24,11.52-219.58,16.03-73.3,4.5-146.94,8.22-220.16,10.99l.47-2.5c73.25-2.68,146.73-6.31,220.12-10.74,73.35-4.43,146.56-9.7,219.62-15.79Z"/>
        <path class="cls-3" d="M974.22,307.46l-1,2.13c-67.05,1.45-133.73,1.86-200.97.92-33.58-.46-67.22-1.22-100.91-2.3-33.7-1.08-67.48-2.46-100.96-4.22l1.08-2.49,50.32,2.42,50.57,1.9c33.69,1.11,67.34,1.91,100.92,2.4,67.22.99,134.02.67,200.93-.76Z"/>
        <path class="cls-3" d="M895.7,296.17l-.75,2.16c-53.89,2.21-107.9,3.79-162.01,4.74-54.07.94-108.47,1.3-162.39.92l.77-2.5c53.94.44,108.19.15,162.34-.74,54.12-.9,108.14-2.42,162.04-4.58Z"/>
        <path class="cls-3" d="M922.23,331.69l-1.47,2.19c-29.17-1.28-58.52-2.87-87.71-4.71-29.06-1.83-58.19-3.98-87.38-6.45-29.19-2.47-58.43-5.27-87.73-8.38-29.27-3.13-58.78-6.53-87.8-10.37l1.56-2.45c29.04,3.85,58.4,7.3,87.74,10.44,29.3,3.14,58.55,5.96,87.75,8.45,29.19,2.49,58.32,4.67,87.39,6.52,29.05,1.84,58.51,3.47,87.65,4.76Z"/>
        <path class="cls-3" d="M894.04,334.14l-1.54,2.21c-26.81-1.61-53.95-3.52-80.63-5.63-26.73-2.11-53.53-4.51-80.37-7.19-26.84-2.68-53.74-5.65-80.68-8.9-26.92-3.26-54.04-6.77-80.71-10.66l1.64-2.44c26.69,3.91,53.66,7.46,80.64,10.73,26.95,3.27,53.85,6.26,80.69,8.96,53.73,5.42,106.99,9.61,160.95,12.92Z"/>
        <path class="cls-3" d="M783.14,364.98l-2.47,2.18c-17.65-4.51-35.34-9.21-53.07-14.08-17.62-4.87-35.01-9.94-52.58-15.2-17.54-5.26-35.11-10.73-52.72-16.39-17.56-5.67-35.39-11.5-52.66-17.63l2.58-2.22c17.28,6.13,34.98,11.98,52.6,17.65,17.61,5.66,35.19,11.13,52.72,16.4,17.55,5.27,35.02,10.34,52.53,15.21,17.73,4.87,35.42,9.57,53.07,14.09Z"/>
        <path class="cls-3" d="M738.5,360.9l-2.64,2.14c-28.15-8.8-55.47-18.11-83.22-27.98-13.85-4.93-27.72-9.99-41.61-15.2-13.89-5.2-27.89-10.52-41.48-16.05l2.74-2.15c13.6,5.53,27.48,10.86,41.42,16.06,13.89,5.2,27.76,10.26,41.61,15.2,27.8,9.86,55.01,19.17,83.17,27.97Z"/>
        <path class="cls-3" d="M706.27,362.28l-2.91,2.06c-11.38-4.64-22.52-9.37-33.6-14.22-11.12-4.84-22.27-9.79-33.43-14.83-11.16-5.04-22.34-10.19-33.54-15.44-11.21-5.25-22.46-10.58-33.37-16.09l3.01-2.03,16.51,8.14,16.81,7.94c11.2,5.24,22.38,10.38,33.54,15.43,22.43,10.08,44.33,19.77,66.98,29.03Z"/>
        <path class="cls-3" d="M649.33,348.51l-3.26,1.91c-12.79-7.47-25.61-15.09-38.45-22.87-12.76-7.8-25.92-15.69-38.34-23.87l3.32-1.86c12.43,8.17,25.49,16.07,38.29,23.85,12.84,7.77,25.66,15.39,38.45,22.84Z"/>
        <path class="cls-3" d="M843.2,339.86l-1.74,2.24c-45.55-4.65-90.29-10.02-135.58-16.37-22.61-3.17-45.26-6.56-67.95-10.19-22.68-3.63-45.5-7.45-67.91-11.59l1.85-2.41,33.79,6.02,34.06,5.63c22.69,3.64,45.34,7.05,67.96,10.23,22.61,3.18,45.18,6.14,67.71,8.87l33.78,3.93,34.04,3.65Z"/>
      </g>
      <path class="cls-1" d="M1113.02,46.62c.5,41.79,2.7,84.96,7.78,130.11,1.34,11.33,3.16,22.93,4.63,34.39.81,5.77,1.42,11.45,2.36,17.3l3.07,17.71,3,17.73c.97,5.9,1.9,11.79,3.25,17.91l7.34,36.4L65.53,547.76l-11.98-59.41c-2.06-9.81-3.78-20-5.52-30.16l-5.2-30.45-5.12-30.46c-1.62-10.23-2.94-20.73-4.41-31.09-2.79-20.83-5.79-41.47-8.25-62.49C15.42,219.34,10.31,132.28,9.95,43.75l1103.08,2.87Z"/>
    </g>
  </g>
  <g>
    <path class="cls-1" d="M46.71,691.89c25.03,22.01,49.68,44.45,74.54,66.66l74.02,67.24-485.51,529.85-69.8-63.4c-23.45-20.94-46.68-42.11-70.29-62.86L46.71,691.89Z"/>
    <path class="cls-1" d="M-480.58,248.97C-300.84,391.78-124.99,539.49,46.71,691.89l-477.05,537.48c-161.91-143.72-327.76-283.02-497.27-417.7L-480.58,248.97Z"/>
  </g>
  <path class="cls-1" d="M343.62,1156.81c-42.05,66.12-80.75,134.08-115.2,203.95-8.6,17.46-16.58,35.2-24.8,52.83-4.05,8.84-8.18,17.65-12.13,26.53l-11.28,26.86-11.19,26.9c-3.68,8.99-7.54,17.91-10.83,27.03l-20.29,54.55,924.44,329.52,10.58-28.48c1.61-4.81,3.76-9.39,5.68-14.06l5.85-13.98,5.76-14.02,6.39-13.7c4.33-9.09,8.31-18.37,12.76-27.39,17.85-36.06,37.79-70.74,58.91-104.42l-824.64-532.11Z"/>
</svg>