<?xml version="1.0" encoding="UTF-8"?>
<svg id="_레이어_1" data-name="레이어_1" xmlns="http://www.w3.org/2000/svg" viewBox="0 0 1200 1200">
  <defs>
    <style>
      .cls-1 {
        fill: none;
      }

      .cls-2 {
        fill: #815239;
      }

      .cls-3 {
        fill: #fff;
      }
    </style>
  </defs>
  <g>
    <polygon class="cls-1" points="109.47 431.94 226.38 518 -399.51 1365.37 -512.34 1282.31 109.47 431.94"/>
    <path class="cls-1" d="M-313.45,141.89c26.82,18,59.24,38.62,96.57,62.83,18.78,12.22,38.32,25.03,57.06,37.6l28.2,18.96,27.89,19c73.98,50.72,144.79,101.65,213.19,151.67l-621.8,850.37c-63.76-46.63-125.93-91.27-187.01-133.13l-22.85-15.57-22.75-15.3c-15.26-10.23-29.96-19.86-45.48-29.97-31.33-20.36-68.05-43.62-109.24-71.18L-313.45,141.89Z"/>
  </g>
  <g>
    <rect class="cls-1" x="331.49" y="-232.54" width="1076.32" height="136.36" transform="translate(172.71 381.14) rotate(-27.35)"/>
    <path class="cls-1" d="M1097.59-894.02c19.94,37.58,38.76,73.91,56.91,108.98l53.96,104.34,107.86,208.55L360.32,22.31l-107.86-208.55-53.9-104.21c-17.82-34.44-35.01-67.59-51.76-99.14l950.79-504.42Z"/>
  </g>
  <g>
    <g>
      <path class="cls-2" d="M570.83,1036.73c5.09,17.2,11.28,34.19,18.59,50.67,7.42,16.37,16.44,32.28,28.87,45.39,3.86,4.07,12.13,3.9,17.9.17,5.72-3.72,6.29-12.5,2.66-16.24-9.14-14.54-19.46-24.06-26.43-39.41-6.85-15.44-12.66-31.35-17.49-47.68-3.54-11.77-11.35-20.22-18.12-18.61-6.73,1.6-9.74,13.17-5.98,25.71Z"/>
      <path class="cls-1" d="M959.04,919c.78,3.37,1.45,5.54,1.83,6.74.08.42.19.46.24.7.05.27.1.27.12.33,0,.03,0,.09,0,.09,0-.04,0-.08-.01-.11-.04-.08-.09-.13-.07-.11h0s-655.87,427.17-655.87,427.17c-13.84-18.39-26.92-38.39-38.62-59.14-11.72-20.78-22.14-42.34-31.38-64.36-2.31-5.48-4.55-11.09-6.75-16.73l-3.28-8.45-3.07-8.33c-2.02-5.55-4.05-11.15-5.85-16.56-1.82-5.43-3.74-11.01-5.37-16.31-6.85-21.57-12.54-42.45-17.26-62.32l765.36-182.59Z"/>
    </g>
    <g>
      <path class="cls-3" d="M573.28,524.85c-9.17,35.05-15.99,70.63-20.73,106.45-4.69,35.83-7.22,71.87-7.99,107.91-1.49,72.11,4.06,144.06,15.13,215.13,1.47,15.98,3.33,31.97,5.87,47.95,2.39,10.11,20.15,5.65,17.85-4.02-9.4-30.63-16.49-62.35-22.57-94.29-7.37-62.77-10.35-126.14-7.5-189.38,2.85-63.21,11.59-126.31,27.64-187.69.42-1.61-.96-3.38-3.08-3.95-2.12-.57-4.18.28-4.61,1.91Z"/>
      <path class="cls-1" d="M963.28,627.4l-2.03,7.44c-.72,2.45-1.23,5.22-1.89,7.81-1.37,5.18-2.39,10.66-3.56,16.07-.65,2.66-1.04,5.52-1.56,8.29-.48,2.81-1.07,5.54-1.51,8.39-.77,5.79-1.89,11.37-2.5,17.35l-1.14,8.84-.88,9.08c-.74,5.97-.97,12.32-1.54,18.47-.69,12.6-1.33,25.38-1.31,38.67-.2,13.16.28,26.82.79,40.59.8,13.91,1.59,27.93,3.1,42.35.58,7.13,1.55,14.46,2.31,21.71.84,7.23,1.75,14.16,2.62,20.03.88,5.9,1.74,11.13,2.56,15.6.83,4.36,1.62,8,2.29,10.91l-765.36,182.59c-4.06-17.1-7.5-33.6-10.47-49.45-2.92-15.75-5.37-30.82-7.5-45.27-2.13-14.49-3.87-27.95-5.43-41.15-1.47-13.19-3.06-26.28-4.25-39.64-2.67-26.5-4.43-53.55-5.84-80.71-1.15-27.33-1.94-54.8-1.64-82.78.07-27.85,1.23-56.18,2.96-84.64,1.11-14.34,1.97-28.55,3.53-43.02l2.2-21.62,2.71-21.77c1.71-14.46,4.16-29.15,6.37-43.71,1.17-7.3,2.56-14.66,3.87-21.98,1.35-7.34,2.6-14.64,4.19-22.01,3.04-14.72,6.08-29.41,9.74-44.18,1.81-7.4,3.45-14.69,5.47-22.15l6.05-22.34,757.68,212.24Z"/>
    </g>
    <g>
      <g>
        <path class="cls-3" d="M622.76,401.13c-19.58,31.96-36.87,65.67-51.8,100.68l-2.83-1.06c14.97-35.14,32.33-68.98,51.98-101.08l2.64,1.46Z"/>
        <path class="cls-3" d="M622.72,401.19c-18.83,25.77-36.07,53.13-51.73,81.72l-2.73-1.25c15.71-28.7,33.02-56.17,51.9-82.05l2.57,1.58Z"/>
        <path class="cls-3" d="M622.65,401.29c-20.7,21.64-40.29,45-58.76,69.81l-2.58-1.5c18.52-24.9,38.19-48.33,58.92-70.07l2.42,1.77Z"/>
        <path class="cls-3" d="M622.41,401.47c-25.38,14.23-50.47,30.4-75.1,48.38l-2.08-2c24.62-18.05,49.87-34.22,75.24-48.52l1.94,2.14Z"/>
        <path class="cls-3" d="M622.29,401.53c-33.85,14.08-67.4,31.31-100.41,51.38l-1.89-2.17c33.07-20.11,66.74-37.33,100.59-51.46l1.71,2.26Z"/>
        <path class="cls-3" d="M622.16,401.58c-34.19,9.89-68.5,22.56-102.62,37.88l-1.56-2.34c34.07-15.34,68.59-27.96,102.74-37.88l1.44,2.35Z"/>
        <path class="cls-3" d="M621.84,401.63c-54.33,2.9-109.48,10.97-164.89,23.89l-.92-2.69c55.46-12.85,110.74-20.8,165.02-23.65l.79,2.46Z"/>
        <path class="cls-3" d="M621.74,401.63c-26.38-.05-53.49.8-80.28,2.93-13.43,1.05-27.14,2.29-40.6,3.89-13.49,1.59-27.06,3.43-40.71,5.53l-.65-2.74c13.65-2.07,27.22-3.9,40.7-5.47,13.58-1.54,27.19-2.79,40.64-3.81,6.73-.51,13.44-.95,20.12-1.34,6.74-.36,13.5-.64,20.21-.87,13.43-.45,26.74-.65,39.97-.59l.6,2.46Z"/>
        <path class="cls-3" d="M621.78,401.63c-93.68,1.49-190.45,17.2-286.34,46.34l-.89-2.92c96.09-28.98,192.82-44.56,286.56-45.89l.66,2.46Z"/>
        <path class="cls-3" d="M621.45,401.61c-104.79-18.1-212.93-24.77-322.62-20.56v-3.2c109.71-3.96,217.94,3.01,322.6,21.35l.02,2.41Z"/>
        <path class="cls-3" d="M621.33,401.58c-112.44-27.44-228.54-44.84-346.58-52.41l.4-3.29c117.89,7.84,234.17,25.61,346.41,53.34l-.23,2.36Z"/>
        <path class="cls-3" d="M621.21,401.55c-50.38-15.75-101.41-30.12-153.02-43.1-51.46-12.93-103.36-24.44-155.85-34.58l.73-3.18c52.47,10.29,104.22,21.92,155.76,35.03,51.56,13.12,102.5,27.63,152.84,43.53l-.47,2.29Z"/>
        <path class="cls-3" d="M621.15,401.53c-103.32-35.99-209.02-67.46-315.76-94.19l.88-3.19c26.7,6.77,53.28,13.82,79.75,21.16,26.53,7.35,52.99,15,79.31,22.93,52.64,15.87,104.77,32.88,156.4,51.03l-.59,2.25Z"/>
        <path class="cls-3" d="M622.02,399.4l-1.16,2c-113.52-60.95-225.24-125.23-335.31-192.92l1.77-3.07c109.85,68.04,221.47,132.72,334.7,193.99Z"/>
        <path class="cls-3" d="M622.09,399.44l-1.3,1.92c-45.15-26.68-89.64-54.27-133.74-82.87-44.02-28.58-87.79-58.18-130.59-88.66l1.89-2.75c42.73,30.63,86.26,60.33,130.27,89.07,44,28.74,88.5,56.51,133.47,83.29Z"/>
        <path class="cls-3" d="M622.12,399.46l-1.34,1.89c-46.48-28.35-92.2-57.83-137.41-88.55-22.58-15.35-45.05-31.01-67.29-46.95-22.18-15.92-44.19-32.15-66.04-48.68l1.96-2.74c87.03,66.34,177.59,128.12,270.13,185.02Z"/>
        <path class="cls-3" d="M622.23,399.53l-1.57,1.75c-97.97-69.43-191.23-148.04-277.01-235.56l2.32-2.6c21.45,21.97,43.25,43.36,65.46,64.18,22.36,20.85,45.07,41.13,68.1,60.83,11.52,9.85,23.12,19.55,34.8,29.1,11.76,9.58,23.61,19.02,35.52,28.31,23.83,18.59,47.97,36.59,72.38,54Z"/>
        <path class="cls-3" d="M622.19,399.51l-1.5,1.79c-48.38-32.85-95.71-67.65-141.92-104.4-45.9-36.66-91.05-75.38-134.4-115.92l2.24-2.64c10.81,10.18,21.71,20.23,32.67,30.16,11.04,9.94,22.17,19.77,33.36,29.47,22.39,19.4,45.06,38.32,68.01,56.73,45.95,36.84,93.39,71.87,141.55,104.81Z"/>
        <path class="cls-3" d="M622.34,399.62l-1.79,1.58c-98.75-81.78-188.72-177.59-265.45-287.36l2.64-2.34c76.38,110.01,166.06,206.08,264.6,288.12Z"/>
        <path class="cls-3" d="M622.38,399.65l-1.87,1.5c-95.72-84.19-181.43-183.54-251.98-297.95l2.79-2.18c70.16,114.63,155.68,214.26,251.07,298.63Z"/>
        <path class="cls-3" d="M622.41,399.68l-1.93,1.45c-93.9-86.11-177.04-188.32-243.44-306.37l2.83-2.09c66.02,118.25,148.96,220.72,242.54,307.01Z"/>
        <path class="cls-3" d="M622.45,399.72l-2.01,1.38c-90.83-88.51-169.98-194.31-230.11-316.82l2.96-1.93c7.31,15.29,15.32,30.43,23.3,45.22,8.09,14.83,16.18,29.31,24.91,43.63,17.38,28.63,35.36,56.05,54.8,82.58,38.31,52.84,81.04,101.66,126.15,145.94Z"/>
        <path class="cls-3" d="M622.48,399.75l-2.08,1.3c-80.63-83.61-150.4-182.7-202.75-296.69l2.94-1.73c51.86,114.07,121.58,213.4,201.89,297.12Z"/>
        <path class="cls-3" d="M622.59,399.88l-2.3,1.06c-39-49.27-73.84-103.78-103.01-163.4-29.12-59.59-52.74-124.38-68.48-193.64l3.15-1.27c15.65,69.32,39.05,134.12,68.02,193.74,29.02,59.65,63.72,114.19,102.62,163.51Z"/>
        <path class="cls-3" d="M622.62,399.92l-2.36.97c-34.93-47.4-65.92-99.57-91.56-156.37-25.58-56.77-46.01-118.28-59.03-183.8l3.12-1.08c12.95,65.56,33.16,127.05,58.62,183.84,25.5,56.82,56.36,109.01,91.2,156.44Z"/>
        <path class="cls-3" d="M622.71,400.05l-2.54.7c-27.97-47.94-51.61-100.42-69.33-157.19-17.71-56.75-29.48-117.82-33.42-182.45l3.15-.53c3.81,64.58,15.46,125.62,33.07,182.34,17.62,56.74,41.17,109.2,69.07,157.13Z"/>
        <path class="cls-3" d="M622.79,400.2l-2.69.41c-19.14-44.15-34.41-91.73-44.53-142.45-10.11-50.71-15.04-104.6-13.29-160.95l3.06-.03c-1.83,56.27,3.04,110.09,13.09,160.74,10.06,50.67,25.27,98.19,44.36,142.29Z"/>
        <path class="cls-3" d="M622.81,400.26l-2.74.28c-26.29-70.57-43.02-149.76-43.72-235.42l2.98.08c.58,85.5,17.31,164.61,43.48,235.05Z"/>
        <path class="cls-3" d="M622.86,400.45l-2.85-.09c-16.1-80.99-18.43-170.77,1.34-265.23l2.91.74c-19.77,94.21-17.42,183.8-1.4,264.57Z"/>
        <path class="cls-3" d="M622.89,400.62l-2.9-.43c-1.7-51.38,1.96-105.24,13.58-160.13l2.82.93c-11.57,54.72-15.21,108.41-13.5,159.63Z"/>
        <path class="cls-3" d="M622.88,400.75l-2.89-.69c7.53-76.83,28.15-156.57,67.06-234.08l2.56,1.54c-38.75,77.22-59.24,156.69-66.74,233.23Z"/>
        <path class="cls-3" d="M622.85,400.92l-2.83-1.03c7.84-26.34,17.2-52.49,28.2-78.26,2.85-6.39,5.51-12.92,8.57-19.25l9.21-19.08,9.96-18.81c3.29-6.34,7.07-12.36,10.62-18.59l2.51,1.67c-3.53,6.2-7.28,12.21-10.57,18.51l-9.92,18.73-9.16,19c-3.06,6.3-5.69,12.81-8.53,19.17-10.96,25.66-20.27,51.71-28.07,77.94Z"/>
        <path class="cls-3" d="M622.82,401.01l-2.77-1.22c15.26-36.16,33.5-71.23,54.75-104.65,21.15-33.49,45.89-64.9,73.39-93.98l2.16,2.12c-27.35,28.94-51.97,60.2-73.03,93.53-21.15,33.27-39.31,68.2-54.5,104.2Z"/>
        <path class="cls-3" d="M730.78,279.04c-20.19,17.42-39.26,36.58-57.26,57.04-18.02,20.45-34.97,42.22-50.79,65.09l-2.6-1.54c15.87-22.97,32.9-44.83,50.99-65.38,18.08-20.55,37.22-39.82,57.5-57.33l2.15,2.11Z"/>
        <path class="cls-3" d="M792.26,272.31c-60.38,29.72-118.53,74.02-169.61,128.96l-2.43-1.75c51.27-55.15,109.6-99.69,170.26-129.61l1.78,2.39Z"/>
        <path class="cls-3" d="M836.94,306.73c-70.8,12.25-145.26,45.25-214.43,94.67l-2.14-2.01c69.41-49.56,144-82.78,215.11-95.12l1.46,2.46Z"/>
        <path class="cls-3" d="M869.9,343.34c-77.46-3.72-164.13,16.77-247.54,58.15l-1.85-2.19c41.87-20.68,84.41-36.25,126.28-46.13,41.86-9.89,83.04-14.04,121.83-12.27l1.27,2.43Z"/>
        <path class="cls-3" d="M936.61,402.4c-91.73-33.06-203.01-32.02-314.46-.82l-1.42-2.36c111.7-31.12,223-32.22,314.89.98l.99,2.19Z"/>
        <path class="cls-3" d="M846,395.69c-8.76-1.44-17.69-2.74-26.73-3.85-8.9-.97-17.94-1.77-27.11-2.41-9.24-.7-18.32-.98-27.58-1.14-9.2-.12-18.77-.25-28.01.11-37.6,1-75.73,5.59-114.52,13.2l-1.22-2.41c38.82-7.6,77.09-12.09,114.65-13.11,9.34-.29,18.83-.21,28.05-.08l13.79.37c4.61.2,9.25.5,13.83.81,9.18.65,18.17,1.41,27.13,2.44,9.05,1.12,17.96,2.41,26.72,3.85l.99,2.21Z"/>
        <path class="cls-3" d="M953.58,438.47c-48.21-21.54-101.5-35.33-157.49-41.35-56.02-6.05-114.66-4.36-174.1,4.5l-1.08-2.43c59.52-8.79,118.25-10.39,174.29-4.27,56.02,6.1,109.33,19.97,157.52,41.58l.86,1.96Z"/>
        <path class="cls-3" d="M961.43,458.94c-49.82-23.77-104.32-40.36-161.51-49.82-57.2-9.47-117.08-11.84-178.05-7.49l-.84-2.46c61.01-4.27,120.93-1.8,178.15,7.78,57.2,9.56,111.7,26.28,161.49,50.16l.77,1.83Z"/>
        <path class="cls-3" d="M961.31,466.47c-100.72-48.32-217.82-69.12-339.5-64.83l-.73-2.46c121.74-4.12,238.94,17.04,339.5,65.5l.74,1.8Z"/>
        <path class="cls-3" d="M969.47,473.69c-102.95-51.35-222.83-74.52-347.69-72.05l-.68-2.46c124.91-2.28,244.88,21.26,347.65,72.77l.72,1.75Z"/>
        <path class="cls-3" d="M962.72,480.34c-51.26-24.74-106.07-43.54-163.42-56.7-57.22-13.03-116.67-20.25-177.6-22.01l-.52-2.46c60.92,1.86,120.49,9.29,177.59,22.38,57.32,13.27,112.18,32.33,163.31,57.1l.63,1.69Z"/>
        <path class="cls-3" d="M963.74,491.2c-13.11-6.43-26.21-12.24-39.62-17.92-13.36-5.62-27.07-11.1-40.76-16.05-27.34-9.87-55.71-18.83-84.23-26.13-57.49-14.99-116.64-24.56-177.52-29.46l-.35-2.45c15.25,1.27,30.37,2.83,45.35,4.67,7.49.92,14.94,1.91,22.35,2.97,7.49,1.11,14.95,2.29,22.36,3.54,14.83,2.5,29.5,5.29,44,8.35,14.64,3.16,29.14,6.63,43.43,10.36,7.15,1.87,14.26,3.81,21.31,5.81,7.11,2.05,14.21,4.21,21.24,6.42,14.07,4.42,27.94,9.13,41.6,14.1,13.77,5.09,27.38,10.52,40.74,16.18,6.68,2.84,13.31,5.74,19.88,8.71,6.59,3,13.2,6.16,19.7,9.34l.5,1.56Z"/>
        <path class="cls-3" d="M966.62,501c-106.09-51.68-223.2-84.59-345.07-99.38l-.2-2.44c121.94,15.13,238.89,48.31,344.84,100.31l.43,1.5Z"/>
        <path class="cls-3" d="M991.54,525.2c-114.78-58.83-239.83-99.77-370.1-123.59l.02-2.4c130.27,24.19,255.21,65.52,369.79,124.71l.3,1.28Z"/>
        <path class="cls-3" d="M884.69,473.11c-83.74-32.85-172.09-56.61-263.22-71.49l-.05-2.42c91.1,15.11,179.43,39.14,263.08,72.26l.19,1.65Z"/>
        <path class="cls-3" d="M1000.7,540.36c-119.27-60.84-246.84-106.97-379.36-138.78l.22-2.36c132.43,32.18,259.89,78.71,378.96,139.96l.18,1.18Z"/>
        <path class="cls-3" d="M787.1,456.2c-54.33-20.21-109.69-38.44-165.85-54.64l.39-2.32c56.23,16.43,111.34,34.71,165.73,55.17l-.27,1.78Z"/>
        <path class="cls-3" d="M960.59,532.55c-54.59-25.79-110.27-49.64-166.99-71.54-56.47-21.73-114.07-41.61-172.38-59.45l.45-2.3c58.37,18.07,115.73,38.02,172.24,60,56.68,22.12,112.16,46.02,166.76,72.1l-.08,1.19Z"/>
        <path class="cls-3" d="M969.65,539.78c-56.16-26.76-113.53-51.81-171.64-74.84-58-22.96-117.07-44.15-176.81-63.4l.5-2.28c59.77,19.47,118.67,40.8,176.61,63.94,58.14,23.29,115.32,48.44,171.4,75.39l-.06,1.19Z"/>
        <path class="cls-3" d="M978.39,547.13c-115.8-55.6-234.99-104-357.23-145.59l.56-2.26c61.1,21,121.4,43.71,180.81,68.09,59.46,24.42,118.27,50.74,175.96,78.63l-.1,1.13Z"/>
        <path class="cls-3" d="M953.77,549.2c-109.81-51.47-220.84-100.76-332.74-147.72l.82-2.16c111.84,47.35,222.63,96.96,332.28,148.78l-.36,1.1Z"/>
        <path class="cls-3" d="M834.82,498.34c-71.1-32.73-142.39-65.03-213.82-96.87l.9-2.13c71.39,32.1,142.58,64.62,213.56,97.58l-.63,1.43Z"/>
        <path class="cls-3" d="M893.53,527.01c-90.69-42.27-181.53-84.1-272.54-125.55l.93-2.12c90.92,41.75,181.65,83.9,272.19,126.45l-.57,1.22Z"/>
        <path class="cls-3" d="M928.06,548.26l-.58,1.1c-102.66-48.27-204.85-97.58-306.55-147.92l1.04-2.06c101.53,50.65,203.59,100.29,306.1,148.89Z"/>
        <path class="cls-3" d="M913.4,545.51l-.68,1.1c-98.11-46.53-195.4-94.93-291.83-145.19l1.11-2.02c96.25,50.55,193.43,99.28,291.4,146.11Z"/>
        <path class="cls-3" d="M938.68,573.03l-.89.92c-54.2-25.66-107.88-52.95-160.78-81.73-52.77-28.71-104.88-59.01-156.26-90.88l1.37-1.88c51.27,32.02,103.33,62.5,156.03,91.37,52.71,28.87,106.42,56.38,160.53,82.19Z"/>
        <path class="cls-3" d="M894.39,557.27l-1.05,1.01c-46.72-23.25-92.9-48-138.48-74.21-45.38-26.1-90.1-53.68-134.15-82.75l1.46-1.82c43.96,29.19,88.65,56.93,133.94,83.16,45.41,26.3,91.62,51.23,138.27,74.61Z"/>
        <path class="cls-3" d="M860.15,563.88l-1.38.98c-83.54-46.23-163.58-100.82-238.23-163.68l1.81-1.55c74.57,63.09,154.36,117.83,237.8,164.25Z"/>
        <path class="cls-3" d="M816.38,527.28l-1.32,1.14c-33.42-19.02-66.4-39.15-98.93-60.4-32.37-21.16-64.16-43.4-95.5-66.78l1.64-1.69c31.25,23.46,63.06,45.83,95.33,67.05,32.43,21.31,65.43,41.58,98.79,60.67Z"/>
        <path class="cls-3" d="M819.18,560.84l-1.73.93c-70.34-45.17-136.75-98.78-197.04-160.71l2.07-1.31c60.22,62.09,126.45,115.79,196.7,161.1Z"/>
        <path class="cls-3" d="M800.89,552.33l-1.79.94c-63.79-43.34-124.02-94.13-178.72-152.23l2.11-1.27c54.65,58.25,114.68,109.11,178.39,152.56Z"/>
        <path class="cls-3" d="M720.75,533.6l-2.35.72c-36.46-39.67-69.64-84.24-98.23-133.57l2.55-.69c28.51,49.31,61.63,93.88,98.03,133.54Z"/>
        <path class="cls-3" d="M695.13,513.79l-2.48.63c-26.88-34.66-51.39-72.65-72.52-113.74l2.61-.57c21.15,41.1,45.54,79.03,72.39,113.67Z"/>
        <path class="cls-3" d="M674.96,502.51l-2.62.48c-19.63-31.77-37.32-65.97-52.26-102.41l2.71-.36c14.98,36.42,32.56,70.54,52.16,102.28Z"/>
        <path class="cls-3" d="M646.39,469.28l-2.78.22c-9-22.19-16.72-45.13-23.58-69.05l2.81-.09c3.54,11.99,7,23.6,10.96,35.1,2.01,5.76,4.04,11.45,6.11,17.08,2.01,5.6,4.2,11.19,6.48,16.74Z"/>
        <path class="cls-3" d="M767.48,537.66l-1.94.94c-51.95-40.04-100.87-85.96-145.21-137.61l2.22-1.16c44.31,51.76,93.05,97.72,144.93,137.83Z"/>
      </g>
      <path class="cls-1" d="M1036.9,495.1c-13.81,13.03-28.07,30.77-41.02,53.34-12.94,22.47-24.37,49.59-32.6,78.96L205.61,415.17c24.83-88.4,60.16-175.36,108.19-258.99,47.97-83.48,109.09-163.77,184.45-234.63l538.66,573.55Z"/>
    </g>
  </g>
</svg>