<?xml version="1.0" encoding="UTF-8"?>
<svg id="_레이어_1" data-name="레이어_1" xmlns="http://www.w3.org/2000/svg" viewBox="0 0 1200 1200">
  <defs>
    <style>
      .cls-1 {
        fill: none;
      }

      .cls-2 {
        fill: #815239;
      }

      .cls-3 {
        fill: #fff;
      }
    </style>
  </defs>
  <polygon class="cls-1" points="1274.91 -469.33 1287.2 -435.11 1299.72 -400.55 1325.46 -330.13 289.82 49.66 263.15 -23.32 249.67 -60.52 236.16 -98.13 1274.91 -469.33"/>
  <g>
    <path class="cls-1" d="M46.71-528.11c25.03,22.01,49.68,44.45,74.54,66.66l74.02,67.24L-290.25,135.63l-69.8-63.4c-23.45-20.94-46.68-42.11-70.29-62.86L46.71-528.11Z"/>
    <path class="cls-1" d="M-480.58-971.03C-300.84-828.22-124.99-680.51,46.71-528.11L-430.34,9.36c-161.91-143.72-327.76-283.02-497.27-417.7l447.03-562.69Z"/>
  </g>
  <g>
    <g>
      <path class="cls-2" d="M524.71,1009.59l-.9,50.18c.05,16.73.66,33.46.95,50.19.11,5.18-6.8,9.72-15.44,10.13-8.64.42-15.74-3.55-15.86-8.85-.31-17.09-.93-34.17-.98-51.25l.9-51.23c.26-12.41,8.16-22.14,16.71-21.77,4.32.18,8.09,2.81,10.7,6.89,2.63,4.09,3.93,9.62,3.92,15.69Z"/>
      <polygon class="cls-1" points="20.08 968.11 19.13 990.92 18.92 1013.79 18.68 1059.55 18.66 1070.98 19.01 1082.44 19.74 1105.36 21.41 1151.19 1001.37 1097.91 1000.67 1074.6 1000.23 1062.95 999.98 1057.13 1000.06 1051.27 1000.23 1027.85 1000.22 1016.13 1000.83 1004.38 20.08 968.11"/>
    </g>
    <g>
      <path class="cls-3" d="M609.57,530.04c-23.34,64.44-42.55,130.42-57.48,197.42-14.9,66.99-25.73,135.01-31.26,203.54l-.09,11.48c.04,3.83.22,7.67.33,11.5l.73,22.96c-.56,9.71-23.36,8.83-22.8-1.08l3.55-23.5c.62-3.91,1.11-7.82,1.85-11.72l2.24-11.67,8.93-46.51c7.48-60.72,18.16-120.96,31.95-180.47,14.42-59.37,32.12-117.85,52.71-175.26.58-1.49,3.13-1.96,5.71-1.03,2.58.93,4.2,2.88,3.63,4.36Z"/>
      <path class="cls-1" d="M137.9,355.44C67.93,551.97,27.86,758.52,20.08,968.11l980.74,36.27c3.92-107.83,24.91-216.74,61.51-319.43L137.9,355.44Z"/>
    </g>
    <g>
      <g>
        <path class="cls-3" d="M651.85,410.63c-9.44,34.66-18.29,69.21-25.22,104.11l3.59,1.12c6.9-34.82,15.72-69.29,25.13-103.86l-3.51-1.36Z"/>
        <path class="cls-3" d="M651.84,410.7c-1.52,7.49-2.64,15.14-3.74,22.76l-3.35,22.75-3.29,22.6c-.98,7.55-1.67,15.19-2.51,22.74l3.6,1.03c.83-7.53,1.5-15.16,2.5-22.68l3.27-22.55,3.33-22.7,1.69-11.41c.57-3.81,1.37-7.52,2.04-11.3l-3.54-1.23Z"/>
        <path class="cls-3" d="M651.82,410.82c-.04,3.68-.16,7.32-.14,11.01l.21,11.1.49,22.04c.46,14.67.47,28.98,1.66,43.6l3.6.82-.71-10.9c-.2-3.63-.24-7.21-.37-10.83l-.59-21.78-.51-22-.22-11.08.15-10.98-3.57-1Z"/>
        <path class="cls-3" d="M651.87,411.12l3.73,10.88,4.06,10.93,8.24,21.62c5.54,14.31,11.16,28.4,16.87,42.27l3.47.28c-5.71-13.86-11.34-27.93-16.89-42.22-5.45-14.25-11.25-28.9-16.01-43.36l-3.46-.39Z"/>
        <path class="cls-3" d="M651.93,411.25l6.53,13.44,6.9,13.45c4.62,8.92,9.28,17.75,13.97,26.5,4.69,8.74,9.42,17.4,14.19,25.96l7.17,12.78,7.53,12.77,3.3.02c-5.16-8.51-9.9-16.95-14.66-25.51-4.77-8.56-9.5-17.2-14.19-25.94-4.7-8.74-9.36-17.56-13.98-26.48l-6.9-13.44-6.5-13.42-3.35-.13Z"/>
        <path class="cls-3" d="M652,411.39l7.97,12.66,8.32,12.67c5.57,8.4,11.17,16.72,16.8,24.96,11.27,16.47,22.68,32.61,34.21,48.4l3.16-.2c-11.54-15.79-22.95-31.92-34.22-48.39-11.19-16.43-22.64-33.37-33.04-50.25l-3.2.15Z"/>
        <path class="cls-3" d="M652.24,411.69l16.73,17.35,17.13,17.24c11.46,11.41,22.98,22.66,34.58,33.74,23.26,22.2,46.47,43.61,70.5,64.59l2.57-.7c-23.89-20.95-47.19-42.41-70.41-64.61-11.59-11.09-23.11-22.35-34.57-33.77l-17.09-17.24-16.69-17.35-2.73.74Z"/>
        <path class="cls-3" d="M652.32,411.77l17.3,16.31,17.67,16.22c11.82,10.74,23.7,21.34,35.64,31.8,23.88,20.92,47.99,41.26,72.31,61.02l2.46-.8c-24.32-19.78-48.42-40.15-72.29-61.09-23.81-20.91-47.69-42.53-70.52-64.36l-2.57.9Z"/>
        <path class="cls-3" d="M652.29,411.74c19.74,19.51,40.5,38.94,61.07,57.72,20.65,18.83,41.49,37.19,62.51,55.09,20.86,17.83,42.59,35.49,64.27,52.58,21.71,17.11,43.58,33.75,65.6,49.91l2.43-.69c-22.02-16.18-43.88-32.84-65.59-49.97-10.85-8.56-21.66-17.24-32.43-26.04-10.8-8.81-21.2-17.59-31.75-26.57-21.01-17.92-41.85-36.3-62.49-55.14-20.62-18.83-41.24-38.21-60.98-57.75l-2.63.85Z"/>
        <path class="cls-3" d="M652.59,411.99c26.3,19.04,53.12,37.84,80.11,56.28,26.96,18.42,54.09,36.47,81.37,54.12,54.67,35.36,109.44,68.97,165.87,101.49l1.72-1c-14.04-8.12-28.07-16.35-42.01-24.66-13.86-8.27-27.67-16.63-41.46-25.09-27.57-16.92-54.98-34.23-82.25-51.92-27.27-17.69-54.38-35.77-81.33-54.23-13.47-9.23-26.92-18.56-40.29-27.97-13.27-9.37-26.51-18.83-39.7-28.38l-2.03,1.35Z"/>
        <path class="cls-3" d="M652.72,412.08l45.2,28.77,45.71,28.39c30.55,18.75,61.25,37.17,92.08,55.23,61.67,36.13,123.91,70.88,186.67,104.24l1.49-1.06c-62.73-33.44-124.94-68.27-186.58-104.49-61.58-36.19-122.91-73.9-182.81-112.61l-1.77,1.53Z"/>
        <path class="cls-3" d="M652.85,412.16c56.76,32.71,114.23,64.81,172.03,96.11,57.78,31.29,115.89,61.79,174.33,91.5l1.23-1.23c-58.4-29.79-116.48-60.37-174.23-91.75-28.87-15.69-57.67-31.57-86.36-47.65-28.58-16.03-57.08-32.25-85.49-48.67l-1.51,1.69Z"/>
        <path class="cls-3" d="M652.92,412.2c29.92,16.27,59.92,32.39,89.99,48.34,30.15,15.99,60.39,31.82,90.69,47.49,60.61,31.34,121.49,62.03,182.64,92.07l1.08-1.28c-122.18-60.23-243.57-123.19-363.02-188.39l-1.38,1.77Z"/>
        <path class="cls-3" d="M653.94,410.27l-.67,2.09c149.38,59.3,297.9,120.51,445.53,183.63l.39-1.48c-147.53-63.32-295.96-124.75-445.24-184.25Z"/>
        <path class="cls-3" d="M653.85,410.23l-.48,2.17c122.88,44.37,244.77,90.96,365.6,139.74l.25-1.67c-120.76-48.94-242.57-95.69-365.37-140.23Z"/>
        <path class="cls-3" d="M653.82,410.22l-.42,2.19c128.03,44.72,254.85,92.16,380.36,142.29l.18-1.68c-125.42-50.3-252.16-97.91-380.11-142.8Z"/>
        <path class="cls-3" d="M653.66,410.17l-.11,2.29c71.67,20.91,142.75,43.14,213.19,66.69,70.53,23.6,140.04,48.29,209.69,74.74l-.08-1.73c-69.59-26.52-139.21-51.39-209.63-75.04-70.4-23.64-141.44-45.96-213.07-66.96Z"/>
        <path class="cls-3" d="M653.71,410.18l-.2,2.26c139.1,42.87,276.14,90.23,411.01,142.02l.02-1.7c-134.93-52.05-271.78-99.52-410.83-142.58Z"/>
        <path class="cls-3" d="M653.49,410.12l.23,2.38c77.12,17.69,153.3,37.5,228.44,59.36,37.44,10.86,75.28,22.59,112.51,34.66,37.31,12.11,74.34,24.73,111.09,37.85l-.42-1.85c-73.38-26.3-148.18-50.72-223.53-72.79-75.1-21.95-151.23-41.83-228.32-59.61Z"/>
        <path class="cls-3" d="M653.42,410.11l.37,2.41c76.8,15.75,152.57,33.8,227.19,54.1,75.14,20.56,149.26,43.47,222.05,68.54l-.54-1.91c-72.76-25.16-146.78-48.11-221.96-68.79-74.64-20.41-150.33-38.51-227.11-54.35Z"/>
        <path class="cls-3" d="M653.38,410.1l.46,2.43c76.9,14.49,152.54,31.35,227.25,50.75,75.18,19.64,149.12,41.69,221.7,66.08l-.62-1.95c-72.54-24.46-146.44-46.58-221.57-66.29-74.81-19.54-150.32-36.42-227.21-51.01Z"/>
        <path class="cls-3" d="M653.31,410.09l.59,2.45c38.3,6.28,76.31,13.22,114,20.8,18.85,3.79,37.62,7.75,56.3,11.87l27.97,6.3,28.1,6.67c37.39,9.06,74.45,18.77,111.16,29.11,18.35,5.17,36.62,10.5,54.79,15.99,18.15,5.47,36.24,11.12,54.46,17.07l-.68-1.96c-36.45-11.94-72.49-22.77-109.26-33.19-36.68-10.37-73.72-20.11-111.1-29.21-37.53-9.18-74.66-17.32-112.39-24.98-37.68-7.62-75.67-14.59-113.95-20.91Z"/>
        <path class="cls-3" d="M653.25,410.08l.72,2.47c35.07,4.87,69.87,10.33,104.38,16.37,17.26,3.02,34.45,6.19,51.56,9.51l25.62,5.08,25.76,5.43c34.28,7.39,68.25,15.37,101.91,23.92,16.83,4.28,33.58,8.69,50.24,13.25,16.65,4.55,33.23,9.25,49.96,14.24l-.77-2.05c-33.48-10.02-66.49-18.98-100.22-27.61-33.64-8.58-67.6-16.58-101.86-24.01-34.42-7.5-68.4-14.04-102.96-20.15-34.5-6.08-69.29-11.57-104.34-16.46Z"/>
        <path class="cls-3" d="M653.05,410.06l1.11,2.51c75.37,4.5,148.77,12.08,222.17,23.79,18.25,2.88,36.39,5.95,54.41,9.23,18.02,3.27,35.88,6.72,53.99,10.59,36.04,7.62,71.6,16.05,106.66,25.25l-1.14-2.19c-35.04-9.22-70.59-17.66-106.61-25.31l-27.1-5.58-26.94-5.08c-18.02-3.29-36.15-6.38-54.39-9.26-18.24-2.89-36.6-5.57-55.05-8.05l-27.76-3.57-27.57-3.08c-36.86-3.91-74.13-6.99-111.78-9.25Z"/>
        <path class="cls-3" d="M652.99,410.06l1.24,2.51c70.27,2.2,138.71,7.23,207.28,16.12,17.04,2.17,33.98,4.53,50.81,7.08,16.82,2.54,33.51,5.24,50.45,8.34,33.7,6.09,66.95,12.92,99.74,20.46l-1.24-2.26c-32.78-7.56-66.02-14.4-99.7-20.5l-25.33-4.44-25.16-3.96c-16.83-2.55-33.76-4.92-50.8-7.1-17.04-2.18-34.17-4.18-51.41-5.98l-25.92-2.57-25.72-2.11c-34.38-2.62-69.14-4.49-104.24-5.6Z"/>
        <path class="cls-3" d="M652.79,410.06l1.62,2.51c32.31-1.95,64.28-3.13,95.87-3.57,15.68-.28,31.84-.09,47.66.17,15.87.28,31.64.75,47.31,1.41,15.67.66,31.23,1.48,46.71,2.51,15.72,1.17,31.33,2.52,46.83,4.04,15.5,1.53,30.89,3.24,46.16,5.13,15.31,1.91,30.31,3.87,45.72,6.35l-1.51-2.36c-15.39-2.48-30.51-4.52-45.76-6.4-15.27-1.89-30.66-3.6-46.15-5.13-15.5-1.53-31.11-2.88-46.82-4.05-15.59-1.09-31.06-1.88-46.75-2.55-31.25-1.27-63.26-1.98-95.02-1.62-31.59.44-63.56,1.62-95.87,3.56Z"/>
        <path class="cls-3" d="M652.61,410.08l2,2.47c26.9-4.52,53.52-8.43,79.85-11.74,13.04-1.72,26.63-2.98,39.84-4.24,13.28-1.23,26.47-2.31,39.59-3.24,13.14-.92,26.1-1.75,39.15-2.34,13.21-.5,26.34-.85,39.37-1.05,13.04-.21,25.98-.27,38.84-.19,12.83.07,25.57.27,38.59.86l-1.82-2.47-19.43-.66-19.21-.22c-12.86-.07-25.8,0-38.84.2-13.04.21-26.16.56-39.37,1.06-13.15.54-26.04,1.41-39.2,2.32-26.16,1.91-52.97,4.25-79.49,7.48-26.33,3.32-52.96,7.24-79.85,11.76Z"/>
        <path class="cls-3" d="M652.53,410.09l2.14,2.44c41.41-8.87,81.39-16.62,122.49-21.96,20.36-2.77,40.46-5.19,60.45-7.22,20.37-1.8,40.53-3.25,60.46-4.34l-2.01-2.49c-19.93,1.1-40.09,2.55-60.47,4.37-20.08,1.98-40.13,4.45-60.51,7.22-41.09,5.37-81.18,13.08-122.56,21.99Z"/>
        <path class="cls-3" d="M652.33,410.15l2.55,2.32c20.58-8.07,40.97-15.7,61.15-22.92,20.44-7.09,41.17-13.5,61.39-19.63,20.05-6.23,40.86-11.5,61.19-16.49,20.35-4.97,40.26-9.66,60.84-13.35l-2.31-2.51c-10.1,1.98-20.61,3.85-30.57,6.2-10.05,2.3-20.16,4.7-30.34,7.19-20.3,5.03-41.2,10.27-61.25,16.53-20.25,6.15-40.93,12.61-61.46,19.68-20.19,7.24-40.58,14.89-61.18,22.98Z"/>
        <path class="cls-3" d="M652.17,410.23l2.87,2.16c44.76-27.5,89.68-52.22,135.33-73.63l-2.7-2.36c-45.73,21.46-90.71,46.25-135.5,73.83Z"/>
        <path class="cls-3" d="M652.07,410.31l3.08,2.01c14.65-12.33,29.15-24.43,43.59-36.26,15.01-11.54,29.9-22.84,44.65-33.9,30.26-21.7,60.21-42.35,91.27-60.97l-2.81-2.38c-61.58,37.74-122.34,81.47-179.79,131.5Z"/>
        <path class="cls-3" d="M651.95,410.43l3.31,1.76c15.68-21.16,30.69-42.37,47.36-62.46,8.21-10.11,16.07-20.32,24.46-30.17l25.45-29.18-3.12-2.09-25.49,29.27c-8.42,9.87-16.29,20.12-24.52,30.25-16.7,20.15-31.75,41.4-47.45,62.62Z"/>
        <path class="cls-3" d="M651.9,410.51l3.41,1.6c8.82-16.39,17.29-32.9,26.34-49.09l28.04-48.01,29.86-46.77c10.29-15.35,21.05-30.37,31.51-45.53l-3.14-2.08c-10.49,15.19-21.27,30.26-31.59,45.64l-29.93,46.89-28.11,48.13c-9.07,16.23-17.56,32.79-26.4,49.22Z"/>
        <path class="cls-3" d="M693.86,254.24l-12.25,38.94c-2.13,6.4-3.76,13.05-5.57,19.58l-5.3,19.6c-7.44,25.87-12.98,52.35-18.9,78.32l3.53,1.28c5.89-25.92,11.42-52.33,18.83-78.15l5.28-19.56c1.8-6.52,3.44-13.14,5.56-19.53l12.2-38.85-3.38-1.63Z"/>
        <path class="cls-3" d="M674.65,185.4c-3.37,19.08-6.82,37.83-9.09,56.98l-3.68,28.36c-1.19,9.4-2.46,18.7-3.17,28.23-1.67,18.92-3.23,37.62-4.67,56.12l-2.22,55.72,3.57,1.02c.63-18.32,1.33-36.87,2.18-55.61l4.62-56.01c.7-9.51,1.99-18.77,3.16-28.16l3.65-28.31c2.24-19.12,5.72-37.81,9.05-56.87l-3.41-1.46Z"/>
        <path class="cls-3" d="M619.56,141.57c2.6,93.62,13.43,183.63,32.28,269.43l3.53.63c-18.85-85.65-29.76-175.56-32.37-269.03l-3.44-1.03Z"/>
        <path class="cls-3" d="M565.24,112.75c9.43,52.69,22.15,104.35,36.37,153.98,7.5,25.02,15.3,49.5,23.39,73.43,8.67,24.21,17.67,47.9,26.89,71.02l3.42.28c-38.09-92.92-67.17-192.51-86.65-298.11l-3.42-.6Z"/>
        <path class="cls-3" d="M475.93,46.4c45.81,132.5,105.27,254.61,176.08,365l3.19-.17c-70.74-110.33-130.25-232.43-175.95-364.84h-3.32Z"/>
        <path class="cls-3" d="M504.51,177c43.89,83.26,93.77,161.76,147.56,234.49l3.06-.36c-13.37-18.15-26.57-36.69-39.57-55.62-6.5-9.46-12.96-19.02-19.37-28.68-6.22-9.57-12.38-19.22-18.49-28.98-24.38-38.98-48.41-79.72-70-121.17l-3.19.31Z"/>
        <path class="cls-3" d="M419.57,49.27c16.12,32.91,33.78,65.52,51.78,97.2,18.03,31.7,36.34,62.43,56.14,92.84,19.64,30.32,39.45,59.64,60.24,88.36,21.04,28.83,42.52,56.81,64.39,83.9l2.96-.49c-21.87-27.1-43.34-55.08-64.38-83.92-20.66-28.66-40.57-58.04-60.17-88.35-19.82-30.42-37.99-61.1-56.07-92.83-9-15.84-17.87-31.9-26.6-48.15-8.77-16.28-16.86-32.47-25.1-49.03l-3.2.48Z"/>
        <path class="cls-3" d="M385.9,58.07c39.79,64.97,80.84,126.39,125.83,185.61,11.13,14.75,22.37,29.29,33.72,43.63l17.1,21.35c5.76,7.08,11.71,14.19,17.59,21.2,23.63,28.09,47.66,55.36,72.07,81.79l2.78-.7c-24.4-26.44-48.43-53.73-72.05-81.84-11.92-14.11-23.26-28.2-34.62-42.55-11.34-14.35-22.58-28.9-33.71-43.66-11.13-14.76-22.14-29.72-33.04-44.88-10.93-15.17-21.25-30.31-31.72-45.78-20.81-30.88-41.14-62.55-60.94-95.01l-3.03.81Z"/>
        <path class="cls-3" d="M373.47,67.94c20.98,31.46,42.45,62.18,64.37,92.14,10.86,14.93,22.28,29.89,33.68,44.59,11.42,14.71,22.94,29.24,34.57,43.57,46.11,57.12,95.7,112.01,146.17,163.47l2.69-.79c-25.27-25.77-50.18-52.33-74.7-79.68l-18.32-20.65-17.84-20.79c-11.83-13.95-23.56-28.1-35.18-42.44-11.62-14.34-23.14-28.87-34.55-43.59l-17.03-22.23c-5.62-7.44-11.06-14.86-16.56-22.36-21.91-29.98-43.36-60.71-64.33-92.19l-2.96.96Z"/>
        <path class="cls-3" d="M361.19,62.11c21.96,32.04,44.42,63.31,67.34,93.8,11.35,15.19,23.33,30.43,35.21,45.38,11.92,14.97,23.96,29.74,36.1,44.31,48.15,58.1,99.85,113.87,152.45,166.13l2.64-.84c-26.33-26.17-52.29-53.15-77.86-80.94l-19.1-20.99-18.62-21.14c-12.35-14.19-24.59-28.57-36.72-43.15-12.14-14.58-24.16-29.37-36.08-44.34-11.94-14.99-23.76-30.17-35.12-45.38-22.91-30.51-45.35-61.8-67.29-93.86l-2.93,1.02Z"/>
        <path class="cls-3" d="M350.33,84.21c11.57,14.91,23.24,29.66,35.01,44.23l17.74,21.73,18.19,21.62c24.36,28.66,49.12,56.64,74.25,83.91,12.56,13.64,25.22,27.1,37.96,40.39,12.95,13.38,25.99,26.59,39.12,39.63,26.25,26.07,52.85,51.43,79.76,76.08l2.51-.97c-26.9-24.67-53.48-50.06-79.72-76.15-13.09-13.03-26.22-26.3-39.03-39.63-12.74-13.3-25.39-26.78-37.94-40.43-25.11-27.3-49.85-55.3-74.2-83.99-12.26-14.38-24.06-28.76-35.83-43.35-11.77-14.59-23.43-29.34-34.99-44.27l-2.82,1.21Z"/>
        <path class="cls-3" d="M332.18,98.07c24.67,28.34,50.46,56.42,76.32,83.75,25.91,27.36,52.18,54.09,78.76,80.19,26.42,26.02,53.98,51.79,81.5,76.76,27.59,25,55.48,49.37,83.66,73.09l2.35-1.11c-28.17-23.75-56.05-48.15-83.62-73.19-27.56-25.03-54.96-50.76-81.38-76.82-26.57-26.13-52.82-52.9-78.71-80.28-25.91-27.39-51.53-55.43-76.19-83.81l-2.69,1.4Z"/>
        <path class="cls-3" d="M315.45,107.88c53.41,55.12,108.14,107.99,164.05,158.53,56.37,50.75,114.26,99.36,173.01,145.51l2.21-1.22c-58.69-46.21-116.64-94.93-172.83-145.69-55.87-50.61-110.56-103.55-163.93-158.73l-2.51,1.6Z"/>
        <path class="cls-3" d="M269.81,103.13c61.22,55.82,123.41,109.32,187.22,160.8,64.1,51.61,129.33,100.98,195.57,148.08l2-1.38c-66.21-47.18-131.39-96.64-195.45-148.33-63.62-51.49-125.87-105.13-187.01-161.01l-2.34,1.85Z"/>
        <path class="cls-3" d="M386.88,197.78c21.4,18.94,42.96,37.59,64.66,55.95,21.78,18.4,43.95,36.61,66.12,54.48,44.42,35.76,89.4,70.35,134.91,103.77l2.07-1.33c-45.48-33.47-90.44-68.13-134.82-103.94-22.13-17.88-44.39-36.17-66.01-54.53-21.69-18.39-43.23-37.07-64.61-56.03l-2.31,1.64Z"/>
        <path class="cls-3" d="M241.43,115.19c132.2,106.08,270.33,205.47,411.28,296.88l1.79-1.52c-70.48-45.82-140.1-93.58-208.79-143.23-17.17-12.41-34.28-24.95-51.34-37.6-17.01-12.63-33.83-25.32-50.66-38.17-33.63-25.67-67.01-51.81-100.13-78.43l-2.15,2.06Z"/>
        <path class="cls-3" d="M468.26,297.22c61,39.41,122.52,77.72,184.55,114.92l1.6-1.64c-61.98-37.28-123.47-75.68-184.42-115.18l-1.73,1.9Z"/>
        <path class="cls-3" d="M267.11,170.78c126.49,84.77,255.13,165.26,385.73,241.37l1.54-1.68c-130.51-76.3-259.07-156.97-385.46-241.92l-1.8,2.23Z"/>
        <path class="cls-3" d="M252.19,169.12c131.58,85.12,265.2,166.17,400.68,243.05l1.47-1.71c-135.39-77.08-268.91-158.32-400.4-243.63l-1.75,2.29Z"/>
        <path class="cls-3" d="M237.1,168.57c136.79,85.01,275.44,166.24,415.81,243.62l1.41-1.75c-140.28-77.59-278.83-159.02-415.52-244.22l-1.69,2.35Z"/>
        <path class="cls-3" d="M246.23,210.86c135.03,68.39,270.64,135.53,406.82,201.4l1.1-1.91c-136.09-66.07-271.61-133.4-406.55-201.99l-1.37,2.49Z"/>
        <path class="cls-3" d="M387.81,288.55c88.32,41.49,176.75,82.73,265.29,123.74l1.01-1.95c-88.48-41.13-176.85-82.51-265.12-124.12l-1.18,2.33Z"/>
        <polygon class="cls-3" points="312.89 256.39 653.12 412.3 654.09 410.33 314.08 253.94 312.89 256.39"/>
        <path class="cls-3" d="M262.94,244.95l-1.07,2.59c130.7,54.34,261.14,109.27,391.32,164.79l.82-2.03c-130.1-55.7-260.46-110.82-391.07-165.34Z"/>
        <path class="cls-3" d="M276.33,259.42l-.88,2.63c126.23,48.97,252.26,99.11,377.79,150.3l.73-2.07c-125.4-51.34-251.46-101.71-377.64-150.86Z"/>
        <path class="cls-3" d="M223.87,274.67l-.55,2.8c72.38,20.67,144.4,42.24,216.04,64.71,71.62,22.46,142.85,45.82,214.05,70.23l.39-2.2c-35.53-12.23-71.16-24.24-106.89-36.02-35.63-11.74-71.32-23.24-107.12-34.52-71.6-22.57-143.58-44.23-215.92-65Z"/>
        <path class="cls-3" d="M276.37,300.92l-.38,2.76c63.56,16.41,126.79,33.68,189.66,51.78,62.87,18.11,125.31,37.02,187.82,56.97l.26-2.25c-31.17-9.99-62.48-19.78-93.81-29.33-31.24-9.51-62.57-18.82-93.99-27.91-62.84-18.19-126.03-35.53-189.56-52.03Z"/>
        <path class="cls-3" d="M297.28,347.43l.27,2.83c60.08,7.72,120.13,16.89,179.43,27.23,29.68,5.18,59.22,10.68,88.64,16.5l44.02,8.96c14.69,3.09,29.44,6.29,44.11,9.56l-.27-2.39c-58.89-13.23-117.33-24.76-176.76-35.23-59.3-10.42-119.22-19.61-179.43-27.45Z"/>
        <path class="cls-3" d="M372,342.36l-.05,2.69c47.42,9.94,94.59,20.52,141.49,31.73,46.91,11.22,93.44,23.03,140.18,35.69v-2.32c-23.29-6.32-46.7-12.52-70.08-18.5-23.3-5.95-46.67-11.75-70.11-17.39-46.88-11.27-94.02-21.91-141.43-31.9Z"/>
        <path class="cls-3" d="M337.19,382.35l.74,2.8c26.66.89,52.97,2.03,79.58,3.66,26.63,1.64,53.14,3.6,79.51,5.9,26.38,2.3,52.62,4.92,78.73,7.88,26.1,2.95,52.01,6.2,78.2,9.97l-.7-2.47c-13.03-1.87-26.13-3.67-39.2-5.36-12.98-1.65-25.99-3.22-39.04-4.71-26.1-2.98-52.33-5.62-78.7-7.94-52.74-4.64-106.15-8.01-159.12-9.72Z"/>
        <path class="cls-3" d="M361.85,387.83l.82,2.77c48.77,1.06,98.03,3.64,146.63,7.31,24.31,1.84,48.5,3.97,72.56,6.39,24.05,2.41,47.96,5.1,72.13,8.25l-.77-2.47-36.18-4.47-36-3.87c-24.06-2.44-48.24-4.59-72.54-6.45-48.52-3.69-97.92-6.37-146.66-7.46Z"/>
        <path class="cls-3" d="M453.7,433.87l1.74,2.59c16.66-2.9,33.24-5.59,49.75-8.08,16.74-2.4,33.49-4.56,50.11-6.54,16.64-1.97,33.19-3.74,49.66-5.31,16.48-1.56,32.76-2.97,49.45-3.97l-1.63-2.51c-8.26.53-16.65,1.07-24.87,1.74l-24.64,2.2c-16.47,1.57-33.02,3.33-49.66,5.3-16.63,1.97-33.35,4.14-50.14,6.52-16.57,2.46-33.11,5.17-49.78,8.06Z"/>
        <path class="cls-3" d="M494.08,434.92l1.91,2.54c26.15-5.53,53.22-10.06,79.55-14.25,13.22-2.07,26.39-4.01,39.5-5.8,13.08-1.81,26.13-3.47,39.46-4.85l-1.8-2.49-19.89,2.23-19.62,2.59c-13.11,1.8-26.28,3.73-39.5,5.8-13.22,2.07-26.5,4.28-39.83,6.63l-20.03,3.63-19.75,3.97Z"/>
        <path class="cls-3" d="M522.2,440.65l2.18,2.46c10.68-3.09,21.73-5.92,32.66-8.67,10.93-2.76,21.83-5.41,32.68-7.96,10.85-2.55,21.66-5,32.43-7.34l16.12-3.44,16.36-3.15-2.06-2.46-16.39,3.14-16.14,3.44c-10.77,2.35-21.58,4.8-32.44,7.35-21.62,5.14-43.79,10.54-65.41,16.63Z"/>
        <path class="cls-3" d="M575.38,436.4l2.43,2.35c12.91-4.72,25.76-9.27,38.54-13.67,12.82-4.38,25.34-8.7,38.44-12.57l-2.36-2.38c-13.1,3.88-25.71,8.17-38.5,12.58-12.78,4.4-25.63,8.97-38.55,13.7Z"/>
        <path class="cls-3" d="M405.83,399.68l1.03,2.73,31.03-.08,31.22.39c20.8.39,41.51,1.01,62.13,1.86,20.62.85,41.14,1.93,61.57,3.24,20.4,1.3,40.72,2.84,61.28,4.75l-.95-2.5-30.77-2.66-30.57-2.16c-20.42-1.33-40.94-2.42-61.55-3.29-20.61-.87-41.32-1.5-62.11-1.9l-31.26-.43-31.05.05Z"/>
      </g>
      <path class="cls-1" d="M343.62-63.19c-42.05,66.12-80.75,134.08-115.2,203.95-8.6,17.46-16.58,35.2-24.8,52.83-4.05,8.84-8.18,17.65-12.13,26.53l-11.28,26.86-11.19,26.9c-3.68,8.99-7.54,17.91-10.83,27.03l-20.29,54.55,924.44,329.52,10.58-28.48c1.61-4.81,3.76-9.39,5.68-14.06l5.85-13.98,5.76-14.02,6.39-13.7c4.33-9.09,8.31-18.37,12.76-27.39,17.85-36.06,37.79-70.74,58.91-104.42L343.62-63.19Z"/>
    </g>
  </g>
</svg>