<?xml version="1.0" encoding="UTF-8"?>
<svg id="_레이어_1" data-name="레이어_1" xmlns="http://www.w3.org/2000/svg" viewBox="0 0 1200 1200">
  <defs>
    <style>
      .cls-1 {
        fill: none;
      }

      .cls-2 {
        fill: #815239;
      }

      .cls-3 {
        fill: #fff;
      }
    </style>
  </defs>
  <g>
    <path class="cls-1" d="M1266.71-528.11c25.03,22.01,49.68,44.45,74.54,66.66l74.02,67.24L929.75,135.63l-69.8-63.4c-23.45-20.94-46.68-42.11-70.29-62.86l477.05-537.48Z"/>
    <path class="cls-1" d="M739.42-971.03c179.74,142.81,355.59,290.52,527.29,442.92L789.66,9.36c-161.91-143.72-327.76-283.02-497.27-417.7l447.03-562.69Z"/>
  </g>
  <g>
    <g>
      <path class="cls-2" d="M932.39,855.07l40.63,21.08c13.69,6.74,27.6,13.03,41.39,19.57,4.28,2.01,5.18,9.49,2.02,16.72-3.16,7.23-9.28,11.42-13.66,9.37-14.09-6.68-28.29-13.09-42.26-19.98l-41.48-21.51c-10.03-5.24-14.77-15.64-11.01-22.47,1.9-3.46,5.58-5.47,9.97-5.94,4.41-.5,9.45.69,14.4,3.16Z"/>
      <polygon class="cls-1" points="693.91 1250.48 712.15 1260.5 730.75 1269.95 768.03 1288.69 777.36 1293.34 786.86 1297.71 805.88 1306.4 844 1323.62 1197.79 501.49 1178.47 492.61 1168.77 488.25 1163.91 486.09 1159.16 483.65 1140.09 474.02 1130.52 469.27 1121.17 464.01 693.91 1250.48"/>
    </g>
    <g>
      <path class="cls-3" d="M575.04,591.32c43.18,45.19,89.29,87.64,137.96,127,48.68,39.33,99.86,75.76,153.6,108.06l9.34,4.73c3.15,1.52,6.35,2.93,9.52,4.39l19.05,8.71c7.7,4.39-2.26,22.66-10.13,18.18l-17.76-12.43c-2.94-2.09-5.94-4.08-8.82-6.26l-8.63-6.56-34.37-26.15c-46.57-30.73-91.45-63.87-134.47-99.27-42.65-35.85-83.25-74.02-121.8-114.12-.99-1.08-.33-3.35,1.47-5.08,1.8-1.73,4.06-2.27,5.04-1.2Z"/>
      <path class="cls-1" d="M241.18,905.83c132.18,136.84,284.66,253.32,452.72,344.64l427.26-786.46c-86.49-46.92-166.96-108.22-236-179.76L241.18,905.83Z"/>
    </g>
    <g>
      <g>
        <path class="cls-3" d="M494.65,508.36c24.48,21.76,49.12,43,74.82,62.81l2.37-2.48c-25.65-19.75-50.23-40.94-74.66-62.64l-2.54,2.31Z"/>
        <path class="cls-3" d="M494.69,508.4c5.5,4.28,11.3,8.29,17.07,12.28l17.23,11.96,17.13,11.85c5.77,3.86,11.73,7.52,17.56,11.27l2.3-2.52c-5.81-3.73-11.77-7.37-17.52-11.24l-17.09-11.82-17.2-11.93-8.64-6c-2.88-2.01-5.59-4.17-8.4-6.25l-2.44,2.39Z"/>
        <path class="cls-3" d="M494.78,508.46c2.99,1.53,5.92,3.1,8.94,4.58l9.16,4.33,18.2,8.54c12.17,5.57,23.87,11.36,36.29,16.32l2.12-2.61-9.19-3.84c-3.04-1.31-5.99-2.72-8.99-4.09l-18.03-8.35-18.18-8.51-9.14-4.31-8.91-4.57-2.26,2.51Z"/>
        <path class="cls-3" d="M495.05,508.54l10.4,1.36,10.57,1.11,21,2.03c13.93,1.28,27.72,2.39,41.37,3.36l1.64-2.72c-13.64-.95-27.42-2.06-41.34-3.32-13.85-1.32-28.17-2.53-41.91-4.5l-1.73,2.67Z"/>
        <path class="cls-3" d="M495.18,508.55l13.63.11,13.78-.19c9.16-.16,18.26-.38,27.31-.67,9.04-.29,18.03-.64,26.96-1.06l13.34-.68,13.48-.98,1.35-2.69c-9.05.77-17.86,1.21-26.78,1.64-8.92.42-17.91.78-26.95,1.08-9.04.29-18.14.52-27.3.68l-13.77.19-13.6-.13-1.47,2.69Z"/>
        <path class="cls-3" d="M495.33,508.54l13.57-1.38,13.72-1.66c9.12-1.14,18.19-2.34,27.2-3.61,18.03-2.53,35.83-5.31,53.41-8.32l1.12-2.66c-17.58,3.02-35.38,5.8-53.4,8.33-17.96,2.48-36.44,4.96-54.44,6.62l-1.18,2.68Z"/>
        <path class="cls-3" d="M495.67,508.47l20.96-6.63,21.03-7.01c13.97-4.73,27.83-9.59,41.58-14.56,27.56-10,54.46-20.28,81.34-31.4l.47-2.38c-26.8,11.03-53.78,21.35-81.33,31.32-13.76,4.97-27.63,9.82-41.6,14.55l-21.01,6.97-20.94,6.6-.5,2.53Z"/>
        <path class="cls-3" d="M495.76,508.44l20.34-7.52,20.41-7.86c13.57-5.3,27.05-10.71,40.43-16.22,26.77-11.02,53.16-22.47,79.17-34.33l.34-2.33c-26.02,11.85-52.43,23.28-79.21,34.29-26.74,10.97-54.08,21.71-81.17,31.51l-.3,2.47Z"/>
        <path class="cls-3" d="M495.73,508.45c23.94-8.21,48.23-17.3,71.91-26.48,23.75-9.24,47.2-18.82,70.35-28.73,23.03-9.81,46.26-20.41,69.01-31.18,22.78-10.8,45.24-21.92,67.37-33.35l.42-2.26c-22.15,11.42-44.62,22.53-67.41,33.32-11.4,5.39-22.87,10.71-34.42,15.94-11.58,5.25-22.96,10.19-34.58,15.17-23.15,9.9-46.62,19.47-70.38,28.69-23.74,9.21-47.93,18.19-71.9,26.4l-.37,2.49Z"/>
        <path class="cls-3" d="M496.06,508.31c26.21-13.77,52.45-28.05,78.45-42.62,25.98-14.56,51.72-29.4,77.2-44.52,51.05-30.32,100.71-61.43,150.16-94.35l-.12-1.81c-12.33,8.17-24.74,16.3-37.18,24.32-12.37,7.97-24.81,15.86-37.31,23.69-25,15.66-50.26,31.04-75.76,46.14-25.51,15.1-51.27,29.92-77.27,44.45-13,7.26-26.07,14.47-39.18,21.58-13.03,7.05-26.13,14.02-39.28,20.92l.28,2.21Z"/>
        <path class="cls-3" d="M496.18,508.24l41.83-25.26,41.72-25.83c27.71-17.35,55.19-34.96,82.45-52.83,54.52-35.73,108.14-72.49,160.83-110.23l-.26-1.65c-52.75,37.69-106.43,74.38-161,110.05-54.53,35.63-110.2,70.45-166.11,103.68l.53,2.07Z"/>
        <path class="cls-3" d="M496.3,508.16c49.74-33.1,99.25-67.04,148.26-101.57,48.99-34.51,97.47-69.62,145.43-105.31l-.51-1.5c-48.01,35.63-96.55,70.67-145.59,105.13-24.52,17.22-49.18,34.31-73.94,51.23-24.68,16.85-49.49,33.55-74.42,50.1l.77,1.92Z"/>
        <path class="cls-3" d="M496.36,508.12c25.43-17.85,50.75-35.82,75.97-53.91,25.29-18.15,50.48-36.43,75.57-54.83,50.17-36.8,99.93-74.09,149.26-111.87l-.61-1.4c-98.74,75.39-199.39,149.03-301.08,220.17l.89,1.84Z"/>
        <path class="cls-3" d="M495.2,506.5l1.44,1.4c109-97.99,219.23-194.49,330.64-289.5l-1.05-.91c-111.54,94.84-221.9,191.19-331.03,289.01Z"/>
        <path class="cls-3" d="M495.13,506.57l1.57,1.27c86.07-82.39,173.55-163.07,262.38-242.01l-1.27-.89c-88.94,78.81-176.52,159.36-262.69,241.62Z"/>
        <path class="cls-3" d="M495.11,506.59l1.62,1.23c88.44-86.46,178.61-170.82,270.45-253.02l-1.3-.83c-91.94,82.07-182.22,166.29-270.77,252.62Z"/>
        <path class="cls-3" d="M495,506.7l1.83,1.02c46.14-50.07,93.12-99.12,140.92-147.12,47.87-48.05,96.23-94.82,146.07-140.99l-1.44-.64c-49.88,46.09-98.42,92.89-146.29,140.82-47.85,47.93-94.89,96.9-141.08,146.91Z"/>
        <path class="cls-3" d="M495.03,506.66l1.77,1.08c91.41-96.25,185.66-189,282.66-278.18l-1.38-.71c-97.22,89.12-191.49,181.67-283.04,277.8Z"/>
        <path class="cls-3" d="M494.89,506.82l2.04.78c45.72-55.83,92.78-110.03,141.11-162.54,24.05-26.18,48.97-52.33,73.93-77.86,25.01-25.57,50.34-50.7,75.96-75.4l-1.68-.41c-51.24,49.28-101.51,100.49-150.09,153.09-48.38,52.45-95.49,106.58-141.27,162.34Z"/>
        <path class="cls-3" d="M494.86,506.87l2.12.68c44-56.35,89.47-110.93,136.31-163.66,47.26-53.04,96.03-104.31,146.02-153.6l-1.78-.33c-50.05,49.24-98.81,100.4-146.19,153.43-46.93,52.7-92.41,107.19-136.48,163.49Z"/>
        <path class="cls-3" d="M494.83,506.9l2.17.61c43.02-56.94,87.46-111.9,133.59-165.06,46.53-53.45,94.52-104.91,143.87-154.32l-1.84-.28c-49.39,49.34-97.42,100.74-143.99,154.12-46.3,53.19-90.7,108.02-133.79,164.93Z"/>
        <path class="cls-3" d="M494.79,506.95l2.24.51c20.66-28.74,41.74-56.98,63.22-84.69,10.74-13.86,21.58-27.59,32.52-41.18l16.48-20.3,16.85-20.25c22.56-26.87,45.52-53.21,68.84-79,11.66-12.9,23.42-25.65,35.27-38.28,11.83-12.61,23.78-25.1,36.02-37.57l-1.88-.24c-24.54,24.94-47.99,49.99-71.41,75.79-23.35,25.76-46.32,52.07-68.9,78.91-22.71,26.94-44.42,53.97-65.97,81.69-21.5,27.69-42.6,55.89-63.28,84.61Z"/>
        <path class="cls-3" d="M494.76,507l2.31.42c18.19-26.67,36.76-52.89,55.7-78.63,9.47-12.87,19.03-25.63,28.67-38.26l14.54-18.87,14.88-18.84c19.94-25,40.23-49.53,60.86-73.55,10.32-12.01,20.72-23.9,31.2-35.67,10.47-11.76,21.03-23.39,31.88-35.04l-1.99-.2c-21.76,23.29-42.46,46.62-63.19,70.67-20.65,24-40.95,48.5-60.91,73.48-20.09,25.08-39.2,50.18-58.2,75.94-18.95,25.72-37.54,51.91-55.75,78.56Z"/>
        <path class="cls-3" d="M494.66,507.15l2.5.11c34.23-59.74,70.18-116.63,109.51-171.85,9.75-13.74,19.62-27.31,29.6-40.71,9.98-13.39,20.04-26.59,30.54-39.81,20.84-26.35,42.14-51.99,63.87-76.89l-2.25.04c-21.74,24.89-43.05,50.5-63.9,76.83l-15.54,19.87-15.07,19.95c-9.99,13.39-19.87,26.95-29.62,40.68-9.75,13.73-19.39,27.64-28.9,41.71l-14.17,21.23-13.7,21.27c-18.14,28.53-35.77,57.72-52.88,87.56Z"/>
        <path class="cls-3" d="M494.64,507.2h2.56c30.29-56.51,62.14-110.38,97.21-162.78,8.68-13.04,17.48-25.92,26.38-38.64,8.89-12.71,17.87-25.25,27.27-37.83,18.64-25.06,37.7-49.46,57.15-73.18l-2.34.1c-19.46,23.71-38.53,48.09-57.17,73.13l-13.9,18.9-13.44,18.95c-8.91,12.71-17.71,25.59-26.39,38.62-8.69,13.03-17.27,26.22-25.73,39.57l-12.61,20.14-12.15,20.15c-16.08,27.02-31.7,54.66-46.83,82.89Z"/>
        <path class="cls-3" d="M494.56,507.36l2.71-.31c11.51-27.18,23.5-53.78,35.95-79.77,6.12-12.92,12.84-26.04,19.46-38.86,6.67-12.85,13.45-25.54,20.33-38.08,6.89-12.54,13.87-24.91,20.99-37.14,7.33-12.37,14.76-24.57,22.29-36.62,7.53-12.04,15.17-23.92,22.9-35.63,7.76-11.73,15.45-23.19,23.73-34.77l-2.54.27c-8.26,11.56-16.06,23.09-23.78,34.79-7.73,11.71-15.37,23.58-22.9,35.62-7.53,12.04-14.97,24.24-22.29,36.61-7.21,12.29-14.13,24.61-21.04,37.16-13.71,25.02-27.27,50.88-39.85,76.96-12.45,25.98-24.45,52.58-35.96,79.76Z"/>
        <path class="cls-3" d="M494.5,507.52l2.83-.63c7.22-23.8,14.82-47.14,22.78-69.99,3.88-11.35,8.36-22.96,12.69-34.26,4.38-11.34,8.85-22.56,13.4-33.66,4.57-11.11,9.15-22.03,13.96-32.93,4.95-10.99,9.99-21.86,15.1-32.59,5.12-10.73,10.31-21.33,15.59-31.8,5.26-10.46,10.58-20.78,16.35-31.18l-2.75.49-8.42,15.6-7.97,15.61c-5.27,10.47-10.47,21.07-15.58,31.81-5.11,10.73-10.15,21.6-15.1,32.6-4.89,10.96-9.41,21.84-14,32.97-9.04,22.14-18,44.99-26.12,67.96-7.96,22.86-15.56,46.19-22.77,70Z"/>
        <path class="cls-3" d="M494.48,507.59l2.86-.76c9.55-37.42,19.42-73.23,31.72-108.96,5.99-17.75,12.16-35.16,18.61-52.31,6.78-17.37,13.78-34.42,20.97-51.15l-2.85.63c-7.18,16.73-14.17,33.79-20.95,51.17-6.53,17.21-12.63,34.59-18.64,52.36-12.28,35.74-22.23,71.62-31.73,109.03Z"/>
        <path class="cls-3" d="M494.45,507.77l2.93-1.14c1.76-20.08,3.78-39.84,6.07-59.24,2.5-19.57,5.67-39.11,8.85-58.11,3.04-18.91,7.17-38.04,11.34-56.67,4.19-18.64,8.43-36.8,13.76-55.11l-2.99.87c-2.48,9.05-5.21,18.39-7.33,27.48-2.2,9.14-4.34,18.37-6.42,27.7-4.12,18.62-8.32,37.82-11.33,56.74-3.19,19.03-6.3,38.55-8.85,58.18-2.27,19.42-4.29,39.19-6.03,59.29Z"/>
        <path class="cls-3" d="M494.45,507.94l2.93-1.47c-4.32-47.71-6.3-94.43-5.28-140.41l-3.02,1.25c-1.01,46.06,1.01,92.85,5.37,140.62Z"/>
        <path class="cls-3" d="M494.47,508.05l2.89-1.7c-4.13-16.97-8.14-33.72-11.94-50.31-3.34-16.95-6.53-33.69-9.59-50.22-5.46-33.51-10.18-66.35-12.8-99.28l-3.08,1.33c5.86,65.61,16.96,132.97,34.53,200.18Z"/>
        <path class="cls-3" d="M494.52,508.2l2.78-1.99c-10.93-21.39-22.17-42.25-31.82-64.01-4.93-10.8-10.08-21.37-14.73-32.22l-13.52-32.62-2.97,1.71,13.57,32.69c4.65,10.88,9.83,21.47,14.77,32.29,9.69,21.81,20.94,42.72,31.92,64.15Z"/>
        <path class="cls-3" d="M494.57,508.27l2.69-2.14c-9.81-13.85-19.87-27.47-29.43-41.42l-27.85-42.37-26.1-43.36c-8.36-14.63-16.28-29.51-24.41-44.2l-2.98,1.72c8.16,14.73,16.1,29.64,24.48,44.31l26.17,43.46,27.92,42.48c9.58,13.99,19.66,27.64,29.5,41.52Z"/>
        <path class="cls-3" d="M383.92,410.64l26.84,25.79c4.37,4.33,9.14,8.36,13.74,12.49l13.86,12.28c18.12,16.57,37.5,31.82,56.32,47.19l2.48-2.37c-18.79-15.32-38.12-30.55-56.21-47.06l-13.84-12.24c-4.6-4.11-9.34-8.14-13.7-12.46l-26.79-25.72-2.7,2.1Z"/>
        <path class="cls-3" d="M319.9,398.42c14.22,10.49,28.14,20.91,42.86,30.53l21.67,14.51c7.2,4.79,14.28,9.59,21.77,14.03,14.78,9.03,29.42,17.89,43.95,26.57l44.62,24.4,2.28-2.5c-14.71-7.94-29.58-16.04-44.54-24.33l-43.88-26.49c-7.49-4.42-14.52-9.24-21.73-14l-21.64-14.46c-14.71-9.59-28.57-20-42.79-30.45l-2.58,2.19Z"/>
        <path class="cls-3" d="M261.76,425.65c77.53,35.83,155.46,63.48,233.18,82.87l1.95-2.63c-77.61-19.33-155.48-46.87-232.89-82.64l-2.24,2.39Z"/>
        <path class="cls-3" d="M216.19,458.34c46.87,13.66,94.23,24.21,140.54,32.72,23.48,4.02,46.64,7.57,69.46,10.66,23.29,2.74,46.29,4.99,68.92,6.83l1.62-2.68c-91.35-6.56-184.5-23.18-278.66-50.08l-1.87,2.55Z"/>
        <path class="cls-3" d="M125.78,504.4c126.81,16.3,250.67,17.23,369.56,4.15l1.16-2.67c-118.81,13.06-242.68,12.16-369.37-4.19l-1.35,2.72Z"/>
        <path class="cls-3" d="M244.06,534c85.81-2.1,170.16-11.02,251.38-25.47l.95-2.64c-20.25,3.56-40.74,6.83-61.48,9.78-10.37,1.48-20.8,2.88-31.28,4.2-10.34,1.2-20.72,2.32-31.17,3.36-41.73,4.11-84.75,7.22-127.37,8.05l-1.03,2.73Z"/>
        <path class="cls-3" d="M105.28,551.6c33.42.18,67.22-1.04,100.39-2.89,33.2-1.87,65.73-4.37,98.6-8.22,32.73-3.75,64.72-8.05,96.6-13.39,32.09-5.5,63.64-11.7,94.64-18.58l.8-2.61c-31,6.87-62.56,13.07-94.65,18.57-31.79,5.26-63.86,9.61-96.57,13.33-32.88,3.86-65.31,6.27-98.56,8.16-16.59.93-33.3,1.66-50.12,2.21-16.85.57-33.36.6-50.23.63l-.91,2.81Z"/>
        <path class="cls-3" d="M98.81,582.67c69.2-6.16,136.02-14.8,202.64-27.53,16.56-3.11,33-6.4,49.32-9.86l24.38-5.31c8.12-1.83,16.34-3.81,24.45-5.78,32.53-7.91,64.55-16.49,96.03-25.71l.56-2.55c-31.49,9.21-63.52,17.78-96.06,25.67-16.36,4.02-32.46,7.57-48.8,11.03-16.32,3.45-32.76,6.73-49.33,9.83-16.56,3.11-33.25,6.04-50.05,8.79-16.82,2.77-33.38,5.07-50.26,7.35-33.66,4.48-67.78,8.24-102.32,11.26l-.56,2.8Z"/>
        <path class="cls-3" d="M101.84,596.83c34.21-4.39,68.01-9.47,101.37-15.22,16.6-2.82,33.45-6.08,50.08-9.43,16.65-3.36,33.18-6.89,49.61-10.58,65.36-14.5,130.3-32.76,192.8-53.13l.44-2.52c-31.29,10.19-63.09,19.77-95.38,28.72l-24.3,6.59-24.21,6.14c-16.19,4.01-32.5,7.85-48.93,11.53-16.43,3.68-32.97,7.2-49.62,10.55l-25.06,4.9c-8.36,1.58-16.62,3.01-24.98,4.46-33.37,5.74-67.17,10.8-101.39,15.17l-.42,2.81Z"/>
        <path class="cls-3" d="M92.09,604.5c35.08-4.95,69.73-10.62,103.93-16.98,17.01-3.11,34.32-6.72,51.35-10.36,17.06-3.67,34.01-7.51,50.83-11.52,66.98-15.78,133.51-35.4,197.52-57.18l.39-2.5c-32.05,10.9-64.62,21.17-97.69,30.79l-24.89,7.09-24.82,6.64c-16.59,4.33-33.31,8.5-50.14,12.5-16.83,4-33.79,7.83-50.85,11.49-17.08,3.67-34.28,7.18-51.31,10.29-34.21,6.34-68.87,11.99-103.96,16.92l-.35,2.81Z"/>
        <path class="cls-3" d="M105.74,622.33c16.87-3.4,33.65-6.96,50.33-10.67l24.94-5.68,25.03-6.09c33.29-8.28,66.18-17.16,98.65-26.63,16.23-4.73,32.36-9.61,48.39-14.64,16.18-5.15,32.26-10.45,48.23-15.89,31.94-10.88,63.44-22.32,94.48-34.31l.23-2.44c-31.06,11.97-62.58,23.39-94.53,34.25-15.95,5.41-32.12,10.76-48.2,15.81-16.03,5.01-32.17,9.88-48.41,14.6-32.48,9.44-65.39,18.3-98.69,26.56-16.72,4.18-33.25,7.99-49.94,11.69-16.69,3.7-33.47,7.24-50.35,10.63l-.16,2.79Z"/>
        <path class="cls-3" d="M109.7,642.77c33.15-8.66,66.55-18.34,99.36-28.39,32.85-10.08,65.34-20.69,97.44-31.83,31.97-11.03,64.2-23.1,95.75-35.45,31.61-12.4,62.83-25.31,93.63-38.71l.05-2.37c-30.82,13.38-62.06,26.26-93.69,38.64-31.62,12.37-63.75,24.32-95.75,35.33-32.12,11.11-64.62,21.7-97.49,31.75-32.88,10.06-66.17,19.62-99.36,28.26l.05,2.77Z"/>
        <path class="cls-3" d="M110.94,660.42c66.68-21.29,132.06-44.55,196.01-69.73,64.32-25.47,127.49-53.05,189.01-82.33l-.1-2.3c-61.54,29.21-124.84,56.79-189.08,82.12-64,25.12-129.41,48.33-196.13,69.55l.29,2.7Z"/>
        <path class="cls-3" d="M88.55,695.78c70.42-27.38,139.34-56.49,207.26-87.75,68.15-31.44,134.93-64.71,200.26-99.73l-.32-2.19c-65.38,34.95-132.22,68.15-200.42,99.52-67.86,31.09-136.91,60.2-207.35,87.48l.57,2.66Z"/>
        <path class="cls-3" d="M213.34,638.52c24.15-9.8,48.12-19.85,71.92-30.14,23.86-10.34,47.72-21.06,71.31-31.93,47.22-21.78,93.72-44.5,139.47-68.13l-.25-2.23c-45.78,23.58-92.32,46.26-139.57,68-23.58,10.83-47.54,21.59-71.3,31.81-23.81,10.26-47.81,20.28-71.97,30.06l.4,2.55Z"/>
        <path class="cls-3" d="M86.9,723.85c140.25-64.98,277.45-137.53,409.27-215.61l-.52-2.08c-66.01,39-133.25,76.51-201.66,112.48-17.1,8.99-34.28,17.89-51.52,26.69-17.22,8.77-34.4,17.37-51.72,25.91-34.6,17.06-69.49,33.73-104.66,50l.81,2.59Z"/>
        <path class="cls-3" d="M327.56,612.35c56.93-33.85,113.17-68.58,168.7-104.16l-.69-1.97c-55.59,35.52-111.88,70.18-168.86,103.96l.85,2.18Z"/>
        <path class="cls-3" d="M142.72,725.41c120.53-68.96,238.44-141.42,353.57-217.24l-.75-1.93c-115.24,75.68-233.27,147.99-353.91,216.8l1.09,2.38Z"/>
        <path class="cls-3" d="M135.32,736.92c122.88-72.98,243.26-149.27,361-228.77l-.8-1.9c-117.86,79.35-238.36,155.49-361.36,228.31l1.16,2.36Z"/>
        <path class="cls-3" d="M128.75,749.03c124.9-77.28,247.47-157.61,367.6-240.9l-.86-1.86c-120.25,83.14-242.95,163.31-367.97,240.42l1.23,2.33Z"/>
        <path class="cls-3" d="M167,758.71c110.62-82.58,220.44-166.14,329.47-250.67l-1.11-1.67c-109.15,84.38-219.1,167.79-329.84,250.22l1.48,2.13Z"/>
        <path class="cls-3" d="M287.86,674.55c69.7-55.33,139.25-110.84,208.64-166.54l-1.19-1.61c-69.48,55.6-139.1,111.02-208.88,166.25l1.43,1.91Z"/>
        <polygon class="cls-3" points="231.22 722.72 496.52 508 495.31 506.41 229.7 720.75 231.22 722.72"/>
        <path class="cls-3" d="M201.62,758.89l1.68,1.92c97.38-84.74,195.14-169.02,293.27-252.86l-1.33-1.5c-98.25,83.69-196.13,167.84-293.63,252.43Z"/>
        <path class="cls-3" d="M218.87,753.81l1.79,1.79c91.18-83.26,183.24-165.89,275.95-247.67l-1.4-1.44c-92.78,81.62-185.04,164.18-276.35,247.32Z"/>
        <path class="cls-3" d="M210.06,802.85l2.07,1.58c46.23-50.75,93.05-100.83,140.45-150.24,47.39-49.4,95.35-98.12,144.15-146.38l-1.64-1.21c-24.4,24.07-48.65,48.3-72.76,72.71-24.03,24.34-47.9,48.84-71.63,73.51-47.46,49.34-94.35,99.35-140.64,150.03Z"/>
        <path class="cls-3" d="M252.79,770.61l2.1,1.43c39.18-45.27,78.92-89.92,119.2-133.94,40.28-44.02,81.05-87.36,122.69-130.33l-1.73-1.12c-20.8,21.42-41.49,43.02-62,64.74-20.44,21.66-40.74,43.48-60.91,65.46-40.33,43.96-80.12,88.55-119.36,133.76Z"/>
        <path class="cls-3" d="M299.26,772.39l2.42.93c30.67-45.95,62.5-91.29,94.99-135.53,16.27-22.14,32.74-44.05,49.41-65.72l25.16-32.33c8.48-10.75,17.08-21.5,25.69-32.16l-2.06-.75c-34.68,42.74-67.8,85.81-100.45,130.11-32.56,44.22-64.36,89.44-95.18,135.45Z"/>
        <path class="cls-3" d="M325.41,709.3l2.18,1.14c27.34-34.71,55.11-68.95,83.29-102.72,28.18-33.77,56.7-67,85.99-100.04l-1.9-.94c-14.61,16.46-29.16,33.07-43.52,49.74-14.31,16.62-28.52,33.36-42.63,50.23-28.21,33.72-56.02,67.92-83.4,102.6Z"/>
        <path class="cls-3" d="M343.97,753.94l2.58.53c11.54-21.42,23.14-42.45,35.26-63.53,12.13-21.09,24.49-41.95,37.06-62.56,12.57-20.62,25.36-40.99,38.35-61.12,12.99-20.13,26.15-39.97,39.85-59.84l-2.3-.43c-6.81,9.89-13.59,19.86-20.27,29.85-6.61,9.93-13.17,19.93-19.67,29.99-13.01,20.11-25.81,40.47-38.4,61.07-25.17,41.2-49.58,83.46-72.46,126.05Z"/>
        <path class="cls-3" d="M358.44,736.02l2.6.46c20.64-39.41,42.72-78.6,65.42-116.81,11.36-19.11,22.9-38.01,34.64-56.69,11.72-18.67,23.61-37.11,35.98-55.58l-2.33-.38-18.32,27.74-17.76,27.84c-11.75,18.67-23.31,37.55-34.68,56.65-22.68,38.14-44.9,77.41-65.56,116.78Z"/>
        <path class="cls-3" d="M433.29,679.65l2.82-.38c4.39-14.78,8.91-29.42,13.57-43.92,4.82-14.64,9.85-29.21,14.98-43.59,5.13-14.39,10.4-28.63,15.8-42.72,5.4-14.09,10.85-27.97,16.81-42.01l-2.71.32c-2.92,6.96-5.88,14.03-8.66,21.02l-8.2,21.02c-5.4,14.09-10.67,28.33-15.8,42.71-5.14,14.39-10.14,28.92-15,43.6-4.71,14.54-9.2,29.14-13.6,43.93Z"/>
        <path class="cls-3" d="M450.52,647.09l2.85-.53c6.09-23.6,13.36-47.56,20.61-70.76,3.67-11.64,7.43-23.18,11.27-34.62,3.82-11.42,7.76-22.75,12.04-34.2l-2.77.46-6.24,17.15-5.84,17.08c-3.85,11.44-7.61,22.98-11.27,34.62-3.67,11.64-7.25,23.38-10.74,35.23l-5.16,17.84-4.76,17.74Z"/>
        <path class="cls-3" d="M466.6,626.44l2.89-.78c1.81-9.98,3.98-20.15,6.16-30.2,2.18-10.05,4.43-20.02,6.75-29.92,2.32-9.9,4.7-19.72,7.15-29.47l3.72-14.56,4.06-14.64-2.84.68-4.08,14.67-3.74,14.58c-2.45,9.75-4.83,19.57-7.15,29.48-4.57,19.74-9.14,40.04-12.93,60.17Z"/>
        <path class="cls-3" d="M484.69,581.28l2.9-1.04c1.38-12.46,2.87-24.8,4.46-37.02,1.62-12.25,3.17-24.22,5.32-36.5l-2.9.96c-2.14,12.27-3.75,24.32-5.34,36.55-1.58,12.23-3.07,24.58-4.44,37.04Z"/>
        <path class="cls-3" d="M385.95,704.9l2.64.27,12.51-25.38,12.98-25.35c8.75-16.83,17.65-33.5,26.7-50,9.05-16.5,18.26-32.83,27.61-48.98,9.33-16.14,18.83-32.12,28.73-48.14l-2.43-.23-14.65,24.05-14.16,24.09c-9.36,16.14-18.58,32.46-27.64,48.95-9.06,16.49-17.98,33.14-26.73,49.97l-13.02,25.36-12.55,25.38Z"/>
      </g>
      <path class="cls-1" d="M-17.39,568.04c36.97,61.16,76.79,120.33,119.9,176.8,10.78,14.11,22.03,27.81,33.1,41.68,5.58,6.9,11.1,13.84,16.75,20.67l17.37,20.1,17.44,20.05c5.85,6.65,11.57,13.42,17.69,19.81l36.33,38.69L885.17,284.26l-18.97-20.19c-3.28-3.27-6.15-6.87-9.18-10.34l-9.05-10.45-9.12-10.39-8.6-10.78c-5.67-7.22-11.64-14.23-17.2-21.53-22.22-29.2-42.46-59.55-61.41-90.46L-17.39,568.04Z"/>
    </g>
  </g>
</svg>