<?xml version="1.0" encoding="UTF-8"?>
<svg id="_레이어_1" data-name="레이어_1" xmlns="http://www.w3.org/2000/svg" viewBox="0 0 1200 1200">
  <defs>
    <style>
      .cls-1 {
        fill: none;
      }

      .cls-2 {
        fill: #815239;
      }

      .cls-3 {
        fill: #fff;
      }
    </style>
  </defs>
  <g>
    <g>
      <path class="cls-2" d="M1028.15,884.21l84.86,60.91c4.38,3.15,12.38-.36,17.87-7.86,5.49-7.49,6.38-16.12,2-19.28l-84.95-60.97c-10.29-7.36-23.07-7.21-28.52.31-5.45,7.52-1.53,19.54,8.74,26.89Z"/>
      <polygon class="cls-1" points="1329.47 431.94 1446.38 518 820.49 1365.37 707.66 1282.31 1329.47 431.94"/>
    </g>
    <g>
      <path class="cls-3" d="M611.39,594.01c30.02,19.47,60.32,38.28,90.41,57.23,30.09,18.92,59.92,38.16,89.57,57.77,59.3,39.17,117.85,79.57,175.99,120.61l36.15,31c8.24,5.87,22.62-13.96,14.37-19.84-28.2-16.19-56.45-32.28-84.77-48.21-51.67-36.04-103.73-71.51-156.44-105.97-52.63-34.6-106.46-67.24-159.4-101.46-1.39-.9-3.83.36-5.45,2.81-1.62,2.45-1.81,5.17-.42,6.08Z"/>
      <path class="cls-1" d="M906.55,141.89c26.82,18,59.24,38.62,96.57,62.83,18.78,12.22,38.32,25.03,57.06,37.6l28.2,18.96,27.89,19c73.98,50.72,144.79,101.65,213.19,151.67l-621.8,850.37c-63.76-46.63-125.93-91.27-187.01-133.13l-22.85-15.57-22.75-15.3c-15.26-10.23-29.96-19.86-45.48-29.97-31.33-20.36-68.05-43.62-109.24-71.18L906.55,141.89Z"/>
    </g>
    <g>
      <g>
        <path class="cls-3" d="M507.38,512.23c25.36,27.62,52.43,53.89,80.04,79.45l-2.43,3.23c-27.66-25.6-54.82-51.93-80.29-79.65l2.68-3.02Z"/>
        <path class="cls-3" d="M507.42,512.29c19.23,25.84,39.89,50.95,61.15,75.52l-2.56,3.1c-21.32-24.62-42.05-49.79-61.37-75.71l2.77-2.91Z"/>
        <path class="cls-3" d="M507.49,512.39c14.01,27.65,29.55,54.99,45.81,81.94l-2.72,2.88c-16.31-26.99-31.9-54.4-45.99-82.12l2.9-2.7Z"/>
        <path class="cls-3" d="M507.58,512.7c4.11,32.5,9.91,65.31,16.67,98.1l-3,2.22c-6.78-32.83-12.62-65.69-16.76-98.24l3.09-2.08Z"/>
        <path class="cls-3" d="M507.59,512.86c.37,42.66,3.4,86.08,7.73,129.46l-3.04,1.93c-4.36-43.42-7.4-86.92-7.8-129.61l3.11-1.78Z"/>
        <path class="cls-3" d="M507.58,513.03c-4.26,42.64-6.15,86.15-6.7,129.88l-3.08,1.55c.55-43.77,2.43-87.3,6.69-129.99l3.09-1.44Z"/>
        <path class="cls-3" d="M507.5,513.42c-20.26,66.08-36.2,134.44-49.97,203.31l-3.05.7c13.77-68.95,29.78-137.27,50.1-203.37l2.93-.64Z"/>
        <path class="cls-3" d="M507.46,513.54c-23.07,64.28-42.46,130.54-59.73,197.59l-3.02.42c17.3-67.07,36.75-133.33,59.91-197.59l2.85-.41Z"/>
        <path class="cls-3" d="M507.48,513.5c-38.76,113.75-65.4,233.57-89.82,353.12l-3.02.6c24.37-119.62,51.06-239.49,89.97-353.22l2.88-.49Z"/>
        <path class="cls-3" d="M507.31,513.89c-64.08,124.63-118.73,255.11-169.13,387.34l-2.98-.42c50.47-132.21,105.25-262.73,169.57-387.2l2.55.28Z"/>
        <path class="cls-3" d="M507.23,514.03c-77.34,132.88-146.38,271.31-210.76,412.16l-2.95-.85c64.49-140.81,133.72-279.16,211.33-411.89l2.38.58Z"/>
        <path class="cls-3" d="M507.14,514.17c-76.7,118.44-148.77,239.98-217.35,363.91l-2.83-1.23c68.75-123.81,141.01-245.32,217.97-363.54l2.21.86Z"/>
        <path class="cls-3" d="M507.1,514.24c-82.57,120.9-161.23,244.7-237,370.33l-2.79-1.42c75.94-125.56,154.86-249.19,237.67-369.91l2.12,1Z"/>
        <path class="cls-3" d="M505.23,512.92l1.61,1.65c-113.21,130.11-229.19,257.67-348.12,382.86l-2.55-2.52c119.28-124.82,235.56-252.19,349.06-381.99Z"/>
        <path class="cls-3" d="M505.31,512.84l1.46,1.82c-47.6,51.43-95.95,102.1-145.16,152.05-49.2,50.01-99.24,99.19-150.18,147.53l-2.21-2.55c102.14-96.43,200.68-196.31,296.08-298.85Z"/>
        <path class="cls-3" d="M505.33,512.81l1.42,1.87c-99.87,105.67-203.59,207.91-311.75,305.98l-2.18-2.63c108.41-97.81,212.42-199.77,312.51-305.22Z"/>
        <path class="cls-3" d="M505.45,512.69l1.17,2.12c-115.65,110.4-238.69,214.17-371.09,307.63l-1.98-3.09c132.72-93.04,256.03-196.5,371.91-306.66Z"/>
        <path class="cls-3" d="M505.42,512.72l1.24,2.05c-111.15,109.3-228.59,213.02-353.77,308.58l-2.06-3c125.5-95.15,243.22-198.56,354.59-307.62Z"/>
        <path class="cls-3" d="M505.59,512.56l.89,2.37c-64.46,54.81-131.77,106.99-202.51,155.21-70.75,48.22-144.9,92.86-223.01,132.05l-1.67-3.52c156.51-78.17,297.22-176.76,426.31-286.11Z"/>
        <path class="cls-3" d="M505.65,512.51l.77,2.46c-130.08,105.58-272.7,199.46-432.75,269.65l-1.51-3.66c160.35-69.56,303.23-163.18,433.49-268.45Z"/>
        <path class="cls-3" d="M505.69,512.48l.7,2.52c-65.71,51.63-134.69,100.02-207.7,143.66-73,43.65-150.05,82.51-231.7,114.56l-1.38-3.69c163.61-63.77,308.56-154.18,440.09-257.05Z"/>
        <path class="cls-3" d="M505.75,512.44l.58,2.61c-66.36,49.68-136.2,95.82-210.41,136.62-74.19,40.78-152.78,76.21-236.29,103.88l-1.21-3.81c83.63-27.37,162.34-62.55,236.64-103.13,74.32-40.6,144.25-86.6,210.69-136.16Z"/>
        <path class="cls-3" d="M505.8,512.4l.47,2.69c-123.09,87.46-258.95,162.63-412.78,210.21l-.97-3.75c154.03-47.05,290.08-121.89,413.28-209.15Z"/>
        <path class="cls-3" d="M505.98,512.28l.12,2.92c-68.94,41.39-142.04,77.88-220.75,106.55-78.64,28.47-162.96,49.03-253.04,56.8l-.4-4.09c90.12-7.31,174.49-27.85,253.19-56.03,78.77-28.5,151.92-64.89,220.89-106.15Z"/>
        <path class="cls-3" d="M506.04,512.25v2.99c-65.22,36.69-134.2,68.78-208.28,93.6-74.01,24.6-153.17,41.85-237.52,47.17l-.17-4.01c84.36-4.91,163.57-22.15,237.61-46.5,74.12-24.66,143.14-56.66,208.37-93.25Z"/>
        <path class="cls-3" d="M506.22,512.16l-.37,3.18c-62.74,28.07-129.12,51.62-200.3,66.9-35.59,7.67-72.37,13.28-110.33,16.11-19.01,1.58-38.26,2.13-57.86,2.33-19.55-.14-39.44-.62-59.54-2.29l.5-3.91c40.2,3.29,79.38,3.03,117.34.23,37.95-2.73,74.74-8.36,110.3-15.91,71.17-15.18,137.54-38.63,200.26-66.65Z"/>
        <path class="cls-3" d="M506.41,512.08l-.74,3.33c-54.94,17.85-112.59,31.81-173.76,38.83-30.58,3.49-62.06,5.35-94.36,4.8-32.31-.49-65.52-3.09-99.39-8.64l1.11-3.67c67.74,11.03,132.46,11.03,193.54,4.07,61.13-6.98,118.73-20.89,173.61-38.72Z"/>
        <path class="cls-3" d="M506.48,512.06l-.89,3.37c-43.11,11.82-87.77,21.02-134.51,26.25-46.73,5.27-95.5,6.4-146.28,1.54l1.23-3.52c50.72,4.86,99.41,3.82,146.09-1.44,46.7-5.24,91.29-14.38,134.36-26.2Z"/>
        <path class="cls-3" d="M506.7,512.02l-1.33,3.45c-46.35,4.89-94.27,6.47-144.22,2.56-24.94-2.03-50.37-5.44-76.27-10.58-25.85-5.23-52.13-12.27-78.72-21.4l1.99-3.31c52.99,18.35,104.86,27.89,154.6,31.91,49.85,3.87,97.67,2.27,143.94-2.63Z"/>
        <path class="cls-3" d="M506.89,512.01l-1.7,3.46c-55.26-3.92-112.23-12.75-170.73-31.48l2.19-3.22c58.32,18.61,115.11,27.39,170.24,31.23Z"/>
        <path class="cls-3" d="M507.02,512.03l-1.97,3.42c-39.1-9.13-78.61-20.89-118.21-37.19-39.62-16.22-79.4-37.05-118.03-64.42l2.87-2.75c38.45,27.21,78.07,47.88,117.53,64,39.44,16.2,78.83,27.86,117.81,36.93Z"/>
        <path class="cls-3" d="M507.19,512.09l-2.31,3.3c-49.15-25.08-97.36-54.77-142.37-92.51l2.95-2.75c44.76,37.47,92.75,67,141.72,91.95Z"/>
        <path class="cls-3" d="M507.28,512.14l-2.48,3.2c-31.77-22.72-62.47-47.42-91.13-74.87-28.62-27.47-55.13-57.8-78.01-91.35l3.42-2.16c22.71,33.27,49.04,63.4,77.5,90.69,28.5,27.28,59.05,51.85,90.7,74.48Z"/>
        <path class="cls-3" d="M418.78,374.9c22.83,47.73,53.63,93.87,88.63,137.37l-2.74,2.95c-35.15-43.65-66.16-89.98-89.19-138.02l3.3-2.3Z"/>
        <path class="cls-3" d="M437.84,306.64c6.83,66.2,33.32,137.61,69.64,205.74l-2.89,2.73c-36.49-68.34-63.25-140.01-70.28-206.68l3.53-1.79Z"/>
        <path class="cls-3" d="M497.55,260.79c-10.15,36.05-13.46,76.88-11.26,119.62,2.15,42.81,9.96,87.37,21.27,132.16l-3.04,2.34c-11.36-44.9-19.27-89.55-21.49-132.51-2.25-42.89.94-83.87,11.04-120.12l3.48-1.49Z"/>
        <path class="cls-3" d="M554.23,227.15c-10.84,18.94-19.84,39.75-26.99,61.91-7.11,22.15-12.33,45.62-15.93,69.98-7.24,48.76-7.68,100.79-3.73,153.74l-3.1,1.95c-3.97-53.05-3.59-105.15,3.64-154.02,3.58-24.4,8.82-47.94,15.89-70.14,7.11-22.21,16.13-43.08,26.96-62.08l3.26-1.33Z"/>
        <path class="cls-3" d="M652.62,160.2c-43.74,40.92-76.94,95.06-100.35,155.73-23.52,60.77-37.24,127.83-44.69,197.11l-3.09,1.41c7.46-69.35,21.26-136.48,44.78-197.27,23.44-60.71,56.81-114.85,100.51-155.77l2.84-1.22Z"/>
        <path class="cls-3" d="M598.19,249.99c-22.87,38.37-41.39,80.47-56.23,124.76-14.83,44.3-25.98,90.78-34.39,138.41l-3.05,1.17c16.78-95.17,45-186.41,90.91-263.24l2.78-1.1Z"/>
        <path class="cls-3" d="M698.28,138.79c-24.93,22.74-47.57,48.52-67.77,76.61-20.09,28.09-37.86,58.46-53.45,90.48-31.07,64.03-53.41,134.42-69.51,207.37l-3.02.99c16.16-72.99,38.6-143.38,69.74-207.39,15.65-32,33.49-62.36,53.66-90.42,20.15-28.06,42.95-53.79,67.94-76.47l2.41-1.17Z"/>
        <path class="cls-3" d="M722.23,127.55c-26.17,24.55-50.05,51.78-71.89,81.04-21.61,29.27-41.39,60.6-58.89,93.4-35.19,65.64-62.45,137.19-83.95,211.39l-2.95.71c21.63-74.24,48.89-145.72,84.28-211.33,35.2-65.55,78.76-125.16,131.17-174.13l2.21-1.08Z"/>
        <path class="cls-3" d="M729.14,126.05c-52.18,50.8-95.99,111.07-132.37,176.75-36.34,65.7-65.56,136.89-89.28,210.66l-2.91.57c23.82-73.78,53.16-144.93,89.61-210.56,36.64-65.62,80.41-125.79,132.9-176.4l2.05-1.03Z"/>
        <path class="cls-3" d="M740.64,117.13c-54.37,51.88-100.32,113.48-138.58,180.68-38.26,67.22-69.23,140.1-94.59,215.68l-2.88.51c25.46-75.58,56.57-148.42,94.94-215.56,38.53-67.13,84.44-128.61,139.13-180.29l1.97-1.02Z"/>
        <path class="cls-3" d="M742.84,122.1c-52.3,53.74-97.36,115.15-136.16,181.25-38.84,66.14-71.35,136.9-99.24,210.24l-2.82.32c27.96-73.3,60.67-144.06,99.65-210.09,38.95-66,84.17-127.29,136.65-180.85l1.91-.87Z"/>
        <path class="cls-3" d="M753.42,119.41c-52.31,55.95-98.34,118.26-138.97,184.61-40.65,66.38-75.93,136.82-107.05,209.67l-2.73.11c31.23-72.81,66.66-143.19,107.47-209.47,40.8-66.26,87.01-128.42,139.52-184.19l1.76-.73Z"/>
        <path class="cls-3" d="M764.06,115.21c-105.65,115.96-188.71,252.98-256.7,398.56l-2.65-.07c68.21-145.5,151.76-282.3,257.7-397.89l1.65-.61Z"/>
        <path class="cls-3" d="M799.94,86.36c-115.9,126.88-211.58,272.83-292.64,427.55l-2.52-.32c40.74-77.35,85.03-152.34,133.74-223.9,48.76-71.56,101.93-139.63,160.08-202.82l1.35-.5Z"/>
        <path class="cls-3" d="M696.46,206.38c-72.2,95.41-134.4,199.16-189.14,307.49l-2.57-.24c54.92-108.23,117.45-211.86,189.9-307.03l1.81-.22Z"/>
        <path class="cls-3" d="M818.73,75.13c-118.56,133.92-221.11,282.51-311.5,438.9l-2.39-.56c90.71-156.22,193.7-304.53,312.66-438.04l1.23-.3Z"/>
        <path class="cls-3" d="M636,320.21c-44.81,63.25-87.66,128.01-128.83,193.91l-2.27-.76c41.35-65.85,84.29-130.47,129.29-193.62l1.81.46Z"/>
        <path class="cls-3" d="M791.7,120.3c-102.55,125.11-196.79,257.14-284.55,393.86l-2.23-.83c88.02-136.55,182.74-268.32,285.54-393.12l1.24.1Z"/>
        <path class="cls-3" d="M803.16,110.05c-105.91,128.91-204.05,264.28-296.03,404.14l-2.19-.9c92.34-139.68,190.73-274.79,297.06-403.38l1.15.13Z"/>
        <path class="cls-3" d="M814.52,100.17c-108.99,132.75-211.12,271.3-307.42,414.05l-2.14-.97c96.66-142.56,199.06-280.84,308.49-413.26l1.06.17Z"/>
        <path class="cls-3" d="M805.86,129.58c-101.57,126.7-201.18,255.05-298.86,384.8l-1.93-1.27c97.95-129.52,197.95-257.65,299.78-384.09l1.01.56Z"/>
        <path class="cls-3" d="M701.14,267.35c-65.07,82.08-129.79,164.44-194.17,247.07l-1.86-1.36c64.57-82.49,129.45-164.7,194.73-246.63l1.29.91Z"/>
        <path class="cls-3" d="M756.69,199.75c-83.57,104.64-166.81,209.53-249.74,314.69l-1.83-1.39c83.16-104.97,166.64-209.68,250.44-314.12l1.13.82Z"/>
        <path class="cls-3" d="M794.05,160.67l.92.89c-95.17,118.32-191.2,235.98-288.08,352.95l-1.72-1.52c97.14-116.76,193.44-234.2,288.88-352.31Z"/>
        <path class="cls-3" d="M784.94,178.23l.98,1.04c-91.7,112.89-184.5,224.74-279.05,335.28l-1.65-1.61c94.79-110.35,187.92-221.96,279.73-334.71Z"/>
        <path class="cls-3" d="M826.4,152.5l.75,1.33c-102.62,123.63-209.16,244.41-320.42,360.86l-1.39-1.9c111.56-116.22,218.21-236.82,321.05-360.3Z"/>
        <path class="cls-3" d="M790.66,204.25l.8,1.53c-91.16,106.08-185.74,209.59-284.78,308.97l-1.29-2c99.25-99.17,194.02-202.52,285.26-308.5Z"/>
        <path class="cls-3" d="M784.61,248.99l.59,2.05c-88.46,91.97-180.19,181.14-278.73,263.91l-.85-2.4c98.67-82.6,190.59-171.63,279-263.56Z"/>
        <path class="cls-3" d="M724.98,294.79l.75,1.86c-70.29,75.12-143.06,148.27-219.16,218.2l-1.07-2.21c76.23-69.77,149.15-142.82,219.48-217.85Z"/>
        <path class="cls-3" d="M764.08,299.67l.37,2.43c-82.02,74.89-166.75,147.41-258.17,212.99l-.49-2.68c91.51-65.45,176.3-137.85,258.28-212.74Z"/>
        <path class="cls-3" d="M746.56,320.17l.3,2.49c-76.56,67.73-155.66,133.18-240.61,192.45l-.43-2.73c85.05-59.15,164.14-124.51,240.74-192.21Z"/>
        <path class="cls-3" d="M690.71,414.88l-.29,3.11c-59.46,35.15-120.1,68.68-184.57,97.35l.38-3.18c64.46-28.63,125.08-62.12,184.48-97.27Z"/>
        <path class="cls-3" d="M657.85,441.98l-.45,3.2c-49.02,25.49-99.09,49.54-151.63,70.19l.54-3.25c52.54-20.63,102.55-44.65,151.54-70.14Z"/>
        <path class="cls-3" d="M636.82,464.4l-.68,3.33c-42.41,17.63-85.55,33.98-130.51,47.69l.8-3.34c44.94-13.71,88.01-30.03,130.38-47.67Z"/>
        <path class="cls-3" d="M589.17,493.24l-1.02,3.44c-27.11,7.13-54.56,13.52-82.68,18.78l1.12-3.42c28.06-5.25,55.5-11.66,82.57-18.79Z"/>
        <path class="cls-3" d="M715.73,358l.19,2.65c-67.03,54.53-136.08,107.04-209.75,154.52l-.26-2.84c73.76-47.38,142.78-99.82,209.82-154.33Z"/>
      </g>
      <path class="cls-1" d="M808,64.12c-.62-1.3-1.18-1.97-1.15-1.89.22.14.58.87,1.87,2.34,2.48,2.91,7.39,8.34,15.3,15.52,3.92,3.58,8.43,7.56,13.79,11.93,2.5,2.14,5.55,4.45,8.34,6.74,3.25,2.47,6.24,4.88,9.82,7.52,6.79,5.16,14.53,10.75,22.96,16.69,8.31,5.89,17.7,12.26,27.62,18.92L320.32,1017.16c-15.36-10.31-31.15-21.03-47.7-32.71-16.46-11.59-33.4-23.81-50.88-37.03-8.63-6.44-17.59-13.45-26.39-20.28-9.08-7.23-18.03-14.29-27.2-21.92-18.19-14.92-36.66-30.92-55.2-47.87-37.05-33.86-74.69-72.15-111.39-115.85-18.35-21.8-36.45-45.29-54-69.87-17.56-24.78-34.52-51.11-50.62-78.62L808,64.12Z"/>
    </g>
  </g>
  <g>
    <polygon class="cls-1" points="54.91 750.67 67.2 784.89 79.72 819.45 105.46 889.87 -930.18 1269.66 -956.85 1196.68 -970.33 1159.48 -983.84 1121.87 54.91 750.67"/>
    <path class="cls-1" d="M-75.54,318.18C-47.58,450.1-1.01,594.6,54.91,750.67l-1038.75,371.2c-31.05-86.92-62.29-177.67-91.57-273.07-29.25-95.4-56.58-195.53-79.06-301.04L-75.54,318.18Z"/>
  </g>
</svg>