<?xml version="1.0" encoding="UTF-8"?>
<svg id="_레이어_1" data-name="레이어_1" xmlns="http://www.w3.org/2000/svg" viewBox="0 0 1200 1200">
  <defs>
    <style>
      .cls-1 {
        fill: none;
      }

      .cls-2 {
        fill: #815239;
      }

      .cls-3 {
        fill: #fff;
      }
    </style>
  </defs>
  <path class="cls-1" d="M-1044.07,46.27c19.44-55.88,38.96-106.86,57.04-153.54L39.55,290.62c-16.68,43-31.42,81.92-43.57,116.88L-1044.07,46.27Z"/>
  <g>
    <g>
      <path class="cls-2" d="M834.07,1022.84l47.07,88.12c2.43,4.55,11.22,4.68,19.63.29,8.41-4.39,13.26-11.64,10.83-16.19l-47.07-88.12c-5.69-10.66-17.12-15.73-25.54-11.35-8.41,4.39-10.62,16.59-4.93,27.24Z"/>
      <rect class="cls-1" x="331.49" y="987.46" width="1076.32" height="136.36" transform="translate(-387.76 517.5) rotate(-27.35)"/>
    </g>
    <g>
      <path class="cls-3" d="M613.13,589.85c32.54,59.63,64.38,119.84,96.52,179.86l96.22,180.16,17.4,42.13c4.56,8.54,26.75-3.04,22.19-11.58l-52.21-77.26-85.09-159.32c-28.4-53.08-56.59-106.29-85.43-159.11-.76-1.39-3.52-1.36-6.17.06-2.65,1.42-4.18,3.69-3.43,5.07Z"/>
      <path class="cls-1" d="M1097.59,325.98c19.94,37.58,38.76,73.91,56.91,108.98l53.96,104.34,107.86,208.55-956.02,494.46-107.86-208.55-53.9-104.21c-17.82-34.44-35.01-67.59-51.76-99.14l950.79-504.42Z"/>
    </g>
    <g>
      <g>
        <path class="cls-3" d="M557.96,477.25c12.3,33.34,24.03,66.8,35.44,100.39l-3.72,1.78c-11.39-33.56-23.11-66.99-35.39-100.3l3.68-1.87Z"/>
        <path class="cls-3" d="M557.98,477.32c7.35,29.74,14.25,59.48,20.86,89.27l-3.75,1.66c-6.6-29.77-13.5-59.48-20.83-89.19l3.72-1.74Z"/>
        <path class="cls-3" d="M557.99,477.43c1.81,29.68,3.2,59.25,4.3,88.78l-3.78,1.43c-1.1-29.51-2.48-59.05-4.28-88.71l3.75-1.51Z"/>
        <path class="cls-3" d="M557.95,477.75c-9.27,30.85-18.98,61.4-28.96,91.79l-3.68.83c9.98-30.37,19.69-60.91,28.96-91.74l3.67-.88Z"/>
        <path class="cls-3" d="M557.9,477.89c-16.79,38.84-34.23,77.15-52.04,115.18l-3.57.55c17.81-38.01,35.25-76.3,52.04-115.13l3.56-.6Z"/>
        <path class="cls-3" d="M557.83,478.04c-21.06,37.31-42.67,74.09-64.64,110.55l-3.4.27c21.96-36.45,43.58-73.22,64.63-110.52l3.41-.3Z"/>
        <path class="cls-3" d="M557.59,478.37c-45.21,53.36-91.37,105.59-138.07,157.19l-2.9-.36c46.69-51.6,92.83-103.83,138.03-157.2l2.94.37Z"/>
        <path class="cls-3" d="M557.51,478.47c-47.07,50.77-94.94,100.54-143.31,149.68l-2.73-.53c48.36-49.15,96.21-98.92,143.26-149.7l2.78.56Z"/>
        <path class="cls-3" d="M557.54,478.43c-81.33,90.48-165.27,177.77-250.04,264.1l-2.78-.48c84.77-86.3,168.68-173.61,249.98-264.11l2.84.49Z"/>
        <path class="cls-3" d="M557.23,478.73c-109.05,92.07-220.03,181.33-332.02,269.12l-2.11-.97c111.97-87.8,222.92-177.11,331.92-269.23l2.22,1.09Z"/>
        <path class="cls-3" d="M557.09,478.84c-124.58,95.24-250.86,187.91-378.14,279.01l-1.82-1.15c127.26-91.12,253.49-183.85,378.01-279.16l1.95,1.3Z"/>
        <path class="cls-3" d="M556.96,478.94c-118.16,82.27-237.28,163.06-357.07,242.72l-1.55-1.31c119.77-79.73,238.83-160.54,356.94-242.91l1.68,1.5Z"/>
        <path class="cls-3" d="M556.89,478.99c-124.55,82.69-249.88,164.16-375.79,244.61l-1.4-1.39c125.88-80.49,251.15-162.04,375.66-244.81l1.54,1.6Z"/>
        <path class="cls-3" d="M555.71,477.17l.81,2.03c-156.39,80.96-312.3,162.93-467.6,245.88l-.63-1.7c155.24-83.05,311.08-165.14,467.43-246.21Z"/>
        <path class="cls-3" d="M555.81,477.12l.61,2.13c-128.8,62.23-257.22,125.24-384.6,190.11l-.43-1.78c63.63-32.56,127.55-64.6,191.66-96.24,64.09-31.69,128.37-63.11,192.76-94.22Z"/>
        <path class="cls-3" d="M555.85,477.11l.54,2.16c-134.27,63.31-268.07,127.57-400.48,194.36l-.36-1.8c132.34-66.9,266.04-131.36,400.29-194.72Z"/>
        <path class="cls-3" d="M556.01,477.03l.21,2.31c-150.62,62.64-300.73,126.58-445.91,199.45l.11-1.66c144.96-73.27,294.99-137.38,445.58-200.09Z"/>
        <path class="cls-3" d="M555.96,477.06l.31,2.26c-146.06,63.09-291.64,127.29-433.56,198.17v-1.64c141.72-71.26,287.21-135.64,433.25-198.8Z"/>
        <path class="cls-3" d="M556.19,476.97l-.15,2.44c-162.42,57.63-324.47,117.41-474.62,198.03l.65-1.44c149.77-81.32,311.71-141.33,474.12-199.03Z"/>
        <path class="cls-3" d="M556.26,476.94l-.29,2.49c-161.84,53.67-323.57,109.42-470.73,190.59.25-.53.54-.95.81-1.43,146.8-81.77,308.36-137.95,470.21-191.65Z"/>
        <path class="cls-3" d="M556.31,476.93l-.38,2.52c-162.06,51.07-324.12,104.53-469.52,186.75l.91-1.48c72.41-41.4,149.29-75.6,228.13-105.8,78.88-30.19,159.75-56.43,240.87-81.99Z"/>
        <path class="cls-3" d="M556.38,476.91l-.52,2.56c-80.93,23.56-161.65,47.78-240.12,76.49-78.44,28.68-154.66,61.98-225.58,103.71l1.07-1.45c70.74-41.98,146.79-75.68,225.14-104.54,78.39-28.88,159.07-53.2,240-76.78Z"/>
        <path class="cls-3" d="M556.45,476.89l-.65,2.6c-74.17,19.78-148.16,40.16-220.15,64.62-71.96,24.44-141.96,53.03-207.24,89.29l1.12-1.62c65.13-36.47,134.97-65.45,206.87-90.02,71.92-24.61,145.88-45.07,220.06-64.87Z"/>
        <path class="cls-3" d="M556.65,476.84l-1.07,2.7c-79.89,15.19-159.67,31.17-235.72,54.89-38.03,11.74-75.06,25.65-110.49,42.1-35.45,16.35-69.2,35.7-100.41,58.31l1.63-1.58c15.49-11.54,31.78-21.81,48.44-31.77,16.79-9.56,33.96-18.84,51.68-26.99,17.64-8.45,35.79-15.83,54.16-23.05,18.45-6.88,37.15-13.53,56.16-19.4,75.96-23.96,155.73-39.99,235.62-55.21Z"/>
        <path class="cls-3" d="M556.72,476.83l-1.21,2.72c-74.58,12.14-149.07,25.02-220.18,45.09-35.56,9.93-70.21,21.86-103.41,36.17-33.22,14.21-64.89,31.19-94.24,51.22l1.66-1.76c14.58-10.22,29.88-19.28,45.53-28.03,15.76-8.38,31.87-16.51,48.47-23.58,16.53-7.35,33.53-13.72,50.73-19.93,17.27-5.9,34.77-11.58,52.54-16.54,71.04-20.28,145.52-33.2,220.1-45.37Z"/>
        <path class="cls-3" d="M556.93,476.8l-1.62,2.77c-68.89,5.15-137.76,11.24-203.06,25.2-65.17,13.99-127,36.27-178.42,72.44l1.89-2.04c51.27-36.32,113.01-58.95,178.17-72.95,65.26-14.12,134.12-20.26,203.03-25.42Z"/>
        <path class="cls-3" d="M557.13,476.8l-2.02,2.78c-57.61-1.59-115.25-2.38-170.23,3.37-54.89,5.69-107.31,18.43-151.72,42.58l2.04-2.4c44.36-24.26,96.78-37.17,151.67-42.85,54.98-5.84,112.63-5.06,170.26-3.47Z"/>
        <path class="cls-3" d="M557.21,476.8l-2.18,2.77c-44.3-3.26-88.59-6.01-131.61-5.31-42.99.8-84.8,5.06-123.13,15.85l2.1-2.63c19.15-5.45,39.22-9.11,59.84-11.75,20.63-2.48,41.82-3.78,63.33-4.19,43.03-.74,87.34,2,131.65,5.26Z"/>
        <path class="cls-3" d="M557.42,476.83l-2.61,2.7c-44.51-10.56-89.1-20.52-132.13-25.21-42.95-4.73-84.52-4.13-120.71,5.91l2.3-2.85c36.27-10.01,77.91-10.52,120.92-5.81,43.09,4.7,87.7,14.68,132.23,25.25Z"/>
        <path class="cls-3" d="M557.6,476.89l-2.96,2.59c-49.16-21.38-98.68-41.84-145.94-52.28l2.74-2.78c47.4,10.54,96.97,31.07,146.16,52.47Z"/>
        <path class="cls-3" d="M557.71,476.95l-3.19,2.47c-32.27-20.88-64.69-41.3-96.92-57.72-32.17-16.45-64.3-28.77-94.17-33.95l2.57-3.07c30.09,5.36,62.36,17.82,94.63,34.37,32.33,16.53,64.79,37,97.08,57.9Z"/>
        <path class="cls-3" d="M557.84,477.06l-3.45,2.25c-35.09-38.59-70.68-76.48-108.59-106.37l3.09-2.71c38.15,30.17,73.83,68.21,108.94,106.83Z"/>
        <path class="cls-3" d="M557.9,477.14l-3.56,2.1c-20.1-30.84-40.41-61.36-62.45-89.86-21.99-28.5-45.89-54.92-72.44-77.01l2.8-3.04c26.83,22.36,50.91,49.02,73.02,77.68,22.15,28.66,42.51,59.27,62.62,90.14Z"/>
        <path class="cls-3" d="M504.04,324.83c23.91,50.55,39.07,101.5,53.93,152.46l-3.7,1.79c-14.83-50.92-29.93-101.7-53.63-151.94l3.4-2.32Z"/>
        <path class="cls-3" d="M512.63,247.85c16.73,40.16,26.3,79.45,32.71,117.48,6.37,38.09,9.64,75.09,12.66,112.09l-3.75,1.53c-3.01-36.97-6.25-73.9-12.56-111.85-6.34-37.89-15.8-77-32.38-116.92l3.32-2.33Z"/>
        <path class="cls-3" d="M560.78,187.47c14.18,54.81,16.62,105.88,14.28,153.46-2.42,47.69-9.61,92.27-17.07,136.69l-3.73,1.13c7.47-44.39,14.66-88.92,17.11-136.49,2.37-47.47-.03-98.37-14.13-152.95l3.54-1.84Z"/>
        <path class="cls-3" d="M612.73,144.28c8.71,66,2.93,125.53-8.49,179.86-11.54,54.47-28.78,104.21-46.3,153.66l-3.63.76c17.52-49.42,34.75-99.13,46.27-153.53,11.41-54.27,17.14-113.7,8.39-179.53l3.76-1.22Z"/>
        <path class="cls-3" d="M690.11,49.68c2.55,44.76-.53,86.92-7.41,126.34-6.89,39.45-17.53,76.2-30.37,110.89-25.78,69.42-59.99,130.56-94.51,191.13l-3.4.28c34.51-60.55,68.68-121.7,94.37-191.13,12.79-34.69,23.37-71.45,30.17-110.9,6.79-39.42,9.76-81.57,7.09-126.29l4.07-.32Z"/>
        <path class="cls-3" d="M699.26,214.28c-17.14,50.25-39.42,95.97-63.74,139.24-24.35,43.28-50.96,84.08-77.77,124.63l-3.27.06c26.81-40.54,53.38-81.36,77.68-124.66,24.32-43.27,46.44-89.07,63.49-139.34l3.6.07Z"/>
        <path class="cls-3" d="M760.3,49.61c-11.66,89.84-41.58,167.2-78.13,236.47-36.72,69.39-80.4,131.07-124.47,192.15l-3.17-.08c44.05-61.07,87.71-122.77,124.27-192.26,18.25-34.72,34.69-71.38,48.09-110.66,13.39-39.26,23.75-81.18,29.35-126.08l4.05.47Z"/>
        <path class="cls-3" d="M804.16,59.94c-11.72,43.16-27.01,83.55-44.71,121.57-17.82,37.96-38.06,73.56-59.72,107.49-43.41,67.86-92.59,128.87-142.12,189.35l-2.99-.32c49.55-60.45,98.59-121.57,141.91-189.51,21.58-33.99,41.69-69.68,59.4-107.71,17.69-38.03,32.72-78.57,44.25-121.82l3.97.95Z"/>
        <path class="cls-3" d="M822.43,72.22c-29.03,82.88-70.25,155.04-116.25,220.98-46.1,65.98-97.17,125.86-148.62,185.2l-2.9-.43c51.42-59.34,102.47-119.26,148.4-185.39,23.02-33,44.64-67.62,64.19-104.36,9.89-18.29,18.95-37.32,27.7-56.73,8.41-19.62,16.65-39.54,23.64-60.4l3.84,1.12Z"/>
        <path class="cls-3" d="M835.08,64.23c-30.93,84.62-74.18,158.26-122.32,225.48-48.25,67.26-101.53,128.28-155.21,188.72l-2.85-.48c53.65-60.45,106.91-121.51,154.98-188.93,24.1-33.64,46.73-68.97,67.31-106.45,20.67-37.41,38.99-77.19,54.25-119.58l3.84,1.23Z"/>
        <path class="cls-3" d="M854.29,92.04c-38.33,76.81-85.31,144.9-136.21,207.81-50.86,63.02-105.56,121.09-160.6,178.65l-2.71-.63c55.04-57.55,109.65-115.72,160.39-178.85,50.81-63.01,97.47-131.39,135.59-208.36l3.54,1.38Z"/>
        <path class="cls-3" d="M878.2,108.41c-44.94,71.9-96.41,136.58-150.94,197.07-54.57,60.49-112.02,117.07-169.86,173.11l-2.55-.79c57.81-56.05,115.24-112.68,169.67-173.31,54.34-60.68,105.68-125.51,150.35-197.65l3.33,1.59Z"/>
        <path class="cls-3" d="M898.94,119.39c-50.15,68.47-105.5,130.77-163.23,189.68-57.77,58.89-117.9,114.5-178.39,169.59l-2.4-.93c60.47-55.1,120.55-110.77,178.2-169.81,57.61-59.05,112.8-121.55,162.69-190.26l3.13,1.73Z"/>
        <path class="cls-3" d="M949.51,110.88c-119.71,137.72-255.67,253.69-392.3,367.87l-2.18-1.12c136.54-114.24,272.41-230.42,391.58-368.73l2.9,1.98Z"/>
        <path class="cls-3" d="M831.43,226.48c-87.09,90.13-180.35,171.65-274.18,252.24l-2.26-1.06c93.81-80.59,186.92-162.32,273.83-252.67l2.61,1.5Z"/>
        <path class="cls-3" d="M982.56,122.46c-134.42,129.54-279.54,243.74-425.46,356.37l-1.97-1.29c73-56.28,145.61-113.16,216.85-172.08,71.3-58.86,140.98-120.12,207.96-185.14l2.62,2.14Z"/>
        <path class="cls-3" d="M749.09,338.13c-63.62,47.58-127.68,94.39-192.08,140.77l-1.78-1.43c64.33-46.43,128.44-93.24,191.96-140.94l1.9,1.6Z"/>
        <path class="cls-3" d="M958.74,184.51c-131.25,102.29-266.23,198.84-401.76,294.42l-1.71-1.48c135.5-95.62,270.33-192.39,401.37-294.98l2.1,2.04Z"/>
        <path class="cls-3" d="M974.63,180.77c-136.85,103.12-276.96,201.17-417.69,298.18l-1.64-1.53c140.64-97.13,280.73-195.21,417.35-298.68l1.98,2.02Z"/>
        <path class="cls-3" d="M990.76,178.11c-142.68,103.38-287.9,202.71-433.86,300.87l-1.57-1.57c145.87-98.25,291.09-197.62,433.51-301.39l1.92,2.09Z"/>
        <path class="cls-3" d="M981.83,219.82c-141.31,87.07-283.01,173.46-425.08,259.26l-1.26-1.78c142.03-85.89,283.64-172.39,424.9-259.56l1.44,2.08Z"/>
        <polygon class="cls-3" points="833.83 316.95 556.7 479.11 555.54 477.27 832.57 314.93 833.83 316.95"/>
        <polygon class="cls-3" points="912.16 273.87 556.68 479.12 555.56 477.26 910.91 271.78 912.16 273.87"/>
        <path class="cls-3" d="M964.36,254.41l1.12,2.21c-136.45,73.9-272.74,148.08-408.87,222.54l-.97-1.95c136.08-74.55,272.32-148.82,408.72-222.81Z"/>
        <path class="cls-3" d="M950.49,270.2l.99,2.24c-131.9,68.42-263.58,137.32-394.93,206.74l-.87-2c131.31-69.51,262.92-138.51,394.81-206.99Z"/>
        <path class="cls-3" d="M1005.94,273.98l.62,2.42c-150.81,66.12-300.95,133.59-450.19,202.88l-.51-2.18c149.17-69.38,299.32-136.92,450.07-203.12Z"/>
        <path class="cls-3" d="M951.44,308.12l.46,2.45c-132.57,54.83-264.47,110.94-395.6,168.73l-.37-2.24c131.06-57.88,262.99-114.05,395.51-168.94Z"/>
        <path class="cls-3" d="M930.6,354.73l-.14,2.61c-125.59,38.82-250.59,79.15-374.43,122.08l.18-2.46c123.82-42.99,248.81-83.38,374.39-122.23Z"/>
        <path class="cls-3" d="M852.09,364.63l.15,2.5c-99.21,36.33-197.92,73.63-296.08,112.23l-.09-2.35c98.12-38.65,196.84-76,296.02-112.38Z"/>
        <path class="cls-3" d="M890.31,394.65l-.63,2.69c-111.93,25.55-223.47,52.47-333.88,82.14l.64-2.59c110.38-29.73,221.94-56.67,333.87-82.24Z"/>
        <path class="cls-3" d="M864.6,404.77l-.71,2.7c-103.27,22.35-206.21,45.96-308.13,72.02l.71-2.61c101.92-26.1,204.84-49.75,308.13-72.11Z"/>
        <path class="cls-3" d="M770.39,466.11l-1.66,2.79c-71.4,2.38-142.66,5.63-213.42,10.67l1.63-2.77c70.76-5.06,142.05-8.31,213.45-10.69Z"/>
        <path class="cls-3" d="M727.58,474.99l-1.83,2.78c-57.02-.27-113.94.15-170.53,1.8l1.8-2.78c56.6-1.66,113.52-2.08,170.56-1.81Z"/>
        <path class="cls-3" d="M698.05,485.77l-2.12,2.77c-47.06-3.67-94.06-6.79-140.86-8.96l2.08-2.78c46.81,2.17,93.82,5.29,140.89,8.97Z"/>
        <path class="cls-3" d="M641.3,490.93l-2.44,2.72c-28.02-5.01-56-9.75-83.95-14.09l2.41-2.74c27.96,4.35,55.94,9.1,83.98,14.11Z"/>
        <path class="cls-3" d="M818.8,424.62l-.91,2.73c-87.87,16.01-175.42,33.11-262.23,52.16l.91-2.66c86.81-19.08,174.36-36.21,262.23-52.23Z"/>
      </g>
      <path class="cls-1" d="M793.06-110.02c51.89,47.37,93.59,96.08,126.5,140.07,16.52,22.06,31.13,43.17,44.24,63.08,13.1,19.92,24.47,38.37,34.85,55.62,10.35,17.25,19.51,33.05,27.78,47.56,8.49,14.83,16.73,29.51,24.81,44.07,16.12,29.09,31.58,57.71,46.36,85.59L146.8,830.41c-12.47-23.54-24.69-46.12-36.78-67.94-6.04-10.88-12.04-21.58-18.01-32-6.13-10.77-11.6-20.13-16.22-27.83-4.62-7.68-8.54-14-11.45-18.38-2.9-4.39-4.92-7.17-5.83-8.41-1.89-2.65,1.18,2.2,10.18,10.21L793.06-110.02Z"/>
    </g>
  </g>
  <path class="cls-1" d="M1036.9,1715.1c-13.81,13.03-28.07,30.77-41.02,53.34-12.94,22.47-24.37,49.59-32.6,78.96l-757.68-212.24c24.83-88.4,60.16-175.36,108.19-258.99,47.97-83.48,109.09-163.77,184.45-234.63l538.66,573.55Z"/>
</svg>